<?xml version="1.0" encoding="utf-8" standalone="no"?>
<!DOCTYPE svg PUBLIC "-//W3C//DTD SVG 1.1//EN"
  "http://www.w3.org/Graphics/SVG/1.1/DTD/svg11.dtd">
<svg xmlns:xlink="http://www.w3.org/1999/xlink" width="216pt" height="288pt" viewBox="0 0 216 288" xmlns="http://www.w3.org/2000/svg" version="1.1">
 <metadata>
  <rdf:RDF xmlns:dc="http://purl.org/dc/elements/1.1/" xmlns:cc="http://creativecommons.org/ns#" xmlns:rdf="http://www.w3.org/1999/02/22-rdf-syntax-ns#">
   <cc:Work>
    <dc:type rdf:resource="http://purl.org/dc/dcmitype/StillImage"/>
    <dc:date>2024-12-06T14:43:42.232347</dc:date>
    <dc:format>image/svg+xml</dc:format>
    <dc:creator>
     <cc:Agent>
      <dc:title>Matplotlib v3.7.1, https://matplotlib.org/</dc:title>
     </cc:Agent>
    </dc:creator>
   </cc:Work>
  </rdf:RDF>
 </metadata>
 <defs>
  <style type="text/css">*{stroke-linejoin: round; stroke-linecap: butt}</style>
 </defs>
 <g id="figure_1">
  <g id="patch_1">
   <path d="M 0 288 
L 216 288 
L 216 0 
L 0 0 
z
" style="fill: #ffffff"/>
  </g>
  <g id="axes_1">
   <g id="patch_2">
    <path d="M 27 256.32 
L 194.4 256.32 
L 194.4 34.56 
L 27 34.56 
z
" style="fill: #ffffff"/>
   </g>
   <g id="PolyCollection_1">
    <defs>
     <path id="mb6d5742419" d="M 58.046762 -44.752792 
L 51.753238 -44.752792 
L 51.377595 -46.722641 
L 51.035994 -48.69249 
L 50.74372 -50.66234 
L 50.513269 -52.632189 
L 50.353094 -54.602038 
L 50.266767 -56.571887 
L 50.252676 -58.541736 
L 50.304303 -60.511586 
L 50.411021 -62.481435 
L 50.559296 -64.451284 
L 50.734117 -66.421133 
L 50.92044 -68.390982 
L 51.104491 -70.360832 
L 51.274767 -72.330681 
L 51.422662 -74.30053 
L 51.542708 -76.270379 
L 51.632458 -78.240228 
L 51.692095 -80.210078 
L 51.723868 -82.179927 
L 51.731452 -84.149776 
L 51.719318 -86.119625 
L 51.692179 -88.089474 
L 51.654559 -90.059324 
L 51.610479 -92.029173 
L 51.563275 -93.999022 
L 51.515511 -95.968871 
L 51.46896 -97.93872 
L 51.424621 -99.90857 
L 51.382751 -101.878419 
L 51.342904 -103.848268 
L 51.303952 -105.818117 
L 51.264137 -107.787966 
L 51.221125 -109.757816 
L 51.172112 -111.727665 
L 51.113972 -113.697514 
L 51.043446 -115.667363 
L 50.957367 -117.637212 
L 50.852887 -119.607062 
L 50.727687 -121.576911 
L 50.580145 -123.54676 
L 50.40944 -125.516609 
L 50.215596 -127.486458 
L 49.999467 -129.456308 
L 49.762666 -131.426157 
L 49.507468 -133.396006 
L 49.236678 -135.365855 
L 48.953474 -137.335704 
L 48.66122 -139.305554 
L 48.363233 -141.275403 
L 48.062519 -143.245252 
L 47.761471 -145.215101 
L 47.461565 -147.18495 
L 47.163098 -149.1548 
L 46.865009 -151.124649 
L 46.564838 -153.094498 
L 46.258857 -155.064347 
L 45.942368 -157.034196 
L 45.610142 -159.004046 
L 45.256926 -160.973895 
L 44.877947 -162.943744 
L 44.469307 -164.913593 
L 44.028216 -166.883442 
L 43.553028 -168.853292 
L 43.043102 -170.823141 
L 42.498566 -172.79299 
L 41.920072 -174.762839 
L 41.308657 -176.732688 
L 40.6658 -178.702537 
L 39.993694 -180.672387 
L 39.29574 -182.642236 
L 38.577167 -184.612085 
L 37.845666 -186.581934 
L 37.111912 -188.551783 
L 36.389846 -190.521633 
L 35.696642 -192.491482 
L 35.052323 -194.461331 
L 34.479034 -196.43118 
L 34.000041 -198.401029 
L 33.638526 -200.370879 
L 33.416272 -202.340728 
L 33.352332 -204.310577 
L 33.461764 -206.280426 
L 33.754523 -208.250275 
L 34.23458 -210.220125 
L 34.899342 -212.189974 
L 35.739447 -214.159823 
L 36.738963 -216.129672 
L 37.876015 -218.099521 
L 39.123809 -220.069371 
L 40.45199 -222.03922 
L 41.828225 -224.009069 
L 43.21989 -225.978918 
L 44.595707 -227.948767 
L 45.927218 -229.918617 
L 47.189967 -231.888466 
L 48.364339 -233.858315 
L 49.436007 -235.828164 
L 50.395996 -237.798013 
L 51.240417 -239.767863 
L 58.559583 -239.767863 
L 58.559583 -239.767863 
L 59.404004 -237.798013 
L 60.363993 -235.828164 
L 61.435661 -233.858315 
L 62.610033 -231.888466 
L 63.872782 -229.918617 
L 65.204293 -227.948767 
L 66.58011 -225.978918 
L 67.971775 -224.009069 
L 69.34801 -222.03922 
L 70.676191 -220.069371 
L 71.923985 -218.099521 
L 73.061037 -216.129672 
L 74.060553 -214.159823 
L 74.900658 -212.189974 
L 75.56542 -210.220125 
L 76.045477 -208.250275 
L 76.338236 -206.280426 
L 76.447668 -204.310577 
L 76.383728 -202.340728 
L 76.161474 -200.370879 
L 75.799959 -198.401029 
L 75.320966 -196.43118 
L 74.747677 -194.461331 
L 74.103358 -192.491482 
L 73.410154 -190.521633 
L 72.688088 -188.551783 
L 71.954334 -186.581934 
L 71.222833 -184.612085 
L 70.50426 -182.642236 
L 69.806306 -180.672387 
L 69.1342 -178.702537 
L 68.491343 -176.732688 
L 67.879928 -174.762839 
L 67.301434 -172.79299 
L 66.756898 -170.823141 
L 66.246972 -168.853292 
L 65.771784 -166.883442 
L 65.330693 -164.913593 
L 64.922053 -162.943744 
L 64.543074 -160.973895 
L 64.189858 -159.004046 
L 63.857632 -157.034196 
L 63.541143 -155.064347 
L 63.235162 -153.094498 
L 62.934991 -151.124649 
L 62.636902 -149.1548 
L 62.338435 -147.18495 
L 62.038529 -145.215101 
L 61.737481 -143.245252 
L 61.436767 -141.275403 
L 61.13878 -139.305554 
L 60.846526 -137.335704 
L 60.563322 -135.365855 
L 60.292532 -133.396006 
L 60.037334 -131.426157 
L 59.800533 -129.456308 
L 59.584404 -127.486458 
L 59.39056 -125.516609 
L 59.219855 -123.54676 
L 59.072313 -121.576911 
L 58.947113 -119.607062 
L 58.842633 -117.637212 
L 58.756554 -115.667363 
L 58.686028 -113.697514 
L 58.627888 -111.727665 
L 58.578875 -109.757816 
L 58.535863 -107.787966 
L 58.496048 -105.818117 
L 58.457096 -103.848268 
L 58.417249 -101.878419 
L 58.375379 -99.90857 
L 58.33104 -97.93872 
L 58.284489 -95.968871 
L 58.236725 -93.999022 
L 58.189521 -92.029173 
L 58.145441 -90.059324 
L 58.107821 -88.089474 
L 58.080682 -86.119625 
L 58.068548 -84.149776 
L 58.076132 -82.179927 
L 58.107905 -80.210078 
L 58.167542 -78.240228 
L 58.257292 -76.270379 
L 58.377338 -74.30053 
L 58.525233 -72.330681 
L 58.695509 -70.360832 
L 58.87956 -68.390982 
L 59.065883 -66.421133 
L 59.240704 -64.451284 
L 59.388979 -62.481435 
L 59.495697 -60.511586 
L 59.547324 -58.541736 
L 59.533233 -56.571887 
L 59.446906 -54.602038 
L 59.286731 -52.632189 
L 59.05628 -50.66234 
L 58.764006 -48.69249 
L 58.422405 -46.722641 
L 58.046762 -44.752792 
z
" style="stroke: #7f7f7f; stroke-width: 1.25"/>
    </defs>
    <g clip-path="url(#p8f94b346e2)">
     <use xlink:href="#mb6d5742419" x="0" y="288" style="fill: #eddcbb; stroke: #7f7f7f; stroke-width: 1.25"/>
    </g>
   </g>
   <g id="PolyCollection_2">
    <defs>
     <path id="m7872ac91b8" d="M 115.725256 -41.76 
L 105.674744 -41.76 
L 102.57035 -43.796364 
L 98.847305 -45.832727 
L 94.99094 -47.869091 
L 91.618077 -49.905455 
L 89.297757 -51.941818 
L 88.38 -53.978182 
L 88.894386 -56.014545 
L 90.558753 -58.050909 
L 92.897092 -60.087273 
L 95.411153 -62.123636 
L 97.722928 -64.16 
L 99.633221 -66.196364 
L 101.099538 -68.232727 
L 102.175262 -70.269091 
L 102.9515 -72.305455 
L 103.520203 -74.341818 
L 103.957169 -76.378182 
L 104.316539 -78.414545 
L 104.630538 -80.450909 
L 104.912455 -82.487273 
L 105.162666 -84.523636 
L 105.376573 -86.56 
L 105.551557 -88.596364 
L 105.690053 -90.632727 
L 105.79823 -92.669091 
L 105.882746 -94.705455 
L 105.948782 -96.741818 
L 106.000466 -98.778182 
L 106.041894 -100.814545 
L 106.0766 -102.850909 
L 106.105799 -104.887273 
L 106.127948 -106.923636 
L 106.140804 -108.96 
L 106.143841 -110.996364 
L 106.138086 -113.032727 
L 106.123564 -115.069091 
L 106.097586 -117.105455 
L 106.056198 -119.141818 
L 105.997705 -121.178182 
L 105.925147 -123.214545 
L 105.845564 -125.250909 
L 105.766513 -127.287273 
L 105.692185 -129.323636 
L 105.621523 -131.36 
L 105.549087 -133.396364 
L 105.467658 -135.432727 
L 105.371115 -137.469091 
L 105.256785 -139.505455 
L 105.12682 -141.541818 
L 104.987634 -143.578182 
L 104.84666 -145.614545 
L 104.707663 -147.650909 
L 104.568008 -149.687273 
L 104.42047 -151.723636 
L 104.258392 -153.76 
L 104.079895 -155.796364 
L 103.887814 -157.832727 
L 103.686144 -159.869091 
L 103.476563 -161.905455 
L 103.257812 -163.941818 
L 103.027785 -165.978182 
L 102.785913 -168.014545 
L 102.533357 -170.050909 
L 102.270707 -172.087273 
L 101.995606 -174.123636 
L 101.703107 -176.16 
L 101.388508 -178.196364 
L 101.049672 -180.232727 
L 100.686881 -182.269091 
L 100.301557 -184.305455 
L 99.896024 -186.341818 
L 99.474048 -188.378182 
L 99.039888 -190.414545 
L 98.595101 -192.450909 
L 98.135785 -194.487273 
L 97.653953 -196.523636 
L 97.143674 -198.56 
L 96.608437 -200.596364 
L 96.065198 -202.632727 
L 95.543023 -204.669091 
L 95.077647 -206.705455 
L 94.706138 -208.741818 
L 94.466718 -210.778182 
L 94.405056 -212.814545 
L 94.581194 -214.850909 
L 95.067197 -216.887273 
L 95.929126 -218.923636 
L 97.19612 -220.96 
L 98.82926 -222.996364 
L 100.708733 -225.032727 
L 102.653778 -227.069091 
L 104.473405 -229.105455 
L 106.025344 -231.141818 
L 107.252533 -233.178182 
L 108.179361 -235.214545 
L 108.875097 -237.250909 
L 109.410149 -239.287273 
L 109.829674 -241.323636 
L 110.15239 -243.36 
L 111.24761 -243.36 
L 111.24761 -243.36 
L 111.570326 -241.323636 
L 111.989851 -239.287273 
L 112.524903 -237.250909 
L 113.220639 -235.214545 
L 114.147467 -233.178182 
L 115.374656 -231.141818 
L 116.926595 -229.105455 
L 118.746222 -227.069091 
L 120.691267 -225.032727 
L 122.57074 -222.996364 
L 124.20388 -220.96 
L 125.470874 -218.923636 
L 126.332803 -216.887273 
L 126.818806 -214.850909 
L 126.994944 -212.814545 
L 126.933282 -210.778182 
L 126.693862 -208.741818 
L 126.322353 -206.705455 
L 125.856977 -204.669091 
L 125.334802 -202.632727 
L 124.791563 -200.596364 
L 124.256326 -198.56 
L 123.746047 -196.523636 
L 123.264215 -194.487273 
L 122.804899 -192.450909 
L 122.360112 -190.414545 
L 121.925952 -188.378182 
L 121.503976 -186.341818 
L 121.098443 -184.305455 
L 120.713119 -182.269091 
L 120.350328 -180.232727 
L 120.011492 -178.196364 
L 119.696893 -176.16 
L 119.404394 -174.123636 
L 119.129293 -172.087273 
L 118.866643 -170.050909 
L 118.614087 -168.014545 
L 118.372215 -165.978182 
L 118.142188 -163.941818 
L 117.923437 -161.905455 
L 117.713856 -159.869091 
L 117.512186 -157.832727 
L 117.320105 -155.796364 
L 117.141608 -153.76 
L 116.97953 -151.723636 
L 116.831992 -149.687273 
L 116.692337 -147.650909 
L 116.55334 -145.614545 
L 116.412366 -143.578182 
L 116.27318 -141.541818 
L 116.143215 -139.505455 
L 116.028885 -137.469091 
L 115.932342 -135.432727 
L 115.850913 -133.396364 
L 115.778477 -131.36 
L 115.707815 -129.323636 
L 115.633487 -127.287273 
L 115.554436 -125.250909 
L 115.474853 -123.214545 
L 115.402295 -121.178182 
L 115.343802 -119.141818 
L 115.302414 -117.105455 
L 115.276436 -115.069091 
L 115.261914 -113.032727 
L 115.256159 -110.996364 
L 115.259196 -108.96 
L 115.272052 -106.923636 
L 115.294201 -104.887273 
L 115.3234 -102.850909 
L 115.358106 -100.814545 
L 115.399534 -98.778182 
L 115.451218 -96.741818 
L 115.517254 -94.705455 
L 115.60177 -92.669091 
L 115.709947 -90.632727 
L 115.848443 -88.596364 
L 116.023427 -86.56 
L 116.237334 -84.523636 
L 116.487545 -82.487273 
L 116.769462 -80.450909 
L 117.083461 -78.414545 
L 117.442831 -76.378182 
L 117.879797 -74.341818 
L 118.4485 -72.305455 
L 119.224738 -70.269091 
L 120.300462 -68.232727 
L 121.766779 -66.196364 
L 123.677072 -64.16 
L 125.988847 -62.123636 
L 128.502908 -60.087273 
L 130.841247 -58.050909 
L 132.505614 -56.014545 
L 133.02 -53.978182 
L 132.102243 -51.941818 
L 129.781923 -49.905455 
L 126.40906 -47.869091 
L 122.552695 -45.832727 
L 118.82965 -43.796364 
L 115.725256 -41.76 
z
" style="stroke: #7f7f7f; stroke-width: 1.25"/>
    </defs>
    <g clip-path="url(#p8f94b346e2)">
     <use xlink:href="#m7872ac91b8" x="0" y="288" style="fill: #faf4e9; stroke: #7f7f7f; stroke-width: 1.25"/>
    </g>
   </g>
   <g id="PolyCollection_3">
    <defs>
     <path id="m64831bc490" d="M 171.50727 -41.76 
L 161.49273 -41.76 
L 158.394618 -43.796364 
L 154.677538 -45.832727 
L 150.826224 -47.869091 
L 147.457148 -49.905455 
L 145.139279 -51.941818 
L 144.222741 -53.978182 
L 144.737219 -56.014545 
L 146.400546 -58.050909 
L 148.736694 -60.087273 
L 151.247566 -62.123636 
L 153.555536 -64.16 
L 155.461901 -66.196364 
L 156.924578 -68.232727 
L 157.997159 -70.269091 
L 158.770755 -72.305455 
L 159.337198 -74.341818 
L 159.772175 -76.378182 
L 160.129783 -78.414545 
L 160.44226 -80.450909 
L 160.722869 -82.487273 
L 160.971885 -84.523636 
L 161.18459 -86.56 
L 161.35836 -88.596364 
L 161.495782 -90.632727 
L 161.603227 -92.669091 
L 161.687418 -94.705455 
L 161.753395 -96.741818 
L 161.805026 -98.778182 
L 161.846192 -100.814545 
L 161.880376 -102.850909 
L 161.908928 -104.887273 
L 161.930545 -106.923636 
L 161.9432 -108.96 
L 161.946454 -110.996364 
L 161.941239 -113.032727 
L 161.92736 -115.069091 
L 161.901872 -117.105455 
L 161.860638 -119.141818 
L 161.80192 -121.178182 
L 161.728843 -123.214545 
L 161.648593 -125.250909 
L 161.568836 -127.287273 
L 161.493787 -129.323636 
L 161.422357 -131.36 
L 161.349103 -133.396364 
L 161.266882 -135.432727 
L 161.169648 -137.469091 
L 161.054699 -139.505455 
L 160.924019 -141.541818 
L 160.783846 -143.578182 
L 160.641583 -145.614545 
L 160.501188 -147.650909 
L 160.360349 -149.687273 
L 160.212132 -151.723636 
L 160.050006 -153.76 
L 159.872022 -155.796364 
L 159.680822 -157.832727 
L 159.480143 -159.869091 
L 159.271348 -161.905455 
L 159.052801 -163.941818 
L 158.822054 -165.978182 
L 158.578436 -168.014545 
L 158.323393 -170.050909 
L 158.058105 -172.087273 
L 157.780848 -174.123636 
L 157.487058 -176.16 
L 157.172065 -178.196364 
L 156.833473 -180.232727 
L 156.471127 -182.269091 
L 156.085907 -184.305455 
L 155.679572 -186.341818 
L 155.255481 -188.378182 
L 154.817906 -190.414545 
L 154.369004 -192.450909 
L 153.90588 -194.487273 
L 153.421451 -196.523636 
L 152.910038 -198.56 
L 152.374639 -200.596364 
L 151.83147 -202.632727 
L 151.309234 -204.669091 
L 150.843894 -206.705455 
L 150.473049 -208.741818 
L 150.235353 -210.778182 
L 150.176614 -212.814545 
L 150.356699 -214.850909 
L 150.847198 -216.887273 
L 151.713525 -218.923636 
L 152.984293 -220.96 
L 154.620421 -222.996364 
L 156.502261 -225.032727 
L 158.449261 -227.069091 
L 160.270469 -229.105455 
L 161.823542 -231.141818 
L 163.051427 -233.178182 
L 163.978676 -235.214545 
L 164.674759 -237.250909 
L 165.210178 -239.287273 
L 165.63004 -241.323636 
L 165.952965 -243.36 
L 167.047035 -243.36 
L 167.047035 -243.36 
L 167.36996 -241.323636 
L 167.789822 -239.287273 
L 168.325241 -237.250909 
L 169.021324 -235.214545 
L 169.948573 -233.178182 
L 171.176458 -231.141818 
L 172.729531 -229.105455 
L 174.550739 -227.069091 
L 176.497739 -225.032727 
L 178.379579 -222.996364 
L 180.015707 -220.96 
L 181.286475 -218.923636 
L 182.152802 -216.887273 
L 182.643301 -214.850909 
L 182.823386 -212.814545 
L 182.764647 -210.778182 
L 182.526951 -208.741818 
L 182.156106 -206.705455 
L 181.690766 -204.669091 
L 181.16853 -202.632727 
L 180.625361 -200.596364 
L 180.089962 -198.56 
L 179.578549 -196.523636 
L 179.09412 -194.487273 
L 178.630996 -192.450909 
L 178.182094 -190.414545 
L 177.744519 -188.378182 
L 177.320428 -186.341818 
L 176.914093 -184.305455 
L 176.528873 -182.269091 
L 176.166527 -180.232727 
L 175.827935 -178.196364 
L 175.512942 -176.16 
L 175.219152 -174.123636 
L 174.941895 -172.087273 
L 174.676607 -170.050909 
L 174.421564 -168.014545 
L 174.177946 -165.978182 
L 173.947199 -163.941818 
L 173.728652 -161.905455 
L 173.519857 -159.869091 
L 173.319178 -157.832727 
L 173.127978 -155.796364 
L 172.949994 -153.76 
L 172.787868 -151.723636 
L 172.639651 -149.687273 
L 172.498812 -147.650909 
L 172.358417 -145.614545 
L 172.216154 -143.578182 
L 172.075981 -141.541818 
L 171.945301 -139.505455 
L 171.830352 -137.469091 
L 171.733118 -135.432727 
L 171.650897 -133.396364 
L 171.577643 -131.36 
L 171.506213 -129.323636 
L 171.431164 -127.287273 
L 171.351407 -125.250909 
L 171.271157 -123.214545 
L 171.19808 -121.178182 
L 171.139362 -119.141818 
L 171.098128 -117.105455 
L 171.07264 -115.069091 
L 171.058761 -113.032727 
L 171.053546 -110.996364 
L 171.0568 -108.96 
L 171.069455 -106.923636 
L 171.091072 -104.887273 
L 171.119624 -102.850909 
L 171.153808 -100.814545 
L 171.194974 -98.778182 
L 171.246605 -96.741818 
L 171.312582 -94.705455 
L 171.396773 -92.669091 
L 171.504218 -90.632727 
L 171.64164 -88.596364 
L 171.81541 -86.56 
L 172.028115 -84.523636 
L 172.277131 -82.487273 
L 172.55774 -80.450909 
L 172.870217 -78.414545 
L 173.227825 -76.378182 
L 173.662802 -74.341818 
L 174.229245 -72.305455 
L 175.002841 -70.269091 
L 176.075422 -68.232727 
L 177.538099 -66.196364 
L 179.444464 -64.16 
L 181.752434 -62.123636 
L 184.263306 -60.087273 
L 186.599454 -58.050909 
L 188.262781 -56.014545 
L 188.777259 -53.978182 
L 187.860721 -51.941818 
L 185.542852 -49.905455 
L 182.173776 -47.869091 
L 178.322462 -45.832727 
L 174.605382 -43.796364 
L 171.50727 -41.76 
z
" style="stroke: #7f7f7f; stroke-width: 1.25"/>
    </defs>
    <g clip-path="url(#p8f94b346e2)">
     <use xlink:href="#m64831bc490" x="0" y="288" style="fill: #d3d3d3; stroke: #7f7f7f; stroke-width: 1.25"/>
    </g>
   </g>
   <g id="matplotlib.axis_1">
    <g id="xtick_1">
     <g id="line2d_1">
      <defs>
       <path id="m55d781908f" d="M 0 0 
L 0 3.5 
" style="stroke: #000000; stroke-width: 0.8"/>
      </defs>
      <g>
       <use xlink:href="#m55d781908f" x="54.9" y="256.32" style="stroke: #000000; stroke-width: 0.8"/>
      </g>
     </g>
     <g id="text_1">
      <text style="font: 10px 'DejaVu Sans', 'Bitstream Vera Sans', 'Computer Modern Sans Serif', 'Lucida Grande', 'Verdana', 'Geneva', 'Lucid', 'Arial', 'Helvetica', 'Avant Garde', sans-serif; text-anchor: middle" x="54.9" y="270.918437" transform="rotate(-0 54.9 270.918437)">Mutated in &gt;=1 individual</text>
     </g>
    </g>
    <g id="xtick_2">
     <g id="line2d_2">
      <g>
       <use xlink:href="#m55d781908f" x="110.7" y="256.32" style="stroke: #000000; stroke-width: 0.8"/>
      </g>
     </g>
     <g id="text_2">
      <text style="font: 10px 'DejaVu Sans', 'Bitstream Vera Sans', 'Computer Modern Sans Serif', 'Lucida Grande', 'Verdana', 'Geneva', 'Lucid', 'Arial', 'Helvetica', 'Avant Garde', sans-serif; text-anchor: middle" x="110.7" y="270.918437" transform="rotate(-0 110.7 270.918437)">Never mutated</text>
     </g>
    </g>
    <g id="xtick_3">
     <g id="line2d_3">
      <g>
       <use xlink:href="#m55d781908f" x="166.5" y="256.32" style="stroke: #000000; stroke-width: 0.8"/>
      </g>
     </g>
     <g id="text_3">
      <text style="font: 10px 'DejaVu Sans', 'Bitstream Vera Sans', 'Computer Modern Sans Serif', 'Lucida Grande', 'Verdana', 'Geneva', 'Lucid', 'Arial', 'Helvetica', 'Avant Garde', sans-serif; text-anchor: middle" x="166.5" y="270.918437" transform="rotate(-0 166.5 270.918437)">All</text>
     </g>
    </g>
    <g id="text_4">
     <text style="font: 10px 'DejaVu Sans', 'Bitstream Vera Sans', 'Computer Modern Sans Serif', 'Lucida Grande', 'Verdana', 'Geneva', 'Lucid', 'Arial', 'Helvetica', 'Avant Garde', sans-serif; text-anchor: middle" x="110.7" y="284.596563" transform="rotate(-0 110.7 284.596563)">CpG mutation status</text>
    </g>
   </g>
   <g id="matplotlib.axis_2">
    <g id="ytick_1">
     <g id="line2d_4">
      <defs>
       <path id="meba7d3eedc" d="M 0 0 
L -3.5 0 
" style="stroke: #000000; stroke-width: 0.8"/>
      </defs>
      <g>
       <use xlink:href="#meba7d3eedc" x="27" y="249.940056" style="stroke: #000000; stroke-width: 0.8"/>
      </g>
     </g>
     <g id="text_5">
      <text style="font: 10px 'DejaVu Sans', 'Bitstream Vera Sans', 'Computer Modern Sans Serif', 'Lucida Grande', 'Verdana', 'Geneva', 'Lucid', 'Arial', 'Helvetica', 'Avant Garde', sans-serif; text-anchor: end" x="20" y="253.739275" transform="rotate(-0 20 253.739275)">0.0</text>
     </g>
    </g>
    <g id="ytick_2">
     <g id="line2d_5">
      <g>
       <use xlink:href="#meba7d3eedc" x="27" y="207.729127" style="stroke: #000000; stroke-width: 0.8"/>
      </g>
     </g>
     <g id="text_6">
      <text style="font: 10px 'DejaVu Sans', 'Bitstream Vera Sans', 'Computer Modern Sans Serif', 'Lucida Grande', 'Verdana', 'Geneva', 'Lucid', 'Arial', 'Helvetica', 'Avant Garde', sans-serif; text-anchor: end" x="20" y="211.528345" transform="rotate(-0 20 211.528345)">0.2</text>
     </g>
    </g>
    <g id="ytick_3">
     <g id="line2d_6">
      <g>
       <use xlink:href="#meba7d3eedc" x="27" y="165.518198" style="stroke: #000000; stroke-width: 0.8"/>
      </g>
     </g>
     <g id="text_7">
      <text style="font: 10px 'DejaVu Sans', 'Bitstream Vera Sans', 'Computer Modern Sans Serif', 'Lucida Grande', 'Verdana', 'Geneva', 'Lucid', 'Arial', 'Helvetica', 'Avant Garde', sans-serif; text-anchor: end" x="20" y="169.317416" transform="rotate(-0 20 169.317416)">0.4</text>
     </g>
    </g>
    <g id="ytick_4">
     <g id="line2d_7">
      <g>
       <use xlink:href="#meba7d3eedc" x="27" y="123.307268" style="stroke: #000000; stroke-width: 0.8"/>
      </g>
     </g>
     <g id="text_8">
      <text style="font: 10px 'DejaVu Sans', 'Bitstream Vera Sans', 'Computer Modern Sans Serif', 'Lucida Grande', 'Verdana', 'Geneva', 'Lucid', 'Arial', 'Helvetica', 'Avant Garde', sans-serif; text-anchor: end" x="20" y="127.106487" transform="rotate(-0 20 127.106487)">0.6</text>
     </g>
    </g>
    <g id="ytick_5">
     <g id="line2d_8">
      <g>
       <use xlink:href="#meba7d3eedc" x="27" y="81.096339" style="stroke: #000000; stroke-width: 0.8"/>
      </g>
     </g>
     <g id="text_9">
      <text style="font: 10px 'DejaVu Sans', 'Bitstream Vera Sans', 'Computer Modern Sans Serif', 'Lucida Grande', 'Verdana', 'Geneva', 'Lucid', 'Arial', 'Helvetica', 'Avant Garde', sans-serif; text-anchor: end" x="20" y="84.895558" transform="rotate(-0 20 84.895558)">0.8</text>
     </g>
    </g>
    <g id="ytick_6">
     <g id="line2d_9">
      <g>
       <use xlink:href="#meba7d3eedc" x="27" y="38.88541" style="stroke: #000000; stroke-width: 0.8"/>
      </g>
     </g>
     <g id="text_10">
      <text style="font: 10px 'DejaVu Sans', 'Bitstream Vera Sans', 'Computer Modern Sans Serif', 'Lucida Grande', 'Verdana', 'Geneva', 'Lucid', 'Arial', 'Helvetica', 'Avant Garde', sans-serif; text-anchor: end" x="20" y="42.684629" transform="rotate(-0 20 42.684629)">1.0</text>
     </g>
    </g>
    <g id="text_11">
     <text style="font: 10px 'DejaVu Sans', 'Bitstream Vera Sans', 'Computer Modern Sans Serif', 'Lucida Grande', 'Verdana', 'Geneva', 'Lucid', 'Arial', 'Helvetica', 'Avant Garde', sans-serif; text-anchor: middle" x="-1.982813" y="145.44" transform="rotate(-90 -1.982813 145.44)">Mean methylation fraction</text>
    </g>
   </g>
   <g id="line2d_10">
    <path d="M 54.9 231.759746 
L 54.9 48.232137 
" clip-path="url(#p8f94b346e2)" style="fill: none; stroke: #7f7f7f; stroke-width: 1.875; stroke-linecap: square"/>
   </g>
   <g id="line2d_11">
    <path d="M 54.9 141.138982 
L 54.9 80.721058 
" clip-path="url(#p8f94b346e2)" style="fill: none; stroke: #7f7f7f; stroke-width: 5.625; stroke-linecap: square"/>
   </g>
   <g id="line2d_12">
    <path d="M 54.9 100.364049 
" clip-path="url(#p8f94b346e2)" style="fill: none; stroke: #7f7f7f; stroke-width: 1.5; stroke-linecap: square"/>
    <defs>
     <path id="m17fc75acd8" d="M 2.34375 0 
L -2.34375 -0 
" style="stroke: #ffffff; stroke-width: 1.125"/>
    </defs>
    <g clip-path="url(#p8f94b346e2)">
     <use xlink:href="#m17fc75acd8" x="54.9" y="100.364049" style="fill: #ffffff; stroke: #ffffff; stroke-width: 1.125"/>
    </g>
   </g>
   <g id="line2d_13">
    <path d="M 110.7 246.24 
L 110.7 44.64 
" clip-path="url(#p8f94b346e2)" style="fill: none; stroke: #7f7f7f; stroke-width: 1.875; stroke-linecap: square"/>
   </g>
   <g id="line2d_14">
    <path d="M 110.7 219.145986 
L 110.7 87.941703 
" clip-path="url(#p8f94b346e2)" style="fill: none; stroke: #7f7f7f; stroke-width: 5.625; stroke-linecap: square"/>
   </g>
   <g id="line2d_15">
    <path d="M 110.7 135.431991 
" clip-path="url(#p8f94b346e2)" style="fill: none; stroke: #7f7f7f; stroke-width: 1.5; stroke-linecap: square"/>
    <g clip-path="url(#p8f94b346e2)">
     <use xlink:href="#m17fc75acd8" x="110.7" y="135.431991" style="fill: #ffffff; stroke: #ffffff; stroke-width: 1.125"/>
    </g>
   </g>
   <g id="line2d_16">
    <path d="M 166.5 246.24 
L 166.5 44.64 
" clip-path="url(#p8f94b346e2)" style="fill: none; stroke: #7f7f7f; stroke-width: 1.875; stroke-linecap: square"/>
   </g>
   <g id="line2d_17">
    <path d="M 166.5 219.030094 
L 166.5 87.899272 
" clip-path="url(#p8f94b346e2)" style="fill: none; stroke: #7f7f7f; stroke-width: 5.625; stroke-linecap: square"/>
   </g>
   <g id="line2d_18">
    <path d="M 166.5 135.210899 
" clip-path="url(#p8f94b346e2)" style="fill: none; stroke: #7f7f7f; stroke-width: 1.5; stroke-linecap: square"/>
    <g clip-path="url(#p8f94b346e2)">
     <use xlink:href="#m17fc75acd8" x="166.5" y="135.210899" style="fill: #ffffff; stroke: #ffffff; stroke-width: 1.125"/>
    </g>
   </g>
   <g id="patch_3">
    <path d="M 27 256.32 
L 27 34.56 
" style="fill: none; stroke: #000000; stroke-width: 0.8; stroke-linejoin: miter; stroke-linecap: square"/>
   </g>
   <g id="patch_4">
    <path d="M 27 256.32 
L 194.4 256.32 
" style="fill: none; stroke: #000000; stroke-width: 0.8; stroke-linejoin: miter; stroke-linecap: square"/>
   </g>
  </g>
 </g>
 <defs>
  <clipPath id="p8f94b346e2">
   <rect x="27" y="34.56" width="167.4" height="221.76"/>
  </clipPath>
 </defs>
</svg>
