<?xml version="1.0" encoding="utf-8" standalone="no"?>
<!DOCTYPE svg PUBLIC "-//W3C//DTD SVG 1.1//EN"
  "http://www.w3.org/Graphics/SVG/1.1/DTD/svg11.dtd">
<svg xmlns:xlink="http://www.w3.org/1999/xlink" width="460.8pt" height="345.6pt" viewBox="0 0 460.8 345.6" xmlns="http://www.w3.org/2000/svg" version="1.1">
 <metadata>
  <rdf:RDF xmlns:dc="http://purl.org/dc/elements/1.1/" xmlns:cc="http://creativecommons.org/ns#" xmlns:rdf="http://www.w3.org/1999/02/22-rdf-syntax-ns#">
   <cc:Work>
    <dc:type rdf:resource="http://purl.org/dc/dcmitype/StillImage"/>
    <dc:date>2024-10-17T13:32:23.208946</dc:date>
    <dc:format>image/svg+xml</dc:format>
    <dc:creator>
     <cc:Agent>
      <dc:title>Matplotlib v3.7.1, https://matplotlib.org/</dc:title>
     </cc:Agent>
    </dc:creator>
   </cc:Work>
  </rdf:RDF>
 </metadata>
 <defs>
  <style type="text/css">*{stroke-linejoin: round; stroke-linecap: butt}</style>
 </defs>
 <g id="figure_1">
  <g id="patch_1">
   <path d="M 0 345.6 
L 460.8 345.6 
L 460.8 0 
L 0 0 
z
" style="fill: #ffffff"/>
  </g>
  <g id="axes_1">
   <g id="patch_2">
    <path d="M 57.6 307.584 
L 414.72 307.584 
L 414.72 41.472 
L 57.6 41.472 
z
" style="fill: #ffffff"/>
   </g>
   <g id="PolyCollection_1">
    <defs>
     <path id="ma7762f929c" d="M 127.86866 -50.112 
L 106.37134 -50.112 
L 105.458405 -51.667132 
L 104.526014 -53.222263 
L 103.581115 -54.777395 
L 102.631216 -56.332526 
L 101.68425 -57.887658 
L 100.748416 -59.442789 
L 99.832007 -60.997921 
L 98.943209 -62.553053 
L 98.089902 -64.108184 
L 97.279448 -65.663316 
L 96.518475 -67.218447 
L 95.812677 -68.773579 
L 95.166622 -70.328711 
L 94.58358 -71.883842 
L 94.065378 -73.438974 
L 93.612292 -74.994105 
L 93.222972 -76.549237 
L 92.894413 -78.104368 
L 92.621967 -79.6595 
L 92.39941 -81.214632 
L 92.219049 -82.769763 
L 92.071882 -84.324895 
L 91.947792 -85.880026 
L 91.835796 -87.435158 
L 91.724312 -88.990289 
L 91.601461 -90.545421 
L 91.455392 -92.100553 
L 91.274606 -93.655684 
L 91.048293 -95.210816 
L 90.766653 -96.765947 
L 90.421204 -98.321079 
L 90.005058 -99.87621 
L 89.513167 -101.431342 
L 88.942521 -102.986474 
L 88.292299 -104.541605 
L 87.563964 -106.096737 
L 86.761299 -107.651868 
L 85.89038 -109.207 
L 84.959496 -110.762132 
L 83.978997 -112.317263 
L 82.961097 -113.872395 
L 81.91962 -115.427526 
L 80.8697 -116.982658 
L 79.827449 -118.537789 
L 78.809591 -120.092921 
L 77.833085 -121.648053 
L 76.914731 -123.203184 
L 76.070785 -124.758316 
L 75.31659 -126.313447 
L 74.666222 -127.868579 
L 74.132178 -129.42371 
L 73.725099 -130.978842 
L 73.453548 -132.533974 
L 73.323839 -134.089105 
L 73.339922 -135.644237 
L 73.503336 -137.199368 
L 73.813218 -138.7545 
L 74.266374 -140.309632 
L 74.857403 -141.864763 
L 75.578876 -143.419895 
L 76.42156 -144.975026 
L 77.374675 -146.530158 
L 78.426188 -148.085289 
L 79.563116 -149.640421 
L 80.77185 -151.195553 
L 82.03847 -152.750684 
L 83.349057 -154.305816 
L 84.689988 -155.860947 
L 86.048204 -157.416079 
L 87.411447 -158.97121 
L 88.768462 -160.526342 
L 90.109155 -162.081474 
L 91.424714 -163.636605 
L 92.707685 -165.191737 
L 93.951999 -166.746868 
L 95.152967 -168.302 
L 96.307234 -169.857132 
L 97.412698 -171.412263 
L 98.468405 -172.967395 
L 99.474419 -174.522526 
L 100.431675 -176.077658 
L 101.341826 -177.632789 
L 102.207079 -179.187921 
L 103.030041 -180.743053 
L 103.813569 -182.298184 
L 104.560623 -183.853316 
L 105.274149 -185.408447 
L 105.956965 -186.963579 
L 106.611678 -188.51871 
L 107.240615 -190.073842 
L 107.845775 -191.628974 
L 108.428806 -193.184105 
L 108.990995 -194.739237 
L 109.533276 -196.294368 
L 110.056255 -197.8495 
L 110.560245 -199.404631 
L 111.045309 -200.959763 
L 111.511309 -202.514895 
L 111.957957 -204.070026 
L 122.282043 -204.070026 
L 122.282043 -204.070026 
L 122.728691 -202.514895 
L 123.194691 -200.959763 
L 123.679755 -199.404631 
L 124.183745 -197.8495 
L 124.706724 -196.294368 
L 125.249005 -194.739237 
L 125.811194 -193.184105 
L 126.394225 -191.628974 
L 126.999385 -190.073842 
L 127.628322 -188.51871 
L 128.283035 -186.963579 
L 128.965851 -185.408447 
L 129.679377 -183.853316 
L 130.426431 -182.298184 
L 131.209959 -180.743053 
L 132.032921 -179.187921 
L 132.898174 -177.632789 
L 133.808325 -176.077658 
L 134.765581 -174.522526 
L 135.771595 -172.967395 
L 136.827302 -171.412263 
L 137.932766 -169.857132 
L 139.087033 -168.302 
L 140.288001 -166.746868 
L 141.532315 -165.191737 
L 142.815286 -163.636605 
L 144.130845 -162.081474 
L 145.471538 -160.526342 
L 146.828553 -158.97121 
L 148.191796 -157.416079 
L 149.550012 -155.860947 
L 150.890943 -154.305816 
L 152.20153 -152.750684 
L 153.46815 -151.195553 
L 154.676884 -149.640421 
L 155.813812 -148.085289 
L 156.865325 -146.530158 
L 157.81844 -144.975026 
L 158.661124 -143.419895 
L 159.382597 -141.864763 
L 159.973626 -140.309632 
L 160.426782 -138.7545 
L 160.736664 -137.199368 
L 160.900078 -135.644237 
L 160.916161 -134.089105 
L 160.786452 -132.533974 
L 160.514901 -130.978842 
L 160.107822 -129.42371 
L 159.573778 -127.868579 
L 158.92341 -126.313447 
L 158.169215 -124.758316 
L 157.325269 -123.203184 
L 156.406915 -121.648053 
L 155.430409 -120.092921 
L 154.412551 -118.537789 
L 153.3703 -116.982658 
L 152.32038 -115.427526 
L 151.278903 -113.872395 
L 150.261003 -112.317263 
L 149.280504 -110.762132 
L 148.34962 -109.207 
L 147.478701 -107.651868 
L 146.676036 -106.096737 
L 145.947701 -104.541605 
L 145.297479 -102.986474 
L 144.726833 -101.431342 
L 144.234942 -99.87621 
L 143.818796 -98.321079 
L 143.473347 -96.765947 
L 143.191707 -95.210816 
L 142.965394 -93.655684 
L 142.784608 -92.100553 
L 142.638539 -90.545421 
L 142.515688 -88.990289 
L 142.404204 -87.435158 
L 142.292208 -85.880026 
L 142.168118 -84.324895 
L 142.020951 -82.769763 
L 141.84059 -81.214632 
L 141.618033 -79.6595 
L 141.345587 -78.104368 
L 141.017028 -76.549237 
L 140.627708 -74.994105 
L 140.174622 -73.438974 
L 139.65642 -71.883842 
L 139.073378 -70.328711 
L 138.427323 -68.773579 
L 137.721525 -67.218447 
L 136.960552 -65.663316 
L 136.150098 -64.108184 
L 135.296791 -62.553053 
L 134.407993 -60.997921 
L 133.491584 -59.442789 
L 132.55575 -57.887658 
L 131.608784 -56.332526 
L 130.658885 -54.777395 
L 129.713986 -53.222263 
L 128.781595 -51.667132 
L 127.86866 -50.112 
z
" style="stroke: #999999"/>
    </defs>
    <g clip-path="url(#p479a7f450a)">
     <use xlink:href="#ma7762f929c" x="0" y="345.6" style="fill: #ffffff; stroke: #999999"/>
    </g>
   </g>
   <g id="PolyCollection_2">
    <defs>
     <path id="mf58b7e3d43" d="M 245.786603 -63.500655 
L 226.533397 -63.500655 
L 225.116578 -65.329233 
L 223.573122 -67.15781 
L 221.906289 -68.986388 
L 220.122169 -70.814966 
L 218.229848 -72.643544 
L 216.241497 -74.472121 
L 214.17236 -76.300699 
L 212.040634 -78.129277 
L 209.867235 -79.957854 
L 207.675443 -81.786432 
L 205.490439 -83.61501 
L 203.338737 -85.443588 
L 201.24753 -87.272165 
L 199.243969 -89.100743 
L 197.35441 -90.929321 
L 195.603643 -92.757899 
L 194.014157 -94.586476 
L 192.605456 -96.415054 
L 191.393465 -98.243632 
L 190.390059 -100.07221 
L 189.60273 -101.900787 
L 189.034419 -103.729365 
L 188.683509 -105.557943 
L 188.544 -107.38652 
L 188.605836 -109.215098 
L 188.855387 -111.043676 
L 189.276052 -112.872254 
L 189.848956 -114.700831 
L 190.553711 -116.529409 
L 191.369197 -118.357987 
L 192.274337 -120.186565 
L 193.248817 -122.015142 
L 194.273736 -123.84372 
L 195.332142 -125.672298 
L 196.409454 -127.500875 
L 197.493736 -129.329453 
L 198.575838 -131.158031 
L 199.649392 -132.986609 
L 200.710682 -134.815186 
L 201.758396 -136.643764 
L 202.793287 -138.472342 
L 203.817763 -140.30092 
L 204.835425 -142.129497 
L 205.850596 -143.958075 
L 206.867846 -145.786653 
L 207.891543 -147.61523 
L 208.925457 -149.443808 
L 209.972424 -151.272386 
L 211.034073 -153.100964 
L 212.110647 -154.929541 
L 213.2009 -156.758119 
L 214.302071 -158.586697 
L 215.409942 -160.415275 
L 216.518962 -162.243852 
L 217.622428 -164.07243 
L 218.712721 -165.901008 
L 219.781569 -167.729586 
L 220.820341 -169.558163 
L 221.820347 -171.386741 
L 222.77314 -173.215319 
L 223.670804 -175.043896 
L 224.506221 -176.872474 
L 225.273309 -178.701052 
L 225.967225 -180.52963 
L 226.584519 -182.358207 
L 227.123247 -184.186785 
L 227.58304 -186.015363 
L 227.965109 -187.843941 
L 228.272221 -189.672518 
L 228.50861 -191.501096 
L 228.679861 -193.329674 
L 228.792741 -195.158251 
L 228.855011 -196.986829 
L 228.8752 -198.815407 
L 228.862368 -200.643985 
L 228.825854 -202.472562 
L 228.775025 -204.30114 
L 228.719023 -206.129718 
L 228.666534 -207.958296 
L 228.625567 -209.786873 
L 228.603269 -211.615451 
L 228.605767 -213.444029 
L 228.638046 -215.272606 
L 228.703867 -217.101184 
L 228.805729 -218.929762 
L 228.944864 -220.75834 
L 229.121281 -222.586917 
L 229.333835 -224.415495 
L 229.58034 -226.244073 
L 229.857699 -228.072651 
L 230.16206 -229.901228 
L 230.488985 -231.729806 
L 230.833627 -233.558384 
L 231.190907 -235.386962 
L 231.555684 -237.215539 
L 231.922915 -239.044117 
L 232.2878 -240.872695 
L 232.645902 -242.701272 
L 232.993247 -244.52985 
L 239.326753 -244.52985 
L 239.326753 -244.52985 
L 239.674098 -242.701272 
L 240.0322 -240.872695 
L 240.397085 -239.044117 
L 240.764316 -237.215539 
L 241.129093 -235.386962 
L 241.486373 -233.558384 
L 241.831015 -231.729806 
L 242.15794 -229.901228 
L 242.462301 -228.072651 
L 242.73966 -226.244073 
L 242.986165 -224.415495 
L 243.198719 -222.586917 
L 243.375136 -220.75834 
L 243.514271 -218.929762 
L 243.616133 -217.101184 
L 243.681954 -215.272606 
L 243.714233 -213.444029 
L 243.716731 -211.615451 
L 243.694433 -209.786873 
L 243.653466 -207.958296 
L 243.600977 -206.129718 
L 243.544975 -204.30114 
L 243.494146 -202.472562 
L 243.457632 -200.643985 
L 243.4448 -198.815407 
L 243.464989 -196.986829 
L 243.527259 -195.158251 
L 243.640139 -193.329674 
L 243.81139 -191.501096 
L 244.047779 -189.672518 
L 244.354891 -187.843941 
L 244.73696 -186.015363 
L 245.196753 -184.186785 
L 245.735481 -182.358207 
L 246.352775 -180.52963 
L 247.046691 -178.701052 
L 247.813779 -176.872474 
L 248.649196 -175.043896 
L 249.54686 -173.215319 
L 250.499653 -171.386741 
L 251.499659 -169.558163 
L 252.538431 -167.729586 
L 253.607279 -165.901008 
L 254.697572 -164.07243 
L 255.801038 -162.243852 
L 256.910058 -160.415275 
L 258.017929 -158.586697 
L 259.1191 -156.758119 
L 260.209353 -154.929541 
L 261.285927 -153.100964 
L 262.347576 -151.272386 
L 263.394543 -149.443808 
L 264.428457 -147.61523 
L 265.452154 -145.786653 
L 266.469404 -143.958075 
L 267.484575 -142.129497 
L 268.502237 -140.30092 
L 269.526713 -138.472342 
L 270.561604 -136.643764 
L 271.609318 -134.815186 
L 272.670608 -132.986609 
L 273.744162 -131.158031 
L 274.826264 -129.329453 
L 275.910546 -127.500875 
L 276.987858 -125.672298 
L 278.046264 -123.84372 
L 279.071183 -122.015142 
L 280.045663 -120.186565 
L 280.950803 -118.357987 
L 281.766289 -116.529409 
L 282.471044 -114.700831 
L 283.043948 -112.872254 
L 283.464613 -111.043676 
L 283.714164 -109.215098 
L 283.776 -107.38652 
L 283.636491 -105.557943 
L 283.285581 -103.729365 
L 282.71727 -101.900787 
L 281.929941 -100.07221 
L 280.926535 -98.243632 
L 279.714544 -96.415054 
L 278.305843 -94.586476 
L 276.716357 -92.757899 
L 274.96559 -90.929321 
L 273.076031 -89.100743 
L 271.07247 -87.272165 
L 268.981263 -85.443588 
L 266.829561 -83.61501 
L 264.644557 -81.786432 
L 262.452765 -79.957854 
L 260.279366 -78.129277 
L 258.14764 -76.300699 
L 256.078503 -74.472121 
L 254.090152 -72.643544 
L 252.197831 -70.814966 
L 250.413711 -68.986388 
L 248.746878 -67.15781 
L 247.203422 -65.329233 
L 245.786603 -63.500655 
z
" style="stroke: #999999"/>
    </defs>
    <g clip-path="url(#p479a7f450a)">
     <use xlink:href="#mf58b7e3d43" x="0" y="345.6" style="fill: #ffffff; stroke: #999999"/>
    </g>
   </g>
   <g id="PolyCollection_3">
    <defs>
     <path id="mf0e5afbbc4" d="M 361.545268 -86.860548 
L 348.854732 -86.860548 
L 348.194842 -88.932987 
L 347.495244 -91.005426 
L 346.75689 -93.077865 
L 345.981115 -95.150304 
L 345.169633 -97.222743 
L 344.324534 -99.295182 
L 343.448272 -101.367621 
L 342.543645 -103.440059 
L 341.613779 -105.512498 
L 340.662098 -107.584937 
L 339.692296 -109.657376 
L 338.708304 -111.729815 
L 337.71425 -113.802254 
L 336.714421 -115.874693 
L 335.713225 -117.947132 
L 334.715142 -120.019571 
L 333.724683 -122.09201 
L 332.746346 -124.164448 
L 331.784572 -126.236887 
L 330.843702 -128.309326 
L 329.927936 -130.381765 
L 329.041297 -132.454204 
L 328.187595 -134.526643 
L 327.370401 -136.599082 
L 326.59302 -138.671521 
L 325.858476 -140.74396 
L 325.169501 -142.816399 
L 324.528529 -144.888838 
L 323.937702 -146.961276 
L 323.398881 -149.033715 
L 322.913662 -151.106154 
L 322.483395 -153.178593 
L 322.109218 -155.251032 
L 321.792078 -157.323471 
L 321.532768 -159.39591 
L 321.331954 -161.468349 
L 321.190198 -163.540788 
L 321.107984 -165.613227 
L 321.085729 -167.685666 
L 321.123786 -169.758104 
L 321.222445 -171.830543 
L 321.381914 -173.902982 
L 321.602293 -175.975421 
L 321.883539 -178.04786 
L 322.225418 -180.120299 
L 322.627455 -182.192738 
L 323.088874 -184.265177 
L 323.60854 -186.337616 
L 324.184893 -188.410055 
L 324.8159 -190.482494 
L 325.499007 -192.554932 
L 326.231094 -194.627371 
L 327.008466 -196.69981 
L 327.826837 -198.772249 
L 328.681347 -200.844688 
L 329.566598 -202.917127 
L 330.476706 -204.989566 
L 331.405373 -207.062005 
L 332.345984 -209.134444 
L 333.29171 -211.206883 
L 334.235638 -213.279322 
L 335.170897 -215.35176 
L 336.090799 -217.424199 
L 336.988975 -219.496638 
L 337.859513 -221.569077 
L 338.697082 -223.641516 
L 339.497045 -225.713955 
L 340.25556 -227.786394 
L 340.96965 -229.858833 
L 341.637258 -231.931272 
L 342.257276 -234.003711 
L 342.829546 -236.076149 
L 343.354831 -238.148588 
L 343.834772 -240.221027 
L 344.271806 -242.293466 
L 344.66908 -244.365905 
L 345.030329 -246.438344 
L 345.359759 -248.510783 
L 345.661908 -250.583222 
L 345.941504 -252.655661 
L 346.203328 -254.7281 
L 346.45208 -256.800539 
L 346.692249 -258.872977 
L 346.928 -260.945416 
L 347.163076 -263.017855 
L 347.40072 -265.090294 
L 347.64361 -267.162733 
L 347.893824 -269.235172 
L 348.152822 -271.307611 
L 348.421444 -273.38005 
L 348.699937 -275.452489 
L 348.987991 -277.524928 
L 349.284792 -279.597367 
L 349.58909 -281.669805 
L 349.89927 -283.742244 
L 350.213432 -285.814683 
L 350.529478 -287.887122 
L 350.845186 -289.959561 
L 351.158295 -292.032 
L 359.241705 -292.032 
L 359.241705 -292.032 
L 359.554814 -289.959561 
L 359.870522 -287.887122 
L 360.186568 -285.814683 
L 360.50073 -283.742244 
L 360.81091 -281.669805 
L 361.115208 -279.597367 
L 361.412009 -277.524928 
L 361.700063 -275.452489 
L 361.978556 -273.38005 
L 362.247178 -271.307611 
L 362.506176 -269.235172 
L 362.75639 -267.162733 
L 362.99928 -265.090294 
L 363.236924 -263.017855 
L 363.472 -260.945416 
L 363.707751 -258.872977 
L 363.94792 -256.800539 
L 364.196672 -254.7281 
L 364.458496 -252.655661 
L 364.738092 -250.583222 
L 365.040241 -248.510783 
L 365.369671 -246.438344 
L 365.73092 -244.365905 
L 366.128194 -242.293466 
L 366.565228 -240.221027 
L 367.045169 -238.148588 
L 367.570454 -236.076149 
L 368.142724 -234.003711 
L 368.762742 -231.931272 
L 369.43035 -229.858833 
L 370.14444 -227.786394 
L 370.902955 -225.713955 
L 371.702918 -223.641516 
L 372.540487 -221.569077 
L 373.411025 -219.496638 
L 374.309201 -217.424199 
L 375.229103 -215.35176 
L 376.164362 -213.279322 
L 377.10829 -211.206883 
L 378.054016 -209.134444 
L 378.994627 -207.062005 
L 379.923294 -204.989566 
L 380.833402 -202.917127 
L 381.718653 -200.844688 
L 382.573163 -198.772249 
L 383.391534 -196.69981 
L 384.168906 -194.627371 
L 384.900993 -192.554932 
L 385.5841 -190.482494 
L 386.215107 -188.410055 
L 386.79146 -186.337616 
L 387.311126 -184.265177 
L 387.772545 -182.192738 
L 388.174582 -180.120299 
L 388.516461 -178.04786 
L 388.797707 -175.975421 
L 389.018086 -173.902982 
L 389.177555 -171.830543 
L 389.276214 -169.758104 
L 389.314271 -167.685666 
L 389.292016 -165.613227 
L 389.209802 -163.540788 
L 389.068046 -161.468349 
L 388.867232 -159.39591 
L 388.607922 -157.323471 
L 388.290782 -155.251032 
L 387.916605 -153.178593 
L 387.486338 -151.106154 
L 387.001119 -149.033715 
L 386.462298 -146.961276 
L 385.871471 -144.888838 
L 385.230499 -142.816399 
L 384.541524 -140.74396 
L 383.80698 -138.671521 
L 383.029599 -136.599082 
L 382.212405 -134.526643 
L 381.358703 -132.454204 
L 380.472064 -130.381765 
L 379.556298 -128.309326 
L 378.615428 -126.236887 
L 377.653654 -124.164448 
L 376.675317 -122.09201 
L 375.684858 -120.019571 
L 374.686775 -117.947132 
L 373.685579 -115.874693 
L 372.68575 -113.802254 
L 371.691696 -111.729815 
L 370.707704 -109.657376 
L 369.737902 -107.584937 
L 368.786221 -105.512498 
L 367.856355 -103.440059 
L 366.951728 -101.367621 
L 366.075466 -99.295182 
L 365.230367 -97.222743 
L 364.418885 -95.150304 
L 363.64311 -93.077865 
L 362.904756 -91.005426 
L 362.205158 -88.932987 
L 361.545268 -86.860548 
z
" style="stroke: #999999"/>
    </defs>
    <g clip-path="url(#p479a7f450a)">
     <use xlink:href="#mf0e5afbbc4" x="0" y="345.6" style="fill: #ffffff; stroke: #999999"/>
    </g>
   </g>
   <g id="matplotlib.axis_1">
    <g id="xtick_1">
     <g id="line2d_1">
      <defs>
       <path id="m4e7ccc1098" d="M 0 0 
L 0 4.8 
" style="stroke: #000000"/>
      </defs>
      <g>
       <use xlink:href="#m4e7ccc1098" x="117.12" y="307.584" style="stroke: #000000"/>
      </g>
     </g>
     <g id="text_1">
      <text style="font: 8.8px 'DejaVu Sans', 'Bitstream Vera Sans', 'Computer Modern Sans Serif', 'Lucida Grande', 'Verdana', 'Geneva', 'Lucid', 'Arial', 'Helvetica', 'Avant Garde', sans-serif; text-anchor: middle" x="117.12" y="322.570625" transform="rotate(-0 117.12 322.570625)">[-50, -5)</text>
     </g>
    </g>
    <g id="xtick_2">
     <g id="line2d_2">
      <g>
       <use xlink:href="#m4e7ccc1098" x="236.16" y="307.584" style="stroke: #000000"/>
      </g>
     </g>
     <g id="text_2">
      <text style="font: 8.8px 'DejaVu Sans', 'Bitstream Vera Sans', 'Computer Modern Sans Serif', 'Lucida Grande', 'Verdana', 'Geneva', 'Lucid', 'Arial', 'Helvetica', 'Avant Garde', sans-serif; text-anchor: middle" x="236.16" y="322.570625" transform="rotate(-0 236.16 322.570625)">[-5, 5)</text>
     </g>
    </g>
    <g id="xtick_3">
     <g id="line2d_3">
      <g>
       <use xlink:href="#m4e7ccc1098" x="355.2" y="307.584" style="stroke: #000000"/>
      </g>
     </g>
     <g id="text_3">
      <text style="font: 8.8px 'DejaVu Sans', 'Bitstream Vera Sans', 'Computer Modern Sans Serif', 'Lucida Grande', 'Verdana', 'Geneva', 'Lucid', 'Arial', 'Helvetica', 'Avant Garde', sans-serif; text-anchor: middle" x="355.2" y="322.570625" transform="rotate(-0 355.2 322.570625)">[5, 50)</text>
     </g>
    </g>
    <g id="text_4">
     <text style="font: 9.6px 'DejaVu Sans', 'Bitstream Vera Sans', 'Computer Modern Sans Serif', 'Lucida Grande', 'Verdana', 'Geneva', 'Lucid', 'Arial', 'Helvetica', 'Avant Garde', sans-serif; text-anchor: middle" x="236.16" y="335.69525" transform="rotate(-0 236.16 335.69525)">mut_age_resid_bin</text>
    </g>
   </g>
   <g id="matplotlib.axis_2">
    <g id="ytick_1">
     <g id="line2d_4">
      <defs>
       <path id="m6325e212f8" d="M 0 0 
L -4.8 0 
" style="stroke: #000000"/>
      </defs>
      <g>
       <use xlink:href="#m6325e212f8" x="57.6" y="283.021507" style="stroke: #000000"/>
      </g>
     </g>
     <g id="text_5">
      <text style="font: 8.8px 'DejaVu Sans', 'Bitstream Vera Sans', 'Computer Modern Sans Serif', 'Lucida Grande', 'Verdana', 'Geneva', 'Lucid', 'Arial', 'Helvetica', 'Avant Garde', sans-serif; text-anchor: end" x="49.3" y="286.36482" transform="rotate(-0 49.3 286.36482)">−10</text>
     </g>
    </g>
    <g id="ytick_2">
     <g id="line2d_5">
      <g>
       <use xlink:href="#m6325e212f8" x="57.6" y="245.725116" style="stroke: #000000"/>
      </g>
     </g>
     <g id="text_6">
      <text style="font: 8.8px 'DejaVu Sans', 'Bitstream Vera Sans', 'Computer Modern Sans Serif', 'Lucida Grande', 'Verdana', 'Geneva', 'Lucid', 'Arial', 'Helvetica', 'Avant Garde', sans-serif; text-anchor: end" x="49.3" y="249.068429" transform="rotate(-0 49.3 249.068429)">−5</text>
     </g>
    </g>
    <g id="ytick_3">
     <g id="line2d_6">
      <g>
       <use xlink:href="#m6325e212f8" x="57.6" y="208.428726" style="stroke: #000000"/>
      </g>
     </g>
     <g id="text_7">
      <text style="font: 8.8px 'DejaVu Sans', 'Bitstream Vera Sans', 'Computer Modern Sans Serif', 'Lucida Grande', 'Verdana', 'Geneva', 'Lucid', 'Arial', 'Helvetica', 'Avant Garde', sans-serif; text-anchor: end" x="49.3" y="211.772038" transform="rotate(-0 49.3 211.772038)">0</text>
     </g>
    </g>
    <g id="ytick_4">
     <g id="line2d_7">
      <g>
       <use xlink:href="#m6325e212f8" x="57.6" y="171.132335" style="stroke: #000000"/>
      </g>
     </g>
     <g id="text_8">
      <text style="font: 8.8px 'DejaVu Sans', 'Bitstream Vera Sans', 'Computer Modern Sans Serif', 'Lucida Grande', 'Verdana', 'Geneva', 'Lucid', 'Arial', 'Helvetica', 'Avant Garde', sans-serif; text-anchor: end" x="49.3" y="174.475648" transform="rotate(-0 49.3 174.475648)">5</text>
     </g>
    </g>
    <g id="ytick_5">
     <g id="line2d_8">
      <g>
       <use xlink:href="#m6325e212f8" x="57.6" y="133.835944" style="stroke: #000000"/>
      </g>
     </g>
     <g id="text_9">
      <text style="font: 8.8px 'DejaVu Sans', 'Bitstream Vera Sans', 'Computer Modern Sans Serif', 'Lucida Grande', 'Verdana', 'Geneva', 'Lucid', 'Arial', 'Helvetica', 'Avant Garde', sans-serif; text-anchor: end" x="49.3" y="137.179257" transform="rotate(-0 49.3 137.179257)">10</text>
     </g>
    </g>
    <g id="ytick_6">
     <g id="line2d_9">
      <g>
       <use xlink:href="#m6325e212f8" x="57.6" y="96.539554" style="stroke: #000000"/>
      </g>
     </g>
     <g id="text_10">
      <text style="font: 8.8px 'DejaVu Sans', 'Bitstream Vera Sans', 'Computer Modern Sans Serif', 'Lucida Grande', 'Verdana', 'Geneva', 'Lucid', 'Arial', 'Helvetica', 'Avant Garde', sans-serif; text-anchor: end" x="49.3" y="99.882866" transform="rotate(-0 49.3 99.882866)">15</text>
     </g>
    </g>
    <g id="ytick_7">
     <g id="line2d_10">
      <g>
       <use xlink:href="#m6325e212f8" x="57.6" y="59.243163" style="stroke: #000000"/>
      </g>
     </g>
     <g id="text_11">
      <text style="font: 8.8px 'DejaVu Sans', 'Bitstream Vera Sans', 'Computer Modern Sans Serif', 'Lucida Grande', 'Verdana', 'Geneva', 'Lucid', 'Arial', 'Helvetica', 'Avant Garde', sans-serif; text-anchor: end" x="49.3" y="62.586476" transform="rotate(-0 49.3 62.586476)">20</text>
     </g>
    </g>
    <g id="text_12">
     <text style="font: 9.6px 'DejaVu Sans', 'Bitstream Vera Sans', 'Computer Modern Sans Serif', 'Lucida Grande', 'Verdana', 'Geneva', 'Lucid', 'Arial', 'Helvetica', 'Avant Garde', sans-serif; text-anchor: middle" x="24.464375" y="174.528" transform="rotate(-90 24.464375 174.528)">methyl_age_resid</text>
    </g>
   </g>
   <g id="line2d_11">
    <path d="M 117.12 273.339181 
L 117.12 163.678793 
" clip-path="url(#p479a7f450a)" style="fill: none; stroke: #999999; stroke-width: 1.5; stroke-linecap: square"/>
   </g>
   <g id="line2d_12">
    <path d="M 117.12 252.462363 
L 117.12 208.335433 
" clip-path="url(#p479a7f450a)" style="fill: none; stroke: #999999; stroke-width: 4.5; stroke-linecap: square"/>
   </g>
   <g id="line2d_13">
    <path d="M 117.12 213.926293 
" clip-path="url(#p479a7f450a)" style="fill: none; stroke: #999999; stroke-width: 1.2; stroke-linecap: square"/>
    <defs>
     <path id="mdb9650934f" d="M 1.875 0 
L -1.875 -0 
" style="stroke: #ffffff; stroke-width: 0.9"/>
    </defs>
    <g clip-path="url(#p479a7f450a)">
     <use xlink:href="#mdb9650934f" x="117.12" y="213.926293" style="fill: #ffffff; stroke: #ffffff; stroke-width: 0.9"/>
    </g>
   </g>
   <g id="line2d_14">
    <path d="M 236.16 261.710018 
L 236.16 137.087145 
" clip-path="url(#p479a7f450a)" style="fill: none; stroke: #999999; stroke-width: 1.5; stroke-linecap: square"/>
   </g>
   <g id="line2d_15">
    <path d="M 236.16 243.637697 
L 236.16 199.850955 
" clip-path="url(#p479a7f450a)" style="fill: none; stroke: #999999; stroke-width: 4.5; stroke-linecap: square"/>
   </g>
   <g id="line2d_16">
    <path d="M 236.16 235.416958 
" clip-path="url(#p479a7f450a)" style="fill: none; stroke: #999999; stroke-width: 1.2; stroke-linecap: square"/>
    <g clip-path="url(#p479a7f450a)">
     <use xlink:href="#mdb9650934f" x="236.16" y="235.416958" style="fill: #ffffff; stroke: #ffffff; stroke-width: 0.9"/>
    </g>
   </g>
   <g id="line2d_17">
    <path d="M 355.2 230.352955 
L 355.2 137.841169 
" clip-path="url(#p479a7f450a)" style="fill: none; stroke: #999999; stroke-width: 1.5; stroke-linecap: square"/>
   </g>
   <g id="line2d_18">
    <path d="M 355.2 197.147104 
L 355.2 153.61766 
" clip-path="url(#p479a7f450a)" style="fill: none; stroke: #999999; stroke-width: 4.5; stroke-linecap: square"/>
   </g>
   <g id="line2d_19">
    <path d="M 355.2 175.625022 
" clip-path="url(#p479a7f450a)" style="fill: none; stroke: #999999; stroke-width: 1.2; stroke-linecap: square"/>
    <g clip-path="url(#p479a7f450a)">
     <use xlink:href="#mdb9650934f" x="355.2" y="175.625022" style="fill: #ffffff; stroke: #ffffff; stroke-width: 0.9"/>
    </g>
   </g>
   <g id="line2d_20">
    <path d="M 57.6 208.428726 
L 414.72 208.428726 
" clip-path="url(#p479a7f450a)" style="fill: none; stroke-dasharray: 4.44,1.92; stroke-dashoffset: 0; stroke: #000000; stroke-width: 1.2"/>
   </g>
   <g id="patch_3">
    <path d="M 57.6 307.584 
L 57.6 41.472 
" style="fill: none; stroke: #000000; stroke-linejoin: miter; stroke-linecap: square"/>
   </g>
   <g id="patch_4">
    <path d="M 57.6 307.584 
L 414.72 307.584 
" style="fill: none; stroke: #000000; stroke-linejoin: miter; stroke-linecap: square"/>
   </g>
   <g id="PathCollection_1">
    <defs>
     <path id="C0_0_e2d3e11f12" d="M 0 2.5 
C 0.663008 2.5 1.29895 2.236584 1.767767 1.767767 
C 2.236584 1.29895 2.5 0.663008 2.5 -0 
C 2.5 -0.663008 2.236584 -1.29895 1.767767 -1.767767 
C 1.29895 -2.236584 0.663008 -2.5 0 -2.5 
C -0.663008 -2.5 -1.29895 -2.236584 -1.767767 -1.767767 
C -2.236584 -1.29895 -2.5 -0.663008 -2.5 0 
C -2.5 0.663008 -2.236584 1.29895 -1.767767 1.767767 
C -1.29895 2.236584 -0.663008 2.5 0 2.5 
z
"/>
    </defs>
    <g clip-path="url(#p479a7f450a)">
     <use xlink:href="#C0_0_e2d3e11f12" x="111.7817" y="195.782213" style="fill: #fcbba1"/>
    </g>
    <g clip-path="url(#p479a7f450a)">
     <use xlink:href="#C0_0_e2d3e11f12" x="117.118426" y="218.019676" style="fill: #fcbba1"/>
    </g>
    <g clip-path="url(#p479a7f450a)">
     <use xlink:href="#C0_0_e2d3e11f12" x="120.378799" y="209.83291" style="fill: #fcbba1"/>
    </g>
    <g clip-path="url(#p479a7f450a)">
     <use xlink:href="#C0_0_e2d3e11f12" x="126.042577" y="207.945065" style="fill: #fcbba1"/>
    </g>
    <g clip-path="url(#p479a7f450a)">
     <use xlink:href="#C0_0_e2d3e11f12" x="112.150801" y="273.339181" style="fill: #fcbba1"/>
    </g>
    <g clip-path="url(#p479a7f450a)">
     <use xlink:href="#C0_0_e2d3e11f12" x="120.66516" y="262.952887" style="fill: #fcbba1"/>
    </g>
    <g clip-path="url(#p479a7f450a)">
     <use xlink:href="#C0_0_e2d3e11f12" x="115.803125" y="268.709399" style="fill: #fcbba1"/>
    </g>
    <g clip-path="url(#p479a7f450a)">
     <use xlink:href="#C0_0_e2d3e11f12" x="116.00963" y="163.678793" style="fill: #fcbba1"/>
    </g>
    <g clip-path="url(#p479a7f450a)">
     <use xlink:href="#C0_0_e2d3e11f12" x="109.60414" y="209.506536" style="fill: #fcbba1"/>
    </g>
    <g clip-path="url(#p479a7f450a)">
     <use xlink:href="#C0_0_e2d3e11f12" x="117.391382" y="220.990793" style="fill: #fcbba1"/>
    </g>
   </g>
   <g id="PathCollection_2">
    <defs>
     <path id="C1_0_319c2ab90b" d="M 0 2.5 
C 0.663008 2.5 1.29895 2.236584 1.767767 1.767767 
C 2.236584 1.29895 2.5 0.663008 2.5 -0 
C 2.5 -0.663008 2.236584 -1.29895 1.767767 -1.767767 
C 1.29895 -2.236584 0.663008 -2.5 0 -2.5 
C -0.663008 -2.5 -1.29895 -2.236584 -1.767767 -1.767767 
C -2.236584 -1.29895 -2.5 -0.663008 -2.5 0 
C -2.5 0.663008 -2.236584 1.29895 -1.767767 1.767767 
C -1.29895 2.236584 -0.663008 2.5 0 2.5 
z
"/>
    </defs>
    <g clip-path="url(#p479a7f450a)">
     <use xlink:href="#C1_0_319c2ab90b" x="241.475119" y="247.883633" style="fill: #fb694a"/>
    </g>
    <g clip-path="url(#p479a7f450a)">
     <use xlink:href="#C1_0_319c2ab90b" x="239.291409" y="238.931923" style="fill: #fb694a"/>
    </g>
    <g clip-path="url(#p479a7f450a)">
     <use xlink:href="#C1_0_319c2ab90b" x="226.911557" y="201.578521" style="fill: #fb694a"/>
    </g>
    <g clip-path="url(#p479a7f450a)">
     <use xlink:href="#C1_0_319c2ab90b" x="242.32231" y="121.459477" style="fill: #fb694a"/>
    </g>
    <g clip-path="url(#p479a7f450a)">
     <use xlink:href="#C1_0_319c2ab90b" x="240.918047" y="236.408071" style="fill: #fb694a"/>
    </g>
    <g clip-path="url(#p479a7f450a)">
     <use xlink:href="#C1_0_319c2ab90b" x="233.680282" y="188.657333" style="fill: #fb694a"/>
    </g>
    <g clip-path="url(#p479a7f450a)">
     <use xlink:href="#C1_0_319c2ab90b" x="233.489305" y="254.715328" style="fill: #fb694a"/>
    </g>
    <g clip-path="url(#p479a7f450a)">
     <use xlink:href="#C1_0_319c2ab90b" x="243.904366" y="199.850955" style="fill: #fb694a"/>
    </g>
    <g clip-path="url(#p479a7f450a)">
     <use xlink:href="#C1_0_319c2ab90b" x="247.672068" y="178.885532" style="fill: #fb694a"/>
    </g>
    <g clip-path="url(#p479a7f450a)">
     <use xlink:href="#C1_0_319c2ab90b" x="241.032794" y="137.087145" style="fill: #fb694a"/>
    </g>
    <g clip-path="url(#p479a7f450a)">
     <use xlink:href="#C1_0_319c2ab90b" x="226.553847" y="197.419862" style="fill: #fb694a"/>
    </g>
    <g clip-path="url(#p479a7f450a)">
     <use xlink:href="#C1_0_319c2ab90b" x="237.419642" y="235.416958" style="fill: #fb694a"/>
    </g>
    <g clip-path="url(#p479a7f450a)">
     <use xlink:href="#C1_0_319c2ab90b" x="238.247272" y="243.637697" style="fill: #fb694a"/>
    </g>
    <g clip-path="url(#p479a7f450a)">
     <use xlink:href="#C1_0_319c2ab90b" x="238.839135" y="251.185477" style="fill: #fb694a"/>
    </g>
    <g clip-path="url(#p479a7f450a)">
     <use xlink:href="#C1_0_319c2ab90b" x="238.915491" y="225.036319" style="fill: #fb694a"/>
    </g>
    <g clip-path="url(#p479a7f450a)">
     <use xlink:href="#C1_0_319c2ab90b" x="241.420299" y="216.464222" style="fill: #fb694a"/>
    </g>
    <g clip-path="url(#p479a7f450a)">
     <use xlink:href="#C1_0_319c2ab90b" x="226.879604" y="242.442524" style="fill: #fb694a"/>
    </g>
    <g clip-path="url(#p479a7f450a)">
     <use xlink:href="#C1_0_319c2ab90b" x="228.982849" y="238.447006" style="fill: #fb694a"/>
    </g>
    <g clip-path="url(#p479a7f450a)">
     <use xlink:href="#C1_0_319c2ab90b" x="226.061538" y="245.471137" style="fill: #fb694a"/>
    </g>
    <g clip-path="url(#p479a7f450a)">
     <use xlink:href="#C1_0_319c2ab90b" x="247.883596" y="215.164538" style="fill: #fb694a"/>
    </g>
    <g clip-path="url(#p479a7f450a)">
     <use xlink:href="#C1_0_319c2ab90b" x="239.759451" y="261.710018" style="fill: #fb694a"/>
    </g>
   </g>
   <g id="PathCollection_3">
    <defs>
     <path id="C2_0_00e3953aac" d="M 0 2.5 
C 0.663008 2.5 1.29895 2.236584 1.767767 1.767767 
C 2.236584 1.29895 2.5 0.663008 2.5 -0 
C 2.5 -0.663008 2.236584 -1.29895 1.767767 -1.767767 
C 1.29895 -2.236584 0.663008 -2.5 0 -2.5 
C -0.663008 -2.5 -1.29895 -2.236584 -1.767767 -1.767767 
C -2.236584 -1.29895 -2.5 -0.663008 -2.5 0 
C -2.5 0.663008 -2.236584 1.29895 -1.767767 1.767767 
C -1.29895 2.236584 -0.663008 2.5 0 2.5 
z
"/>
    </defs>
    <g clip-path="url(#p479a7f450a)">
     <use xlink:href="#C2_0_00e3953aac" x="357.242108" y="208.997082" style="fill: #ca181d"/>
    </g>
    <g clip-path="url(#p479a7f450a)">
     <use xlink:href="#C2_0_00e3953aac" x="366.94089" y="197.147104" style="fill: #ca181d"/>
    </g>
    <g clip-path="url(#p479a7f450a)">
     <use xlink:href="#C2_0_00e3953aac" x="352.014622" y="187.834299" style="fill: #ca181d"/>
    </g>
    <g clip-path="url(#p479a7f450a)">
     <use xlink:href="#C2_0_00e3953aac" x="358.18415" y="153.61766" style="fill: #ca181d"/>
    </g>
    <g clip-path="url(#p479a7f450a)">
     <use xlink:href="#C2_0_00e3953aac" x="357.436013" y="155.168115" style="fill: #ca181d"/>
    </g>
    <g clip-path="url(#p479a7f450a)">
     <use xlink:href="#C2_0_00e3953aac" x="365.634193" y="175.625022" style="fill: #ca181d"/>
    </g>
    <g clip-path="url(#p479a7f450a)">
     <use xlink:href="#C2_0_00e3953aac" x="351.148603" y="137.841169" style="fill: #ca181d"/>
    </g>
    <g clip-path="url(#p479a7f450a)">
     <use xlink:href="#C2_0_00e3953aac" x="365.675242" y="81.954497" style="fill: #ca181d"/>
    </g>
    <g clip-path="url(#p479a7f450a)">
     <use xlink:href="#C2_0_00e3953aac" x="357.031452" y="230.352955" style="fill: #ca181d"/>
    </g>
   </g>
   <g id="text_13">
    <text style="font: 9.6px 'DejaVu Sans', 'Bitstream Vera Sans', 'Computer Modern Sans Serif', 'Lucida Grande', 'Verdana', 'Geneva', 'Lucid', 'Arial', 'Helvetica', 'Avant Garde', sans-serif" transform="translate(75.456 70.6389)">r = 0.52</text>
    <text style="font: 9.6px 'DejaVu Sans', 'Bitstream Vera Sans', 'Computer Modern Sans Serif', 'Lucida Grande', 'Verdana', 'Geneva', 'Lucid', 'Arial', 'Helvetica', 'Avant Garde', sans-serif" transform="translate(75.456 81.3888)">p = 5.32e-04</text>
   </g>
  </g>
 </g>
 <defs>
  <clipPath id="p479a7f450a">
   <rect x="57.6" y="41.472" width="357.12" height="266.112"/>
  </clipPath>
 </defs>
</svg>
