<?xml version="1.0" encoding="utf-8" standalone="no"?>
<!DOCTYPE svg PUBLIC "-//W3C//DTD SVG 1.1//EN"
  "http://www.w3.org/Graphics/SVG/1.1/DTD/svg11.dtd">
<svg xmlns:xlink="http://www.w3.org/1999/xlink" width="576pt" height="360pt" viewBox="0 0 576 360" xmlns="http://www.w3.org/2000/svg" version="1.1">
 <metadata>
  <rdf:RDF xmlns:dc="http://purl.org/dc/elements/1.1/" xmlns:cc="http://creativecommons.org/ns#" xmlns:rdf="http://www.w3.org/1999/02/22-rdf-syntax-ns#">
   <cc:Work>
    <dc:type rdf:resource="http://purl.org/dc/dcmitype/StillImage"/>
    <dc:date>2024-10-17T13:29:53.492002</dc:date>
    <dc:format>image/svg+xml</dc:format>
    <dc:creator>
     <cc:Agent>
      <dc:title>Matplotlib v3.7.1, https://matplotlib.org/</dc:title>
     </cc:Agent>
    </dc:creator>
   </cc:Work>
  </rdf:RDF>
 </metadata>
 <defs>
  <style type="text/css">*{stroke-linejoin: round; stroke-linecap: butt}</style>
 </defs>
 <g id="figure_1">
  <g id="patch_1">
   <path d="M 0 360 
L 576 360 
L 576 0 
L 0 0 
z
" style="fill: #ffffff"/>
  </g>
  <g id="axes_1">
   <g id="patch_2">
    <path d="M 72 320.4 
L 518.4 320.4 
L 518.4 43.2 
L 72 43.2 
z
" style="fill: #ffffff"/>
   </g>
   <g id="PolyCollection_1">
    <defs>
     <path id="mcdcc1ef591" d="M 123.746026 -52.2 
L 109.533974 -52.2 
L 108.913354 -54.745455 
L 108.439875 -57.290909 
L 108.136817 -59.836364 
L 108.013176 -62.381818 
L 108.062824 -64.927273 
L 108.265685 -67.472727 
L 108.590668 -70.018182 
L 108.999792 -72.563636 
L 109.452781 -75.109091 
L 109.911424 -77.654545 
L 110.343093 -80.2 
L 110.723092 -82.745455 
L 111.035697 -85.290909 
L 111.273998 -87.836364 
L 111.438791 -90.381818 
L 111.536825 -92.927273 
L 111.578741 -95.472727 
L 111.576989 -98.018182 
L 111.543961 -100.563636 
L 111.490494 -103.109091 
L 111.424873 -105.654545 
L 111.352336 -108.2 
L 111.275103 -110.745455 
L 111.192815 -113.290909 
L 111.103294 -115.836364 
L 111.003458 -118.381818 
L 110.890238 -120.927273 
L 110.761344 -123.472727 
L 110.615768 -126.018182 
L 110.453962 -128.563636 
L 110.277698 -131.109091 
L 110.089647 -133.654545 
L 109.892814 -136.2 
L 109.68993 -138.745455 
L 109.482936 -141.290909 
L 109.272649 -143.836364 
L 109.058647 -146.381818 
L 108.83938 -148.927273 
L 108.612434 -151.472727 
L 108.374898 -154.018182 
L 108.123743 -156.563636 
L 107.856168 -159.109091 
L 107.569872 -161.654545 
L 107.263243 -164.2 
L 106.935476 -166.745455 
L 106.586599 -169.290909 
L 106.217427 -171.836364 
L 105.829396 -174.381818 
L 105.424305 -176.927273 
L 105.003937 -179.472727 
L 104.569625 -182.018182 
L 104.121824 -184.563636 
L 103.659778 -187.109091 
L 103.181386 -189.654545 
L 102.68334 -192.2 
L 102.161541 -194.745455 
L 101.611778 -197.290909 
L 101.030547 -199.836364 
L 100.415885 -202.381818 
L 99.768047 -204.927273 
L 99.089882 -207.472727 
L 98.386818 -210.018182 
L 97.666411 -212.563636 
L 96.937533 -215.109091 
L 96.209292 -217.654545 
L 95.489889 -220.2 
L 94.785588 -222.745455 
L 94.099983 -225.290909 
L 93.433674 -227.836364 
L 92.784398 -230.381818 
L 92.147566 -232.927273 
L 91.517064 -235.472727 
L 90.886173 -238.018182 
L 90.248409 -240.563636 
L 89.598166 -243.109091 
L 88.931097 -245.654545 
L 88.244268 -248.2 
L 87.536201 -250.745455 
L 86.806966 -253.290909 
L 86.058519 -255.836364 
L 85.295386 -258.381818 
L 84.525732 -260.927273 
L 83.7627 -263.472727 
L 83.025782 -266.018182 
L 82.341889 -268.563636 
L 81.745752 -271.109091 
L 81.279335 -273.654545 
L 80.990085 -276.2 
L 80.928 -278.745455 
L 81.141706 -281.290909 
L 81.673894 -283.836364 
L 82.556601 -286.381818 
L 83.80686 -288.927273 
L 85.423275 -291.472727 
L 87.383982 -294.018182 
L 89.646409 -296.563636 
L 92.149021 -299.109091 
L 94.815076 -301.654545 
L 97.558104 -304.2 
L 135.721896 -304.2 
L 135.721896 -304.2 
L 138.464924 -301.654545 
L 141.130979 -299.109091 
L 143.633591 -296.563636 
L 145.896018 -294.018182 
L 147.856725 -291.472727 
L 149.47314 -288.927273 
L 150.723399 -286.381818 
L 151.606106 -283.836364 
L 152.138294 -281.290909 
L 152.352 -278.745455 
L 152.289915 -276.2 
L 152.000665 -273.654545 
L 151.534248 -271.109091 
L 150.938111 -268.563636 
L 150.254218 -266.018182 
L 149.5173 -263.472727 
L 148.754268 -260.927273 
L 147.984614 -258.381818 
L 147.221481 -255.836364 
L 146.473034 -253.290909 
L 145.743799 -250.745455 
L 145.035732 -248.2 
L 144.348903 -245.654545 
L 143.681834 -243.109091 
L 143.031591 -240.563636 
L 142.393827 -238.018182 
L 141.762936 -235.472727 
L 141.132434 -232.927273 
L 140.495602 -230.381818 
L 139.846326 -227.836364 
L 139.180017 -225.290909 
L 138.494412 -222.745455 
L 137.790111 -220.2 
L 137.070708 -217.654545 
L 136.342467 -215.109091 
L 135.613589 -212.563636 
L 134.893182 -210.018182 
L 134.190118 -207.472727 
L 133.511953 -204.927273 
L 132.864115 -202.381818 
L 132.249453 -199.836364 
L 131.668222 -197.290909 
L 131.118459 -194.745455 
L 130.59666 -192.2 
L 130.098614 -189.654545 
L 129.620222 -187.109091 
L 129.158176 -184.563636 
L 128.710375 -182.018182 
L 128.276063 -179.472727 
L 127.855695 -176.927273 
L 127.450604 -174.381818 
L 127.062573 -171.836364 
L 126.693401 -169.290909 
L 126.344524 -166.745455 
L 126.016757 -164.2 
L 125.710128 -161.654545 
L 125.423832 -159.109091 
L 125.156257 -156.563636 
L 124.905102 -154.018182 
L 124.667566 -151.472727 
L 124.44062 -148.927273 
L 124.221353 -146.381818 
L 124.007351 -143.836364 
L 123.797064 -141.290909 
L 123.59007 -138.745455 
L 123.387186 -136.2 
L 123.190353 -133.654545 
L 123.002302 -131.109091 
L 122.826038 -128.563636 
L 122.664232 -126.018182 
L 122.518656 -123.472727 
L 122.389762 -120.927273 
L 122.276542 -118.381818 
L 122.176706 -115.836364 
L 122.087185 -113.290909 
L 122.004897 -110.745455 
L 121.927664 -108.2 
L 121.855127 -105.654545 
L 121.789506 -103.109091 
L 121.736039 -100.563636 
L 121.703011 -98.018182 
L 121.701259 -95.472727 
L 121.743175 -92.927273 
L 121.841209 -90.381818 
L 122.006002 -87.836364 
L 122.244303 -85.290909 
L 122.556908 -82.745455 
L 122.936907 -80.2 
L 123.368576 -77.654545 
L 123.827219 -75.109091 
L 124.280208 -72.563636 
L 124.689332 -70.018182 
L 125.014315 -67.472727 
L 125.217176 -64.927273 
L 125.266824 -62.381818 
L 125.143183 -59.836364 
L 124.840125 -57.290909 
L 124.366646 -54.745455 
L 123.746026 -52.2 
z
" style="stroke: #3a3a3a"/>
    </defs>
    <g clip-path="url(#p9af2877818)">
     <use xlink:href="#mcdcc1ef591" x="0" y="360" style="fill: #f6d7ca; stroke: #3a3a3a"/>
    </g>
   </g>
   <g id="PolyCollection_2">
    <defs>
     <path id="m66c845eefd" d="M 211.721322 -52.277942 
L 200.118678 -52.277942 
L 199.511568 -54.81976 
L 199.040957 -57.361578 
L 198.7308 -59.903397 
L 198.588512 -62.445215 
L 198.604855 -64.987033 
L 198.756502 -67.528852 
L 199.010503 -70.07067 
L 199.329546 -72.612488 
L 199.676897 -75.154307 
L 200.020233 -77.696125 
L 200.333963 -80.237943 
L 200.600094 -82.779762 
L 200.807948 -85.32158 
L 200.953148 -87.863398 
L 201.036272 -90.405217 
L 201.061444 -92.947035 
L 201.035019 -95.488853 
L 200.964442 -98.030672 
L 200.857288 -100.57249 
L 200.720495 -103.114308 
L 200.559787 -105.656127 
L 200.379288 -108.197945 
L 200.181313 -110.739763 
L 199.966329 -113.281582 
L 199.733069 -115.8234 
L 199.478777 -118.365218 
L 199.199573 -120.907037 
L 198.890928 -123.448855 
L 198.548207 -125.990673 
L 198.167293 -128.532492 
L 197.745222 -131.07431 
L 197.280799 -133.616128 
L 196.775081 -136.157947 
L 196.231638 -138.699765 
L 195.65645 -141.241583 
L 195.05738 -143.783402 
L 194.443221 -146.32522 
L 193.822474 -148.867038 
L 193.202098 -151.408857 
L 192.586561 -153.950675 
L 191.977471 -156.492493 
L 191.37394 -159.034311 
L 190.773607 -161.57613 
L 190.174066 -164.117948 
L 189.574299 -166.659766 
L 188.975726 -169.201585 
L 188.3826 -171.743403 
L 187.801674 -174.285221 
L 187.241293 -176.82704 
L 186.710159 -179.368858 
L 186.216101 -181.910676 
L 185.76508 -184.452495 
L 185.360574 -186.994313 
L 185.003388 -189.536131 
L 184.691854 -192.07795 
L 184.422376 -194.619768 
L 184.190253 -197.161586 
L 183.990686 -199.703405 
L 183.819814 -202.245223 
L 183.675592 -204.787041 
L 183.558281 -207.32886 
L 183.470381 -209.870678 
L 183.415964 -212.412496 
L 183.399527 -214.954315 
L 183.424585 -217.496133 
L 183.492348 -220.037951 
L 183.600725 -222.57977 
L 183.743817 -225.121588 
L 183.911925 -227.663406 
L 184.091926 -230.205225 
L 184.26789 -232.747043 
L 184.421749 -235.288861 
L 184.533972 -237.83068 
L 184.58423 -240.372498 
L 184.552137 -242.914316 
L 184.41814 -245.456135 
L 184.164635 -247.997953 
L 183.777295 -250.539771 
L 183.246586 -253.08159 
L 182.569364 -255.623408 
L 181.75048 -258.165226 
L 180.804286 -260.707045 
L 179.755956 -263.248863 
L 178.642471 -265.790681 
L 177.513035 -268.3325 
L 176.428596 -270.874318 
L 175.460092 -273.416136 
L 174.685087 -275.957955 
L 174.182718 -278.499773 
L 174.027154 -281.041591 
L 174.280221 -283.58341 
L 174.984111 -286.125228 
L 176.155283 -288.667046 
L 177.780578 -291.208865 
L 179.816265 -293.750683 
L 182.190385 -296.292501 
L 184.80823 -298.83432 
L 187.560416 -301.376138 
L 190.332609 -303.917956 
L 221.507391 -303.917956 
L 221.507391 -303.917956 
L 224.279584 -301.376138 
L 227.03177 -298.83432 
L 229.649615 -296.292501 
L 232.023735 -293.750683 
L 234.059422 -291.208865 
L 235.684717 -288.667046 
L 236.855889 -286.125228 
L 237.559779 -283.58341 
L 237.812846 -281.041591 
L 237.657282 -278.499773 
L 237.154913 -275.957955 
L 236.379908 -273.416136 
L 235.411404 -270.874318 
L 234.326965 -268.3325 
L 233.197529 -265.790681 
L 232.084044 -263.248863 
L 231.035714 -260.707045 
L 230.08952 -258.165226 
L 229.270636 -255.623408 
L 228.593414 -253.08159 
L 228.062705 -250.539771 
L 227.675365 -247.997953 
L 227.42186 -245.456135 
L 227.287863 -242.914316 
L 227.25577 -240.372498 
L 227.306028 -237.83068 
L 227.418251 -235.288861 
L 227.57211 -232.747043 
L 227.748074 -230.205225 
L 227.928075 -227.663406 
L 228.096183 -225.121588 
L 228.239275 -222.57977 
L 228.347652 -220.037951 
L 228.415415 -217.496133 
L 228.440473 -214.954315 
L 228.424036 -212.412496 
L 228.369619 -209.870678 
L 228.281719 -207.32886 
L 228.164408 -204.787041 
L 228.020186 -202.245223 
L 227.849314 -199.703405 
L 227.649747 -197.161586 
L 227.417624 -194.619768 
L 227.148146 -192.07795 
L 226.836612 -189.536131 
L 226.479426 -186.994313 
L 226.07492 -184.452495 
L 225.623899 -181.910676 
L 225.129841 -179.368858 
L 224.598707 -176.82704 
L 224.038326 -174.285221 
L 223.4574 -171.743403 
L 222.864274 -169.201585 
L 222.265701 -166.659766 
L 221.665934 -164.117948 
L 221.066393 -161.57613 
L 220.46606 -159.034311 
L 219.862529 -156.492493 
L 219.253439 -153.950675 
L 218.637902 -151.408857 
L 218.017526 -148.867038 
L 217.396779 -146.32522 
L 216.78262 -143.783402 
L 216.18355 -141.241583 
L 215.608362 -138.699765 
L 215.064919 -136.157947 
L 214.559201 -133.616128 
L 214.094778 -131.07431 
L 213.672707 -128.532492 
L 213.291793 -125.990673 
L 212.949072 -123.448855 
L 212.640427 -120.907037 
L 212.361223 -118.365218 
L 212.106931 -115.8234 
L 211.873671 -113.281582 
L 211.658687 -110.739763 
L 211.460712 -108.197945 
L 211.280213 -105.656127 
L 211.119505 -103.114308 
L 210.982712 -100.57249 
L 210.875558 -98.030672 
L 210.804981 -95.488853 
L 210.778556 -92.947035 
L 210.803728 -90.405217 
L 210.886852 -87.863398 
L 211.032052 -85.32158 
L 211.239906 -82.779762 
L 211.506037 -80.237943 
L 211.819767 -77.696125 
L 212.163103 -75.154307 
L 212.510454 -72.612488 
L 212.829497 -70.07067 
L 213.083498 -67.528852 
L 213.235145 -64.987033 
L 213.251488 -62.445215 
L 213.1092 -59.903397 
L 212.799043 -57.361578 
L 212.328432 -54.81976 
L 211.721322 -52.277942 
z
" style="stroke: #3a3a3a"/>
    </defs>
    <g clip-path="url(#p9af2877818)">
     <use xlink:href="#m66c845eefd" x="0" y="360" style="fill: #eda791; stroke: #3a3a3a"/>
    </g>
   </g>
   <g id="PolyCollection_3">
    <defs>
     <path id="md98514496b" d="M 301.863277 -53.311323 
L 288.536723 -53.311323 
L 288.000447 -55.837156 
L 287.579946 -58.362988 
L 287.293544 -60.88882 
L 287.150201 -63.414652 
L 287.14873 -65.940484 
L 287.278151 -68.466317 
L 287.519087 -70.992149 
L 287.845966 -73.517981 
L 288.229667 -76.043813 
L 288.640239 -78.569645 
L 289.049364 -81.095478 
L 289.43231 -83.62131 
L 289.769229 -86.147142 
L 290.045791 -88.672974 
L 290.253187 -91.198806 
L 290.38764 -93.724638 
L 290.449552 -96.250471 
L 290.442442 -98.776303 
L 290.371815 -101.302135 
L 290.244076 -103.827967 
L 290.06558 -106.353799 
L 289.841902 -108.879632 
L 289.577353 -111.405464 
L 289.274766 -113.931296 
L 288.935533 -116.457128 
L 288.559847 -118.98296 
L 288.147091 -121.508793 
L 287.69629 -124.034625 
L 287.206576 -126.560457 
L 286.677575 -129.086289 
L 286.109709 -131.612121 
L 285.50436 -134.137954 
L 284.863933 -136.663786 
L 284.191806 -139.189618 
L 283.492231 -141.71545 
L 282.770195 -144.241282 
L 282.031297 -146.767114 
L 281.281655 -149.292947 
L 280.527874 -151.818779 
L 279.777056 -154.344611 
L 279.036841 -156.870443 
L 278.31544 -159.396275 
L 277.62161 -161.922108 
L 276.964513 -164.44794 
L 276.353442 -166.973772 
L 275.797383 -169.499604 
L 275.304447 -172.025436 
L 274.881227 -174.551269 
L 274.532155 -177.077101 
L 274.258971 -179.602933 
L 274.060377 -182.128765 
L 273.931962 -184.654597 
L 273.866418 -187.18043 
L 273.854041 -189.706262 
L 273.883472 -192.232094 
L 273.942595 -194.757926 
L 274.019495 -197.283758 
L 274.103359 -199.80959 
L 274.185249 -202.335423 
L 274.258641 -204.861255 
L 274.319708 -207.387087 
L 274.367298 -209.912919 
L 274.402642 -212.438751 
L 274.428801 -214.964584 
L 274.449926 -217.490416 
L 274.470391 -220.016248 
L 274.493886 -222.54208 
L 274.522549 -225.067912 
L 274.556226 -227.593745 
L 274.591932 -230.119577 
L 274.623567 -232.645409 
L 274.641941 -235.171241 
L 274.63512 -237.697073 
L 274.58908 -240.222905 
L 274.488655 -242.748738 
L 274.318709 -245.27457 
L 274.065493 -247.800402 
L 273.718094 -250.326234 
L 273.269912 -252.852066 
L 272.72007 -255.377899 
L 272.07467 -257.903731 
L 271.347776 -260.429563 
L 270.562001 -262.955395 
L 269.748568 -265.481227 
L 268.946715 -268.00706 
L 268.202361 -270.532892 
L 267.565993 -273.058724 
L 267.089823 -275.584556 
L 266.824365 -278.110388 
L 266.814667 -280.636221 
L 267.096538 -283.162053 
L 267.693149 -285.687885 
L 268.612394 -288.213717 
L 269.845362 -290.739549 
L 271.366165 -293.265381 
L 273.133221 -295.791214 
L 275.091945 -298.317046 
L 277.178583 -300.842878 
L 279.324842 -303.36871 
L 311.075158 -303.36871 
L 311.075158 -303.36871 
L 313.221417 -300.842878 
L 315.308055 -298.317046 
L 317.266779 -295.791214 
L 319.033835 -293.265381 
L 320.554638 -290.739549 
L 321.787606 -288.213717 
L 322.706851 -285.687885 
L 323.303462 -283.162053 
L 323.585333 -280.636221 
L 323.575635 -278.110388 
L 323.310177 -275.584556 
L 322.834007 -273.058724 
L 322.197639 -270.532892 
L 321.453285 -268.00706 
L 320.651432 -265.481227 
L 319.837999 -262.955395 
L 319.052224 -260.429563 
L 318.32533 -257.903731 
L 317.67993 -255.377899 
L 317.130088 -252.852066 
L 316.681906 -250.326234 
L 316.334507 -247.800402 
L 316.081291 -245.27457 
L 315.911345 -242.748738 
L 315.81092 -240.222905 
L 315.76488 -237.697073 
L 315.758059 -235.171241 
L 315.776433 -232.645409 
L 315.808068 -230.119577 
L 315.843774 -227.593745 
L 315.877451 -225.067912 
L 315.906114 -222.54208 
L 315.929609 -220.016248 
L 315.950074 -217.490416 
L 315.971199 -214.964584 
L 315.997358 -212.438751 
L 316.032702 -209.912919 
L 316.080292 -207.387087 
L 316.141359 -204.861255 
L 316.214751 -202.335423 
L 316.296641 -199.80959 
L 316.380505 -197.283758 
L 316.457405 -194.757926 
L 316.516528 -192.232094 
L 316.545959 -189.706262 
L 316.533582 -187.18043 
L 316.468038 -184.654597 
L 316.339623 -182.128765 
L 316.141029 -179.602933 
L 315.867845 -177.077101 
L 315.518773 -174.551269 
L 315.095553 -172.025436 
L 314.602617 -169.499604 
L 314.046558 -166.973772 
L 313.435487 -164.44794 
L 312.77839 -161.922108 
L 312.08456 -159.396275 
L 311.363159 -156.870443 
L 310.622944 -154.344611 
L 309.872126 -151.818779 
L 309.118345 -149.292947 
L 308.368703 -146.767114 
L 307.629805 -144.241282 
L 306.907769 -141.71545 
L 306.208194 -139.189618 
L 305.536067 -136.663786 
L 304.89564 -134.137954 
L 304.290291 -131.612121 
L 303.722425 -129.086289 
L 303.193424 -126.560457 
L 302.70371 -124.034625 
L 302.252909 -121.508793 
L 301.840153 -118.98296 
L 301.464467 -116.457128 
L 301.125234 -113.931296 
L 300.822647 -111.405464 
L 300.558098 -108.879632 
L 300.33442 -106.353799 
L 300.155924 -103.827967 
L 300.028185 -101.302135 
L 299.957558 -98.776303 
L 299.950448 -96.250471 
L 300.01236 -93.724638 
L 300.146813 -91.198806 
L 300.354209 -88.672974 
L 300.630771 -86.147142 
L 300.96769 -83.62131 
L 301.350636 -81.095478 
L 301.759761 -78.569645 
L 302.170333 -76.043813 
L 302.554034 -73.517981 
L 302.880913 -70.992149 
L 303.121849 -68.466317 
L 303.25127 -65.940484 
L 303.249799 -63.414652 
L 303.106456 -60.88882 
L 302.820054 -58.362988 
L 302.399553 -55.837156 
L 301.863277 -53.311323 
z
" style="stroke: #3a3a3a"/>
    </defs>
    <g clip-path="url(#p9af2877818)">
     <use xlink:href="#md98514496b" x="0" y="360" style="fill: #e57760; stroke: #3a3a3a"/>
    </g>
   </g>
   <g id="PolyCollection_4">
    <defs>
     <path id="m89eca79f35" d="M 391.890452 -53.247187 
L 377.069548 -53.247187 
L 376.693679 -55.753885 
L 376.343623 -58.260582 
L 376.021335 -60.76728 
L 375.727703 -63.273977 
L 375.462496 -65.780675 
L 375.224354 -68.287372 
L 375.010826 -70.79407 
L 374.818451 -73.300767 
L 374.642879 -75.807465 
L 374.479031 -78.314162 
L 374.32128 -80.82086 
L 374.163666 -83.327558 
L 374.000113 -85.834255 
L 373.824661 -88.340953 
L 373.631689 -90.84765 
L 373.416135 -93.354348 
L 373.173696 -95.861045 
L 372.901007 -98.367743 
L 372.595785 -100.87444 
L 372.256949 -103.381138 
L 371.884689 -105.887835 
L 371.480502 -108.394533 
L 371.047179 -110.90123 
L 370.588746 -113.407928 
L 370.110361 -115.914626 
L 369.618168 -118.421323 
L 369.119114 -120.928021 
L 368.620732 -123.434718 
L 368.130901 -125.941416 
L 367.65759 -128.448113 
L 367.208598 -130.954811 
L 366.791302 -133.461508 
L 366.412416 -135.968206 
L 366.077784 -138.474903 
L 365.792205 -140.981601 
L 365.559302 -143.488298 
L 365.381439 -145.994996 
L 365.259686 -148.501693 
L 365.193843 -151.008391 
L 365.182495 -153.515089 
L 365.223126 -156.021786 
L 365.312254 -158.528484 
L 365.445598 -161.035181 
L 365.618257 -163.541879 
L 365.824895 -166.048576 
L 366.059918 -168.555274 
L 366.317641 -171.061971 
L 366.592424 -173.568669 
L 366.878786 -176.075366 
L 367.171486 -178.582064 
L 367.46557 -181.088761 
L 367.756386 -183.595459 
L 368.039577 -186.102157 
L 368.311047 -188.608854 
L 368.56692 -191.115552 
L 368.803491 -193.622249 
L 369.017179 -196.128947 
L 369.204501 -198.635644 
L 369.362059 -201.142342 
L 369.486553 -203.649039 
L 369.574824 -206.155737 
L 369.623925 -208.662434 
L 369.631214 -211.169132 
L 369.594476 -213.675829 
L 369.512053 -216.182527 
L 369.382981 -218.689224 
L 369.207127 -221.195922 
L 368.985309 -223.70262 
L 368.719396 -226.209317 
L 368.412382 -228.716015 
L 368.068422 -231.222712 
L 367.692825 -233.72941 
L 367.292018 -236.236107 
L 366.87346 -238.742805 
L 366.44552 -241.249502 
L 366.017327 -243.7562 
L 365.598587 -246.262897 
L 365.199378 -248.769595 
L 364.829929 -251.276292 
L 364.50039 -253.78299 
L 364.2206 -256.289688 
L 363.999847 -258.796385 
L 363.846647 -261.303083 
L 363.76853 -263.80978 
L 363.77184 -266.316478 
L 363.861564 -268.823175 
L 364.041184 -271.329873 
L 364.312563 -273.83657 
L 364.675869 -276.343268 
L 365.129537 -278.849965 
L 365.670282 -281.356663 
L 366.293152 -283.86336 
L 366.991635 -286.370058 
L 367.757809 -288.876756 
L 368.582533 -291.383453 
L 369.455683 -293.890151 
L 370.366409 -296.396848 
L 371.30342 -298.903546 
L 372.255276 -301.410243 
L 396.704724 -301.410243 
L 396.704724 -301.410243 
L 397.65658 -298.903546 
L 398.593591 -296.396848 
L 399.504317 -293.890151 
L 400.377467 -291.383453 
L 401.202191 -288.876756 
L 401.968365 -286.370058 
L 402.666848 -283.86336 
L 403.289718 -281.356663 
L 403.830463 -278.849965 
L 404.284131 -276.343268 
L 404.647437 -273.83657 
L 404.918816 -271.329873 
L 405.098436 -268.823175 
L 405.18816 -266.316478 
L 405.19147 -263.80978 
L 405.113353 -261.303083 
L 404.960153 -258.796385 
L 404.7394 -256.289688 
L 404.45961 -253.78299 
L 404.130071 -251.276292 
L 403.760622 -248.769595 
L 403.361413 -246.262897 
L 402.942673 -243.7562 
L 402.51448 -241.249502 
L 402.08654 -238.742805 
L 401.667982 -236.236107 
L 401.267175 -233.72941 
L 400.891578 -231.222712 
L 400.547618 -228.716015 
L 400.240604 -226.209317 
L 399.974691 -223.70262 
L 399.752873 -221.195922 
L 399.577019 -218.689224 
L 399.447947 -216.182527 
L 399.365524 -213.675829 
L 399.328786 -211.169132 
L 399.336075 -208.662434 
L 399.385176 -206.155737 
L 399.473447 -203.649039 
L 399.597941 -201.142342 
L 399.755499 -198.635644 
L 399.942821 -196.128947 
L 400.156509 -193.622249 
L 400.39308 -191.115552 
L 400.648953 -188.608854 
L 400.920423 -186.102157 
L 401.203614 -183.595459 
L 401.49443 -181.088761 
L 401.788514 -178.582064 
L 402.081214 -176.075366 
L 402.367576 -173.568669 
L 402.642359 -171.061971 
L 402.900082 -168.555274 
L 403.135105 -166.048576 
L 403.341743 -163.541879 
L 403.514402 -161.035181 
L 403.647746 -158.528484 
L 403.736874 -156.021786 
L 403.777505 -153.515089 
L 403.766157 -151.008391 
L 403.700314 -148.501693 
L 403.578561 -145.994996 
L 403.400698 -143.488298 
L 403.167795 -140.981601 
L 402.882216 -138.474903 
L 402.547584 -135.968206 
L 402.168698 -133.461508 
L 401.751402 -130.954811 
L 401.30241 -128.448113 
L 400.829099 -125.941416 
L 400.339268 -123.434718 
L 399.840886 -120.928021 
L 399.341832 -118.421323 
L 398.849639 -115.914626 
L 398.371254 -113.407928 
L 397.912821 -110.90123 
L 397.479498 -108.394533 
L 397.075311 -105.887835 
L 396.703051 -103.381138 
L 396.364215 -100.87444 
L 396.058993 -98.367743 
L 395.786304 -95.861045 
L 395.543865 -93.354348 
L 395.328311 -90.84765 
L 395.135339 -88.340953 
L 394.959887 -85.834255 
L 394.796334 -83.327558 
L 394.63872 -80.82086 
L 394.480969 -78.314162 
L 394.317121 -75.807465 
L 394.141549 -73.300767 
L 393.949174 -70.79407 
L 393.735646 -68.287372 
L 393.497504 -65.780675 
L 393.232297 -63.273977 
L 392.938665 -60.76728 
L 392.616377 -58.260582 
L 392.266321 -55.753885 
L 391.890452 -53.247187 
z
" style="stroke: #3a3a3a"/>
    </defs>
    <g clip-path="url(#p9af2877818)">
     <use xlink:href="#m89eca79f35" x="0" y="360" style="fill: #cb453e; stroke: #3a3a3a"/>
    </g>
   </g>
   <g id="PolyCollection_5">
    <defs>
     <path id="m6160f03d61" d="M 483.127449 -56.297932 
L 464.392551 -56.297932 
L 463.796575 -58.634915 
L 463.197422 -60.971899 
L 462.597842 -63.308882 
L 462.000576 -65.645865 
L 461.408323 -67.982848 
L 460.82372 -70.319832 
L 460.249318 -72.656815 
L 459.687565 -74.993798 
L 459.140794 -77.330782 
L 458.611212 -79.667765 
L 458.100893 -82.004748 
L 457.611776 -84.341731 
L 457.145662 -86.678715 
L 456.70421 -89.015698 
L 456.288944 -91.352681 
L 455.901246 -93.689664 
L 455.542357 -96.026648 
L 455.213379 -98.363631 
L 454.915267 -100.700614 
L 454.648825 -103.037598 
L 454.414701 -105.374581 
L 454.213376 -107.711564 
L 454.045152 -110.048547 
L 453.910144 -112.385531 
L 453.808268 -114.722514 
L 453.739224 -117.059497 
L 453.702488 -119.39648 
L 453.697303 -121.733464 
L 453.722672 -124.070447 
L 453.777354 -126.40743 
L 453.859862 -128.744413 
L 453.96848 -131.081397 
L 454.101262 -133.41838 
L 454.256061 -135.755363 
L 454.430551 -138.092347 
L 454.622255 -140.42933 
L 454.828585 -142.766313 
L 455.04688 -145.103296 
L 455.274453 -147.44028 
L 455.508632 -149.777263 
L 455.746811 -152.114246 
L 455.986488 -154.451229 
L 456.225306 -156.788213 
L 456.461085 -159.125196 
L 456.691851 -161.462179 
L 456.915845 -163.799162 
L 457.131536 -166.136146 
L 457.337614 -168.473129 
L 457.532975 -170.810112 
L 457.716698 -173.147096 
L 457.888016 -175.484079 
L 458.046275 -177.821062 
L 458.190896 -180.158045 
L 458.321332 -182.495029 
L 458.437034 -184.832012 
L 458.537411 -187.168995 
L 458.621816 -189.505978 
L 458.689522 -191.842962 
L 458.73973 -194.179945 
L 458.77158 -196.516928 
L 458.784181 -198.853911 
L 458.776653 -201.190895 
L 458.748186 -203.527878 
L 458.698105 -205.864861 
L 458.625946 -208.201845 
L 458.53154 -210.538828 
L 458.415084 -212.875811 
L 458.277228 -215.212794 
L 458.119134 -217.549778 
L 457.942535 -219.886761 
L 457.749772 -222.223744 
L 457.543814 -224.560727 
L 457.328254 -226.897711 
L 457.107279 -229.234694 
L 456.885624 -231.571677 
L 456.668495 -233.908661 
L 456.461469 -236.245644 
L 456.270388 -238.582627 
L 456.101218 -240.91961 
L 455.959915 -243.256594 
L 455.85227 -245.593577 
L 455.783767 -247.93056 
L 455.759429 -250.267543 
L 455.78369 -252.604527 
L 455.860265 -254.94151 
L 455.992051 -257.278493 
L 456.181041 -259.615476 
L 456.428269 -261.95246 
L 456.733774 -264.289443 
L 457.096599 -266.626426 
L 457.51481 -268.96341 
L 457.985543 -271.300393 
L 458.50508 -273.637376 
L 459.068935 -275.974359 
L 459.671968 -278.311343 
L 460.308507 -280.648326 
L 460.972478 -282.985309 
L 461.65755 -285.322292 
L 462.357264 -287.659276 
L 485.162736 -287.659276 
L 485.162736 -287.659276 
L 485.86245 -285.322292 
L 486.547522 -282.985309 
L 487.211493 -280.648326 
L 487.848032 -278.311343 
L 488.451065 -275.974359 
L 489.01492 -273.637376 
L 489.534457 -271.300393 
L 490.00519 -268.96341 
L 490.423401 -266.626426 
L 490.786226 -264.289443 
L 491.091731 -261.95246 
L 491.338959 -259.615476 
L 491.527949 -257.278493 
L 491.659735 -254.94151 
L 491.73631 -252.604527 
L 491.760571 -250.267543 
L 491.736233 -247.93056 
L 491.66773 -245.593577 
L 491.560085 -243.256594 
L 491.418782 -240.91961 
L 491.249612 -238.582627 
L 491.058531 -236.245644 
L 490.851505 -233.908661 
L 490.634376 -231.571677 
L 490.412721 -229.234694 
L 490.191746 -226.897711 
L 489.976186 -224.560727 
L 489.770228 -222.223744 
L 489.577465 -219.886761 
L 489.400866 -217.549778 
L 489.242772 -215.212794 
L 489.104916 -212.875811 
L 488.98846 -210.538828 
L 488.894054 -208.201845 
L 488.821895 -205.864861 
L 488.771814 -203.527878 
L 488.743347 -201.190895 
L 488.735819 -198.853911 
L 488.74842 -196.516928 
L 488.78027 -194.179945 
L 488.830478 -191.842962 
L 488.898184 -189.505978 
L 488.982589 -187.168995 
L 489.082966 -184.832012 
L 489.198668 -182.495029 
L 489.329104 -180.158045 
L 489.473725 -177.821062 
L 489.631984 -175.484079 
L 489.803302 -173.147096 
L 489.987025 -170.810112 
L 490.182386 -168.473129 
L 490.388464 -166.136146 
L 490.604155 -163.799162 
L 490.828149 -161.462179 
L 491.058915 -159.125196 
L 491.294694 -156.788213 
L 491.533512 -154.451229 
L 491.773189 -152.114246 
L 492.011368 -149.777263 
L 492.245547 -147.44028 
L 492.47312 -145.103296 
L 492.691415 -142.766313 
L 492.897745 -140.42933 
L 493.089449 -138.092347 
L 493.263939 -135.755363 
L 493.418738 -133.41838 
L 493.55152 -131.081397 
L 493.660138 -128.744413 
L 493.742646 -126.40743 
L 493.797328 -124.070447 
L 493.822697 -121.733464 
L 493.817512 -119.39648 
L 493.780776 -117.059497 
L 493.711732 -114.722514 
L 493.609856 -112.385531 
L 493.474848 -110.048547 
L 493.306624 -107.711564 
L 493.105299 -105.374581 
L 492.871175 -103.037598 
L 492.604733 -100.700614 
L 492.306621 -98.363631 
L 491.977643 -96.026648 
L 491.618754 -93.689664 
L 491.231056 -91.352681 
L 490.81579 -89.015698 
L 490.374338 -86.678715 
L 489.908224 -84.341731 
L 489.419107 -82.004748 
L 488.908788 -79.667765 
L 488.379206 -77.330782 
L 487.832435 -74.993798 
L 487.270682 -72.656815 
L 486.69628 -70.319832 
L 486.111677 -67.982848 
L 485.519424 -65.645865 
L 484.922158 -63.308882 
L 484.322578 -60.971899 
L 483.723425 -58.634915 
L 483.127449 -56.297932 
z
" style="stroke: #3a3a3a"/>
    </defs>
    <g clip-path="url(#p9af2877818)">
     <use xlink:href="#m6160f03d61" x="0" y="360" style="fill: #9d262a; stroke: #3a3a3a"/>
    </g>
   </g>
   <g id="matplotlib.axis_1">
    <g id="xtick_1">
     <g id="line2d_1">
      <defs>
       <path id="mc4c754d69c" d="M 0 0 
L 0 4.8 
" style="stroke: #000000"/>
      </defs>
      <g>
       <use xlink:href="#mc4c754d69c" x="116.64" y="320.4" style="stroke: #000000"/>
      </g>
     </g>
     <g id="text_1">
      <text style="font: 8.8px 'DejaVu Sans', 'Bitstream Vera Sans', 'Computer Modern Sans Serif', 'Lucida Grande', 'Verdana', 'Geneva', 'Lucid', 'Arial', 'Helvetica', 'Avant Garde', sans-serif; text-anchor: middle" x="116.64" y="335.386625" transform="rotate(-0 116.64 335.386625)">0-0.2</text>
     </g>
    </g>
    <g id="xtick_2">
     <g id="line2d_2">
      <g>
       <use xlink:href="#mc4c754d69c" x="205.92" y="320.4" style="stroke: #000000"/>
      </g>
     </g>
     <g id="text_2">
      <text style="font: 8.8px 'DejaVu Sans', 'Bitstream Vera Sans', 'Computer Modern Sans Serif', 'Lucida Grande', 'Verdana', 'Geneva', 'Lucid', 'Arial', 'Helvetica', 'Avant Garde', sans-serif; text-anchor: middle" x="205.92" y="335.386625" transform="rotate(-0 205.92 335.386625)">0.2-0.4</text>
     </g>
    </g>
    <g id="xtick_3">
     <g id="line2d_3">
      <g>
       <use xlink:href="#mc4c754d69c" x="295.2" y="320.4" style="stroke: #000000"/>
      </g>
     </g>
     <g id="text_3">
      <text style="font: 8.8px 'DejaVu Sans', 'Bitstream Vera Sans', 'Computer Modern Sans Serif', 'Lucida Grande', 'Verdana', 'Geneva', 'Lucid', 'Arial', 'Helvetica', 'Avant Garde', sans-serif; text-anchor: middle" x="295.2" y="335.386625" transform="rotate(-0 295.2 335.386625)">0.4-0.6</text>
     </g>
    </g>
    <g id="xtick_4">
     <g id="line2d_4">
      <g>
       <use xlink:href="#mc4c754d69c" x="384.48" y="320.4" style="stroke: #000000"/>
      </g>
     </g>
     <g id="text_4">
      <text style="font: 8.8px 'DejaVu Sans', 'Bitstream Vera Sans', 'Computer Modern Sans Serif', 'Lucida Grande', 'Verdana', 'Geneva', 'Lucid', 'Arial', 'Helvetica', 'Avant Garde', sans-serif; text-anchor: middle" x="384.48" y="335.386625" transform="rotate(-0 384.48 335.386625)">0.6-0.8</text>
     </g>
    </g>
    <g id="xtick_5">
     <g id="line2d_5">
      <g>
       <use xlink:href="#mc4c754d69c" x="473.76" y="320.4" style="stroke: #000000"/>
      </g>
     </g>
     <g id="text_5">
      <text style="font: 8.8px 'DejaVu Sans', 'Bitstream Vera Sans', 'Computer Modern Sans Serif', 'Lucida Grande', 'Verdana', 'Geneva', 'Lucid', 'Arial', 'Helvetica', 'Avant Garde', sans-serif; text-anchor: middle" x="473.76" y="335.386625" transform="rotate(-0 473.76 335.386625)">0.8-1</text>
     </g>
    </g>
    <g id="text_6">
     <text style="font: 9.6px 'DejaVu Sans', 'Bitstream Vera Sans', 'Computer Modern Sans Serif', 'Lucida Grande', 'Verdana', 'Geneva', 'Lucid', 'Arial', 'Helvetica', 'Avant Garde', sans-serif" transform="translate(238.68675 348.51125)">Penetrance of mutation</text>
     <text style="font: 9.6px 'DejaVu Sans', 'Bitstream Vera Sans', 'Computer Modern Sans Serif', 'Lucida Grande', 'Verdana', 'Geneva', 'Lucid', 'Arial', 'Helvetica', 'Avant Garde', sans-serif" transform="translate(169.50525 359.26115)"># mutated reads/# total reads (per site per sample)</text>
    </g>
   </g>
   <g id="matplotlib.axis_2">
    <g id="ytick_1">
     <g id="line2d_6">
      <defs>
       <path id="m0d913bbaa1" d="M 0 0 
L -4.8 0 
" style="stroke: #000000"/>
      </defs>
      <g>
       <use xlink:href="#m0d913bbaa1" x="72" y="310.381395" style="stroke: #000000"/>
      </g>
     </g>
     <g id="text_7">
      <text style="font: 8.8px 'DejaVu Sans', 'Bitstream Vera Sans', 'Computer Modern Sans Serif', 'Lucida Grande', 'Verdana', 'Geneva', 'Lucid', 'Arial', 'Helvetica', 'Avant Garde', sans-serif; text-anchor: end" x="63.7" y="313.724707" transform="rotate(-0 63.7 313.724707)">0.0</text>
     </g>
    </g>
    <g id="ytick_2">
     <g id="line2d_7">
      <g>
       <use xlink:href="#m0d913bbaa1" x="72" y="259.095036" style="stroke: #000000"/>
      </g>
     </g>
     <g id="text_8">
      <text style="font: 8.8px 'DejaVu Sans', 'Bitstream Vera Sans', 'Computer Modern Sans Serif', 'Lucida Grande', 'Verdana', 'Geneva', 'Lucid', 'Arial', 'Helvetica', 'Avant Garde', sans-serif; text-anchor: end" x="63.7" y="262.438349" transform="rotate(-0 63.7 262.438349)">0.2</text>
     </g>
    </g>
    <g id="ytick_3">
     <g id="line2d_8">
      <g>
       <use xlink:href="#m0d913bbaa1" x="72" y="207.808677" style="stroke: #000000"/>
      </g>
     </g>
     <g id="text_9">
      <text style="font: 8.8px 'DejaVu Sans', 'Bitstream Vera Sans', 'Computer Modern Sans Serif', 'Lucida Grande', 'Verdana', 'Geneva', 'Lucid', 'Arial', 'Helvetica', 'Avant Garde', sans-serif; text-anchor: end" x="63.7" y="211.15199" transform="rotate(-0 63.7 211.15199)">0.4</text>
     </g>
    </g>
    <g id="ytick_4">
     <g id="line2d_9">
      <g>
       <use xlink:href="#m0d913bbaa1" x="72" y="156.522319" style="stroke: #000000"/>
      </g>
     </g>
     <g id="text_10">
      <text style="font: 8.8px 'DejaVu Sans', 'Bitstream Vera Sans', 'Computer Modern Sans Serif', 'Lucida Grande', 'Verdana', 'Geneva', 'Lucid', 'Arial', 'Helvetica', 'Avant Garde', sans-serif; text-anchor: end" x="63.7" y="159.865631" transform="rotate(-0 63.7 159.865631)">0.6</text>
     </g>
    </g>
    <g id="ytick_5">
     <g id="line2d_10">
      <g>
       <use xlink:href="#m0d913bbaa1" x="72" y="105.23596" style="stroke: #000000"/>
      </g>
     </g>
     <g id="text_11">
      <text style="font: 8.8px 'DejaVu Sans', 'Bitstream Vera Sans', 'Computer Modern Sans Serif', 'Lucida Grande', 'Verdana', 'Geneva', 'Lucid', 'Arial', 'Helvetica', 'Avant Garde', sans-serif; text-anchor: end" x="63.7" y="108.579272" transform="rotate(-0 63.7 108.579272)">0.8</text>
     </g>
    </g>
    <g id="ytick_6">
     <g id="line2d_11">
      <g>
       <use xlink:href="#m0d913bbaa1" x="72" y="53.949601" style="stroke: #000000"/>
      </g>
     </g>
     <g id="text_12">
      <text style="font: 8.8px 'DejaVu Sans', 'Bitstream Vera Sans', 'Computer Modern Sans Serif', 'Lucida Grande', 'Verdana', 'Geneva', 'Lucid', 'Arial', 'Helvetica', 'Avant Garde', sans-serif; text-anchor: end" x="63.7" y="57.292913" transform="rotate(-0 63.7 57.292913)">1.0</text>
     </g>
    </g>
    <g id="text_13">
     <text style="font: 9.6px 'DejaVu Sans', 'Bitstream Vera Sans', 'Computer Modern Sans Serif', 'Lucida Grande', 'Verdana', 'Geneva', 'Lucid', 'Arial', 'Helvetica', 'Avant Garde', sans-serif; text-anchor: middle" x="43.70875" y="181.8" transform="rotate(-90 43.70875 181.8)">Methylation fraction</text>
    </g>
   </g>
   <g id="line2d_12">
    <path d="M 116.64 307.8 
L 116.64 55.8 
" clip-path="url(#p9af2877818)" style="fill: none; stroke: #3a3a3a; stroke-width: 1.5; stroke-linecap: square"/>
   </g>
   <g id="line2d_13">
    <path d="M 116.64 173.536625 
L 116.64 82.700228 
" clip-path="url(#p9af2877818)" style="fill: none; stroke: #3a3a3a; stroke-width: 4.5; stroke-linecap: square"/>
   </g>
   <g id="line2d_14">
    <path d="M 116.64 117.491342 
" clip-path="url(#p9af2877818)" style="fill: none; stroke: #3a3a3a; stroke-width: 1.2; stroke-linecap: square"/>
    <defs>
     <path id="mafeed0cde2" d="M 1.875 0 
L -1.875 -0 
" style="stroke: #ffffff; stroke-width: 0.9"/>
    </defs>
    <g clip-path="url(#p9af2877818)">
     <use xlink:href="#mafeed0cde2" x="116.64" y="117.491342" style="fill: #ffffff; stroke: #ffffff; stroke-width: 0.9"/>
    </g>
   </g>
   <g id="line2d_15">
    <path d="M 205.92 307.722058 
L 205.92 56.082044 
" clip-path="url(#p9af2877818)" style="fill: none; stroke: #3a3a3a; stroke-width: 1.5; stroke-linecap: square"/>
   </g>
   <g id="line2d_16">
    <path d="M 205.92 185.748293 
L 205.92 88.482465 
" clip-path="url(#p9af2877818)" style="fill: none; stroke: #3a3a3a; stroke-width: 4.5; stroke-linecap: square"/>
   </g>
   <g id="line2d_17">
    <path d="M 205.92 136.899543 
" clip-path="url(#p9af2877818)" style="fill: none; stroke: #3a3a3a; stroke-width: 1.2; stroke-linecap: square"/>
    <g clip-path="url(#p9af2877818)">
     <use xlink:href="#mafeed0cde2" x="205.92" y="136.899543" style="fill: #ffffff; stroke: #ffffff; stroke-width: 0.9"/>
    </g>
   </g>
   <g id="line2d_18">
    <path d="M 295.2 306.688677 
L 295.2 56.63129 
" clip-path="url(#p9af2877818)" style="fill: none; stroke: #3a3a3a; stroke-width: 1.5; stroke-linecap: square"/>
   </g>
   <g id="line2d_19">
    <path d="M 295.2 190.985187 
L 295.2 89.349958 
" clip-path="url(#p9af2877818)" style="fill: none; stroke: #3a3a3a; stroke-width: 4.5; stroke-linecap: square"/>
   </g>
   <g id="line2d_20">
    <path d="M 295.2 142.38921 
" clip-path="url(#p9af2877818)" style="fill: none; stroke: #3a3a3a; stroke-width: 1.2; stroke-linecap: square"/>
    <g clip-path="url(#p9af2877818)">
     <use xlink:href="#mafeed0cde2" x="295.2" y="142.38921" style="fill: #ffffff; stroke: #ffffff; stroke-width: 0.9"/>
    </g>
   </g>
   <g id="line2d_21">
    <path d="M 384.48 306.752813 
L 384.48 58.589757 
" clip-path="url(#p9af2877818)" style="fill: none; stroke: #3a3a3a; stroke-width: 1.5; stroke-linecap: square"/>
   </g>
   <g id="line2d_22">
    <path d="M 384.48 223.090762 
L 384.48 101.03644 
" clip-path="url(#p9af2877818)" style="fill: none; stroke: #3a3a3a; stroke-width: 4.5; stroke-linecap: square"/>
   </g>
   <g id="line2d_23">
    <path d="M 384.48 167.904544 
" clip-path="url(#p9af2877818)" style="fill: none; stroke: #3a3a3a; stroke-width: 1.2; stroke-linecap: square"/>
    <g clip-path="url(#p9af2877818)">
     <use xlink:href="#mafeed0cde2" x="384.48" y="167.904544" style="fill: #ffffff; stroke: #ffffff; stroke-width: 0.9"/>
    </g>
   </g>
   <g id="line2d_24">
    <path d="M 473.76 303.702068 
L 473.76 72.340724 
" clip-path="url(#p9af2877818)" style="fill: none; stroke: #3a3a3a; stroke-width: 1.5; stroke-linecap: square"/>
   </g>
   <g id="line2d_25">
    <path d="M 473.76 249.040193 
L 473.76 112.643437 
" clip-path="url(#p9af2877818)" style="fill: none; stroke: #3a3a3a; stroke-width: 4.5; stroke-linecap: square"/>
   </g>
   <g id="line2d_26">
    <path d="M 473.76 198.915612 
" clip-path="url(#p9af2877818)" style="fill: none; stroke: #3a3a3a; stroke-width: 1.2; stroke-linecap: square"/>
    <g clip-path="url(#p9af2877818)">
     <use xlink:href="#mafeed0cde2" x="473.76" y="198.915612" style="fill: #ffffff; stroke: #ffffff; stroke-width: 0.9"/>
    </g>
   </g>
   <g id="patch_3">
    <path d="M 72 320.4 
L 72 43.2 
" style="fill: none; stroke: #000000; stroke-linejoin: miter; stroke-linecap: square"/>
   </g>
   <g id="patch_4">
    <path d="M 518.4 320.4 
L 518.4 43.2 
" style="fill: none; stroke: #000000; stroke-linejoin: miter; stroke-linecap: square"/>
   </g>
   <g id="patch_5">
    <path d="M 72 320.4 
L 518.4 320.4 
" style="fill: none; stroke: #000000; stroke-linejoin: miter; stroke-linecap: square"/>
   </g>
   <g id="patch_6">
    <path d="M 72 43.2 
L 518.4 43.2 
" style="fill: none; stroke: #000000; stroke-linejoin: miter; stroke-linecap: square"/>
   </g>
   <g id="text_14">
    <text style="font: 9.6px 'DejaVu Sans', 'Bitstream Vera Sans', 'Computer Modern Sans Serif', 'Lucida Grande', 'Verdana', 'Geneva', 'Lucid', 'Arial', 'Helvetica', 'Avant Garde', sans-serif" transform="translate(93.84675 289.95405)">Pearson r = -0.101</text>
    <text style="font: 9.6px 'DejaVu Sans', 'Bitstream Vera Sans', 'Computer Modern Sans Serif', 'Lucida Grande', 'Verdana', 'Geneva', 'Lucid', 'Arial', 'Helvetica', 'Avant Garde', sans-serif" transform="translate(107.27925 300.70395)">p = 1.01E-19</text>
   </g>
  </g>
 </g>
 <defs>
  <clipPath id="p9af2877818">
   <rect x="72" y="43.2" width="446.4" height="277.2"/>
  </clipPath>
 </defs>
</svg>
