<?xml version="1.0" encoding="utf-8" standalone="no"?>
<!DOCTYPE svg PUBLIC "-//W3C//DTD SVG 1.1//EN"
  "http://www.w3.org/Graphics/SVG/1.1/DTD/svg11.dtd">
<svg xmlns:xlink="http://www.w3.org/1999/xlink" width="460.8pt" height="345.6pt" viewBox="0 0 460.8 345.6" xmlns="http://www.w3.org/2000/svg" version="1.1">
 <metadata>
  <rdf:RDF xmlns:dc="http://purl.org/dc/elements/1.1/" xmlns:cc="http://creativecommons.org/ns#" xmlns:rdf="http://www.w3.org/1999/02/22-rdf-syntax-ns#">
   <cc:Work>
    <dc:type rdf:resource="http://purl.org/dc/dcmitype/StillImage"/>
    <dc:date>2024-10-17T13:32:12.735209</dc:date>
    <dc:format>image/svg+xml</dc:format>
    <dc:creator>
     <cc:Agent>
      <dc:title>Matplotlib v3.7.1, https://matplotlib.org/</dc:title>
     </cc:Agent>
    </dc:creator>
   </cc:Work>
  </rdf:RDF>
 </metadata>
 <defs>
  <style type="text/css">*{stroke-linejoin: round; stroke-linecap: butt}</style>
 </defs>
 <g id="figure_1">
  <g id="patch_1">
   <path d="M 0 345.6 
L 460.8 345.6 
L 460.8 0 
L 0 0 
z
" style="fill: #ffffff"/>
  </g>
  <g id="axes_1">
   <g id="patch_2">
    <path d="M 57.6 307.584 
L 414.72 307.584 
L 414.72 41.472 
L 57.6 41.472 
z
" style="fill: #ffffff"/>
   </g>
   <g id="PolyCollection_1">
    <defs>
     <path id="m9bbdbd08a2" d="M 129.377559 -56.381177 
L 104.862441 -56.381177 
L 103.663552 -57.877616 
L 102.405797 -59.374055 
L 101.093289 -60.870494 
L 99.730953 -62.366933 
L 98.324482 -63.863372 
L 96.880285 -65.359811 
L 95.405416 -66.856251 
L 93.907481 -68.35269 
L 92.394544 -69.849129 
L 90.875009 -71.345568 
L 89.357498 -72.842007 
L 87.850727 -74.338446 
L 86.363372 -75.834885 
L 84.90394 -77.331324 
L 83.480641 -78.827764 
L 82.101271 -80.324203 
L 80.773098 -81.820642 
L 79.502769 -83.317081 
L 78.296228 -84.81352 
L 77.158649 -86.309959 
L 76.09439 -87.806398 
L 75.106969 -89.302838 
L 74.19906 -90.799277 
L 73.372499 -92.295716 
L 72.628326 -93.792155 
L 71.966831 -95.288594 
L 71.387627 -96.785033 
L 70.889726 -98.281472 
L 70.471637 -99.777911 
L 70.131465 -101.274351 
L 69.867022 -102.77079 
L 69.675931 -104.267229 
L 69.555735 -105.763668 
L 69.504 -107.260107 
L 69.518401 -108.756546 
L 69.596804 -110.252985 
L 69.73733 -111.749425 
L 69.938398 -113.245864 
L 70.198751 -114.742303 
L 70.517458 -116.238742 
L 70.893899 -117.735181 
L 71.327721 -119.23162 
L 71.818782 -120.728059 
L 72.36707 -122.224498 
L 72.972613 -123.720938 
L 73.635371 -125.217377 
L 74.355126 -126.713816 
L 75.131368 -128.210255 
L 75.96318 -129.706694 
L 76.849138 -131.203133 
L 77.787215 -132.699572 
L 78.774712 -134.196012 
L 79.808202 -135.692451 
L 80.883503 -137.18889 
L 81.995678 -138.685329 
L 83.139069 -140.181768 
L 84.307346 -141.678207 
L 85.493602 -143.174646 
L 86.690462 -144.671086 
L 87.890217 -146.167525 
L 89.084981 -147.663964 
L 90.266855 -149.160403 
L 91.428106 -150.656842 
L 92.56134 -152.153281 
L 93.659678 -153.64972 
L 94.716913 -155.146159 
L 95.727659 -156.642599 
L 96.687469 -158.139038 
L 97.592936 -159.635477 
L 98.44176 -161.131916 
L 99.232777 -162.628355 
L 99.965968 -164.124794 
L 100.642424 -165.621233 
L 101.264285 -167.117673 
L 101.834647 -168.614112 
L 102.357447 -170.110551 
L 102.837323 -171.60699 
L 103.27946 -173.103429 
L 103.689424 -174.599868 
L 104.072993 -176.096307 
L 104.435986 -177.592746 
L 104.784101 -179.089186 
L 105.122761 -180.585625 
L 105.456981 -182.082064 
L 105.791247 -183.578503 
L 106.129423 -185.074942 
L 106.474682 -186.571381 
L 106.82946 -188.06782 
L 107.195436 -189.56426 
L 107.573535 -191.060699 
L 107.963959 -192.557138 
L 108.366232 -194.053577 
L 108.779265 -195.550016 
L 109.201436 -197.046455 
L 109.630678 -198.542894 
L 110.064579 -200.039333 
L 110.500475 -201.535773 
L 110.935551 -203.032212 
L 111.366938 -204.528651 
L 122.873062 -204.528651 
L 122.873062 -204.528651 
L 123.304449 -203.032212 
L 123.739525 -201.535773 
L 124.175421 -200.039333 
L 124.609322 -198.542894 
L 125.038564 -197.046455 
L 125.460735 -195.550016 
L 125.873768 -194.053577 
L 126.276041 -192.557138 
L 126.666465 -191.060699 
L 127.044564 -189.56426 
L 127.41054 -188.06782 
L 127.765318 -186.571381 
L 128.110577 -185.074942 
L 128.448753 -183.578503 
L 128.783019 -182.082064 
L 129.117239 -180.585625 
L 129.455899 -179.089186 
L 129.804014 -177.592746 
L 130.167007 -176.096307 
L 130.550576 -174.599868 
L 130.96054 -173.103429 
L 131.402677 -171.60699 
L 131.882553 -170.110551 
L 132.405353 -168.614112 
L 132.975715 -167.117673 
L 133.597576 -165.621233 
L 134.274032 -164.124794 
L 135.007223 -162.628355 
L 135.79824 -161.131916 
L 136.647064 -159.635477 
L 137.552531 -158.139038 
L 138.512341 -156.642599 
L 139.523087 -155.146159 
L 140.580322 -153.64972 
L 141.67866 -152.153281 
L 142.811894 -150.656842 
L 143.973145 -149.160403 
L 145.155019 -147.663964 
L 146.349783 -146.167525 
L 147.549538 -144.671086 
L 148.746398 -143.174646 
L 149.932654 -141.678207 
L 151.100931 -140.181768 
L 152.244322 -138.685329 
L 153.356497 -137.18889 
L 154.431798 -135.692451 
L 155.465288 -134.196012 
L 156.452785 -132.699572 
L 157.390862 -131.203133 
L 158.27682 -129.706694 
L 159.108632 -128.210255 
L 159.884874 -126.713816 
L 160.604629 -125.217377 
L 161.267387 -123.720938 
L 161.87293 -122.224498 
L 162.421218 -120.728059 
L 162.912279 -119.23162 
L 163.346101 -117.735181 
L 163.722542 -116.238742 
L 164.041249 -114.742303 
L 164.301602 -113.245864 
L 164.50267 -111.749425 
L 164.643196 -110.252985 
L 164.721599 -108.756546 
L 164.736 -107.260107 
L 164.684265 -105.763668 
L 164.564069 -104.267229 
L 164.372978 -102.77079 
L 164.108535 -101.274351 
L 163.768363 -99.777911 
L 163.350274 -98.281472 
L 162.852373 -96.785033 
L 162.273169 -95.288594 
L 161.611674 -93.792155 
L 160.867501 -92.295716 
L 160.04094 -90.799277 
L 159.133031 -89.302838 
L 158.14561 -87.806398 
L 157.081351 -86.309959 
L 155.943772 -84.81352 
L 154.737231 -83.317081 
L 153.466902 -81.820642 
L 152.138729 -80.324203 
L 150.759359 -78.827764 
L 149.33606 -77.331324 
L 147.876628 -75.834885 
L 146.389273 -74.338446 
L 144.882502 -72.842007 
L 143.364991 -71.345568 
L 141.845456 -69.849129 
L 140.332519 -68.35269 
L 138.834584 -66.856251 
L 137.359715 -65.359811 
L 135.915518 -63.863372 
L 134.509047 -62.366933 
L 133.146711 -60.870494 
L 131.834203 -59.374055 
L 130.576448 -57.877616 
L 129.377559 -56.381177 
z
" style="stroke: #999999"/>
    </defs>
    <g clip-path="url(#p37235c449b)">
     <use xlink:href="#m9bbdbd08a2" x="0" y="345.6" style="fill: #ffffff; stroke: #999999"/>
    </g>
   </g>
   <g id="PolyCollection_2">
    <defs>
     <path id="mf5bdb219ae" d="M 241.949236 -50.112 
L 230.370764 -50.112 
L 229.552383 -52.117544 
L 228.657989 -54.123088 
L 227.686572 -56.128632 
L 226.638004 -58.134176 
L 225.513123 -60.13972 
L 224.313798 -62.145265 
L 223.042984 -64.150809 
L 221.704763 -66.156353 
L 220.304356 -68.161897 
L 218.848115 -70.167441 
L 217.343502 -72.172985 
L 215.799027 -74.178529 
L 214.224168 -76.184073 
L 212.629271 -78.189617 
L 211.025418 -80.195161 
L 209.424271 -82.200705 
L 207.837906 -84.206249 
L 206.278625 -86.211794 
L 204.758757 -88.217338 
L 203.290463 -90.222882 
L 201.885533 -92.228426 
L 200.5552 -94.23397 
L 199.309964 -96.239514 
L 198.159444 -98.245058 
L 197.112247 -100.250602 
L 196.175875 -102.256146 
L 195.356662 -104.26169 
L 194.659734 -106.267234 
L 194.089012 -108.272778 
L 193.64723 -110.278323 
L 193.335978 -112.283867 
L 193.155762 -114.289411 
L 193.106067 -116.294955 
L 193.185425 -118.300499 
L 193.391481 -120.306043 
L 193.721041 -122.311587 
L 194.170125 -124.317131 
L 194.733985 -126.322675 
L 195.407131 -128.328219 
L 196.183336 -130.333763 
L 197.055639 -132.339308 
L 198.016345 -134.344852 
L 199.05704 -136.350396 
L 200.168608 -138.35594 
L 201.341272 -140.361484 
L 202.56466 -142.367028 
L 203.827893 -144.372572 
L 205.119699 -146.378116 
L 206.428558 -148.38366 
L 207.742867 -150.389204 
L 209.051121 -152.394748 
L 210.342113 -154.400292 
L 211.605132 -156.405837 
L 212.830158 -158.411381 
L 214.008047 -160.416925 
L 215.130699 -162.422469 
L 216.191198 -164.428013 
L 217.18392 -166.433557 
L 218.104612 -168.439101 
L 218.950429 -170.444645 
L 219.719944 -172.450189 
L 220.413113 -174.455733 
L 221.031215 -176.461277 
L 221.576768 -178.466821 
L 222.053408 -180.472366 
L 222.465766 -182.47791 
L 222.81932 -184.483454 
L 223.120243 -186.488998 
L 223.375244 -188.494542 
L 223.591413 -190.500086 
L 223.776063 -192.50563 
L 223.936583 -194.511174 
L 224.080291 -196.516718 
L 224.214301 -198.522262 
L 224.345402 -200.527806 
L 224.479941 -202.533351 
L 224.623721 -204.538895 
L 224.781918 -206.544439 
L 224.958996 -208.549983 
L 225.158655 -210.555527 
L 225.383778 -212.561071 
L 225.636406 -214.566615 
L 225.917721 -216.572159 
L 226.228053 -218.577703 
L 226.566904 -220.583247 
L 226.932985 -222.588791 
L 227.324277 -224.594335 
L 227.738107 -226.59988 
L 228.171236 -228.605424 
L 228.619962 -230.610968 
L 229.080231 -232.616512 
L 229.547757 -234.622056 
L 230.01814 -236.6276 
L 230.486988 -238.633144 
L 230.950031 -240.638688 
L 231.403223 -242.644232 
L 231.84284 -244.649776 
L 232.265551 -246.65532 
L 232.66849 -248.660864 
L 239.65151 -248.660864 
L 239.65151 -248.660864 
L 240.054449 -246.65532 
L 240.47716 -244.649776 
L 240.916777 -242.644232 
L 241.369969 -240.638688 
L 241.833012 -238.633144 
L 242.30186 -236.6276 
L 242.772243 -234.622056 
L 243.239769 -232.616512 
L 243.700038 -230.610968 
L 244.148764 -228.605424 
L 244.581893 -226.59988 
L 244.995723 -224.594335 
L 245.387015 -222.588791 
L 245.753096 -220.583247 
L 246.091947 -218.577703 
L 246.402279 -216.572159 
L 246.683594 -214.566615 
L 246.936222 -212.561071 
L 247.161345 -210.555527 
L 247.361004 -208.549983 
L 247.538082 -206.544439 
L 247.696279 -204.538895 
L 247.840059 -202.533351 
L 247.974598 -200.527806 
L 248.105699 -198.522262 
L 248.239709 -196.516718 
L 248.383417 -194.511174 
L 248.543937 -192.50563 
L 248.728587 -190.500086 
L 248.944756 -188.494542 
L 249.199757 -186.488998 
L 249.50068 -184.483454 
L 249.854234 -182.47791 
L 250.266592 -180.472366 
L 250.743232 -178.466821 
L 251.288785 -176.461277 
L 251.906887 -174.455733 
L 252.600056 -172.450189 
L 253.369571 -170.444645 
L 254.215388 -168.439101 
L 255.13608 -166.433557 
L 256.128802 -164.428013 
L 257.189301 -162.422469 
L 258.311953 -160.416925 
L 259.489842 -158.411381 
L 260.714868 -156.405837 
L 261.977887 -154.400292 
L 263.268879 -152.394748 
L 264.577133 -150.389204 
L 265.891442 -148.38366 
L 267.200301 -146.378116 
L 268.492107 -144.372572 
L 269.75534 -142.367028 
L 270.978728 -140.361484 
L 272.151392 -138.35594 
L 273.26296 -136.350396 
L 274.303655 -134.344852 
L 275.264361 -132.339308 
L 276.136664 -130.333763 
L 276.912869 -128.328219 
L 277.586015 -126.322675 
L 278.149875 -124.317131 
L 278.598959 -122.311587 
L 278.928519 -120.306043 
L 279.134575 -118.300499 
L 279.213933 -116.294955 
L 279.164238 -114.289411 
L 278.984022 -112.283867 
L 278.67277 -110.278323 
L 278.230988 -108.272778 
L 277.660266 -106.267234 
L 276.963338 -104.26169 
L 276.144125 -102.256146 
L 275.207753 -100.250602 
L 274.160556 -98.245058 
L 273.010036 -96.239514 
L 271.7648 -94.23397 
L 270.434467 -92.228426 
L 269.029537 -90.222882 
L 267.561243 -88.217338 
L 266.041375 -86.211794 
L 264.482094 -84.206249 
L 262.895729 -82.200705 
L 261.294582 -80.195161 
L 259.690729 -78.189617 
L 258.095832 -76.184073 
L 256.520973 -74.178529 
L 254.976498 -72.172985 
L 253.471885 -70.167441 
L 252.015644 -68.161897 
L 250.615237 -66.156353 
L 249.277016 -64.150809 
L 248.006202 -62.145265 
L 246.806877 -60.13972 
L 245.681996 -58.134176 
L 244.633428 -56.128632 
L 243.662011 -54.123088 
L 242.767617 -52.117544 
L 241.949236 -50.112 
z
" style="stroke: #999999"/>
    </defs>
    <g clip-path="url(#p37235c449b)">
     <use xlink:href="#mf5bdb219ae" x="0" y="345.6" style="fill: #ffffff; stroke: #999999"/>
    </g>
   </g>
   <g id="PolyCollection_3">
    <defs>
     <path id="m4c8f08afda" d="M 360.778641 -81.190893 
L 349.621359 -81.190893 
L 348.952706 -83.320601 
L 348.230056 -85.450309 
L 347.451755 -87.580017 
L 346.616305 -89.709725 
L 345.722385 -91.839434 
L 344.768895 -93.969142 
L 343.75501 -96.09885 
L 342.680252 -98.228558 
L 341.544573 -100.358266 
L 340.348461 -102.487974 
L 339.093053 -104.617683 
L 337.780263 -106.747391 
L 336.412912 -108.877099 
L 334.994862 -111.006807 
L 333.531137 -113.136515 
L 332.028029 -115.266223 
L 330.493182 -117.395931 
L 328.935638 -119.52564 
L 327.365843 -121.655348 
L 325.795606 -123.785056 
L 324.237995 -125.914764 
L 322.707192 -128.044472 
L 321.218271 -130.17418 
L 319.786938 -132.303889 
L 318.429213 -134.433597 
L 317.161073 -136.563305 
L 315.998067 -138.693013 
L 314.954918 -140.822721 
L 314.045123 -142.952429 
L 313.28057 -145.082137 
L 312.671192 -147.211846 
L 312.224661 -149.341554 
L 311.946161 -151.471262 
L 311.838218 -153.60097 
L 311.900622 -155.730678 
L 312.130439 -157.860386 
L 312.5221 -159.990095 
L 313.067583 -162.119803 
L 313.756669 -164.249511 
L 314.577258 -166.379219 
L 315.515741 -168.508927 
L 316.557408 -170.638635 
L 317.686861 -172.768343 
L 318.888442 -174.898052 
L 320.146631 -177.02776 
L 321.446414 -179.157468 
L 322.773599 -181.287176 
L 324.11508 -183.416884 
L 325.459033 -185.546592 
L 326.79504 -187.676301 
L 328.114147 -189.806009 
L 329.408862 -191.935717 
L 330.673083 -194.065425 
L 331.901992 -196.195133 
L 333.091902 -198.324841 
L 334.240077 -200.454549 
L 335.344553 -202.584258 
L 336.403943 -204.713966 
L 337.417263 -206.843674 
L 338.383781 -208.973382 
L 339.302886 -211.10309 
L 340.173998 -213.232798 
L 340.996517 -215.362507 
L 341.769801 -217.492215 
L 342.493187 -219.621923 
L 343.16604 -221.751631 
L 343.787824 -223.881339 
L 344.358199 -226.011047 
L 344.877115 -228.140755 
L 345.344921 -230.270464 
L 345.762454 -232.400172 
L 346.13112 -234.52988 
L 346.452956 -236.659588 
L 346.730658 -238.789296 
L 346.967584 -240.919004 
L 347.167729 -243.048712 
L 347.335655 -245.178421 
L 347.476414 -247.308129 
L 347.595421 -249.437837 
L 347.698325 -251.567545 
L 347.790858 -253.697253 
L 347.878673 -255.826961 
L 347.967192 -257.95667 
L 348.061445 -260.086378 
L 348.165944 -262.216086 
L 348.28455 -264.345794 
L 348.420391 -266.475502 
L 348.575786 -268.60521 
L 348.752213 -270.734918 
L 348.950301 -272.864627 
L 349.169855 -274.994335 
L 349.409905 -277.124043 
L 349.668789 -279.253751 
L 349.94424 -281.383459 
L 350.233507 -283.513167 
L 350.533471 -285.642876 
L 350.840772 -287.772584 
L 351.151938 -289.902292 
L 351.463496 -292.032 
L 358.936504 -292.032 
L 358.936504 -292.032 
L 359.248062 -289.902292 
L 359.559228 -287.772584 
L 359.866529 -285.642876 
L 360.166493 -283.513167 
L 360.45576 -281.383459 
L 360.731211 -279.253751 
L 360.990095 -277.124043 
L 361.230145 -274.994335 
L 361.449699 -272.864627 
L 361.647787 -270.734918 
L 361.824214 -268.60521 
L 361.979609 -266.475502 
L 362.11545 -264.345794 
L 362.234056 -262.216086 
L 362.338555 -260.086378 
L 362.432808 -257.95667 
L 362.521327 -255.826961 
L 362.609142 -253.697253 
L 362.701675 -251.567545 
L 362.804579 -249.437837 
L 362.923586 -247.308129 
L 363.064345 -245.178421 
L 363.232271 -243.048712 
L 363.432416 -240.919004 
L 363.669342 -238.789296 
L 363.947044 -236.659588 
L 364.26888 -234.52988 
L 364.637546 -232.400172 
L 365.055079 -230.270464 
L 365.522885 -228.140755 
L 366.041801 -226.011047 
L 366.612176 -223.881339 
L 367.23396 -221.751631 
L 367.906813 -219.621923 
L 368.630199 -217.492215 
L 369.403483 -215.362507 
L 370.226002 -213.232798 
L 371.097114 -211.10309 
L 372.016219 -208.973382 
L 372.982737 -206.843674 
L 373.996057 -204.713966 
L 375.055447 -202.584258 
L 376.159923 -200.454549 
L 377.308098 -198.324841 
L 378.498008 -196.195133 
L 379.726917 -194.065425 
L 380.991138 -191.935717 
L 382.285853 -189.806009 
L 383.60496 -187.676301 
L 384.940967 -185.546592 
L 386.28492 -183.416884 
L 387.626401 -181.287176 
L 388.953586 -179.157468 
L 390.253369 -177.02776 
L 391.511558 -174.898052 
L 392.713139 -172.768343 
L 393.842592 -170.638635 
L 394.884259 -168.508927 
L 395.822742 -166.379219 
L 396.643331 -164.249511 
L 397.332417 -162.119803 
L 397.8779 -159.990095 
L 398.269561 -157.860386 
L 398.499378 -155.730678 
L 398.561782 -153.60097 
L 398.453839 -151.471262 
L 398.175339 -149.341554 
L 397.728808 -147.211846 
L 397.11943 -145.082137 
L 396.354877 -142.952429 
L 395.445082 -140.822721 
L 394.401933 -138.693013 
L 393.238927 -136.563305 
L 391.970787 -134.433597 
L 390.613062 -132.303889 
L 389.181729 -130.17418 
L 387.692808 -128.044472 
L 386.162005 -125.914764 
L 384.604394 -123.785056 
L 383.034157 -121.655348 
L 381.464362 -119.52564 
L 379.906818 -117.395931 
L 378.371971 -115.266223 
L 376.868863 -113.136515 
L 375.405138 -111.006807 
L 373.987088 -108.877099 
L 372.619737 -106.747391 
L 371.306947 -104.617683 
L 370.051539 -102.487974 
L 368.855427 -100.358266 
L 367.719748 -98.228558 
L 366.64499 -96.09885 
L 365.631105 -93.969142 
L 364.677615 -91.839434 
L 363.783695 -89.709725 
L 362.948245 -87.580017 
L 362.169944 -85.450309 
L 361.447294 -83.320601 
L 360.778641 -81.190893 
z
" style="stroke: #999999"/>
    </defs>
    <g clip-path="url(#p37235c449b)">
     <use xlink:href="#m4c8f08afda" x="0" y="345.6" style="fill: #ffffff; stroke: #999999"/>
    </g>
   </g>
   <g id="matplotlib.axis_1">
    <g id="xtick_1">
     <g id="line2d_1">
      <defs>
       <path id="m3f375f5c8f" d="M 0 0 
L 0 4.8 
" style="stroke: #000000"/>
      </defs>
      <g>
       <use xlink:href="#m3f375f5c8f" x="117.12" y="307.584" style="stroke: #000000"/>
      </g>
     </g>
     <g id="text_1">
      <text style="font: 8.8px 'DejaVu Sans', 'Bitstream Vera Sans', 'Computer Modern Sans Serif', 'Lucida Grande', 'Verdana', 'Geneva', 'Lucid', 'Arial', 'Helvetica', 'Avant Garde', sans-serif; text-anchor: middle" x="117.12" y="322.570625" transform="rotate(-0 117.12 322.570625)">[-50, -5)</text>
     </g>
    </g>
    <g id="xtick_2">
     <g id="line2d_2">
      <g>
       <use xlink:href="#m3f375f5c8f" x="236.16" y="307.584" style="stroke: #000000"/>
      </g>
     </g>
     <g id="text_2">
      <text style="font: 8.8px 'DejaVu Sans', 'Bitstream Vera Sans', 'Computer Modern Sans Serif', 'Lucida Grande', 'Verdana', 'Geneva', 'Lucid', 'Arial', 'Helvetica', 'Avant Garde', sans-serif; text-anchor: middle" x="236.16" y="322.570625" transform="rotate(-0 236.16 322.570625)">[-5, 5)</text>
     </g>
    </g>
    <g id="xtick_3">
     <g id="line2d_3">
      <g>
       <use xlink:href="#m3f375f5c8f" x="355.2" y="307.584" style="stroke: #000000"/>
      </g>
     </g>
     <g id="text_3">
      <text style="font: 8.8px 'DejaVu Sans', 'Bitstream Vera Sans', 'Computer Modern Sans Serif', 'Lucida Grande', 'Verdana', 'Geneva', 'Lucid', 'Arial', 'Helvetica', 'Avant Garde', sans-serif; text-anchor: middle" x="355.2" y="322.570625" transform="rotate(-0 355.2 322.570625)">[5, 50)</text>
     </g>
    </g>
    <g id="text_4">
     <text style="font: 9.6px 'DejaVu Sans', 'Bitstream Vera Sans', 'Computer Modern Sans Serif', 'Lucida Grande', 'Verdana', 'Geneva', 'Lucid', 'Arial', 'Helvetica', 'Avant Garde', sans-serif; text-anchor: middle" x="236.16" y="335.69525" transform="rotate(-0 236.16 335.69525)">mut_age_resid_bin</text>
    </g>
   </g>
   <g id="matplotlib.axis_2">
    <g id="ytick_1">
     <g id="line2d_4">
      <defs>
       <path id="mac225184b5" d="M 0 0 
L -4.8 0 
" style="stroke: #000000"/>
      </defs>
      <g>
       <use xlink:href="#mac225184b5" x="57.6" y="282.458739" style="stroke: #000000"/>
      </g>
     </g>
     <g id="text_5">
      <text style="font: 8.8px 'DejaVu Sans', 'Bitstream Vera Sans', 'Computer Modern Sans Serif', 'Lucida Grande', 'Verdana', 'Geneva', 'Lucid', 'Arial', 'Helvetica', 'Avant Garde', sans-serif; text-anchor: end" x="49.3" y="285.802051" transform="rotate(-0 49.3 285.802051)">−10</text>
     </g>
    </g>
    <g id="ytick_2">
     <g id="line2d_5">
      <g>
       <use xlink:href="#mac225184b5" x="57.6" y="244.890977" style="stroke: #000000"/>
      </g>
     </g>
     <g id="text_6">
      <text style="font: 8.8px 'DejaVu Sans', 'Bitstream Vera Sans', 'Computer Modern Sans Serif', 'Lucida Grande', 'Verdana', 'Geneva', 'Lucid', 'Arial', 'Helvetica', 'Avant Garde', sans-serif; text-anchor: end" x="49.3" y="248.234289" transform="rotate(-0 49.3 248.234289)">−5</text>
     </g>
    </g>
    <g id="ytick_3">
     <g id="line2d_6">
      <g>
       <use xlink:href="#mac225184b5" x="57.6" y="207.323215" style="stroke: #000000"/>
      </g>
     </g>
     <g id="text_7">
      <text style="font: 8.8px 'DejaVu Sans', 'Bitstream Vera Sans', 'Computer Modern Sans Serif', 'Lucida Grande', 'Verdana', 'Geneva', 'Lucid', 'Arial', 'Helvetica', 'Avant Garde', sans-serif; text-anchor: end" x="49.3" y="210.666528" transform="rotate(-0 49.3 210.666528)">0</text>
     </g>
    </g>
    <g id="ytick_4">
     <g id="line2d_7">
      <g>
       <use xlink:href="#mac225184b5" x="57.6" y="169.755453" style="stroke: #000000"/>
      </g>
     </g>
     <g id="text_8">
      <text style="font: 8.8px 'DejaVu Sans', 'Bitstream Vera Sans', 'Computer Modern Sans Serif', 'Lucida Grande', 'Verdana', 'Geneva', 'Lucid', 'Arial', 'Helvetica', 'Avant Garde', sans-serif; text-anchor: end" x="49.3" y="173.098766" transform="rotate(-0 49.3 173.098766)">5</text>
     </g>
    </g>
    <g id="ytick_5">
     <g id="line2d_8">
      <g>
       <use xlink:href="#mac225184b5" x="57.6" y="132.187691" style="stroke: #000000"/>
      </g>
     </g>
     <g id="text_9">
      <text style="font: 8.8px 'DejaVu Sans', 'Bitstream Vera Sans', 'Computer Modern Sans Serif', 'Lucida Grande', 'Verdana', 'Geneva', 'Lucid', 'Arial', 'Helvetica', 'Avant Garde', sans-serif; text-anchor: end" x="49.3" y="135.531004" transform="rotate(-0 49.3 135.531004)">10</text>
     </g>
    </g>
    <g id="ytick_6">
     <g id="line2d_9">
      <g>
       <use xlink:href="#mac225184b5" x="57.6" y="94.61993" style="stroke: #000000"/>
      </g>
     </g>
     <g id="text_10">
      <text style="font: 8.8px 'DejaVu Sans', 'Bitstream Vera Sans', 'Computer Modern Sans Serif', 'Lucida Grande', 'Verdana', 'Geneva', 'Lucid', 'Arial', 'Helvetica', 'Avant Garde', sans-serif; text-anchor: end" x="49.3" y="97.963242" transform="rotate(-0 49.3 97.963242)">15</text>
     </g>
    </g>
    <g id="ytick_7">
     <g id="line2d_10">
      <g>
       <use xlink:href="#mac225184b5" x="57.6" y="57.052168" style="stroke: #000000"/>
      </g>
     </g>
     <g id="text_11">
      <text style="font: 8.8px 'DejaVu Sans', 'Bitstream Vera Sans', 'Computer Modern Sans Serif', 'Lucida Grande', 'Verdana', 'Geneva', 'Lucid', 'Arial', 'Helvetica', 'Avant Garde', sans-serif; text-anchor: end" x="49.3" y="60.39548" transform="rotate(-0 49.3 60.39548)">20</text>
     </g>
    </g>
    <g id="text_12">
     <text style="font: 9.6px 'DejaVu Sans', 'Bitstream Vera Sans', 'Computer Modern Sans Serif', 'Lucida Grande', 'Verdana', 'Geneva', 'Lucid', 'Arial', 'Helvetica', 'Avant Garde', sans-serif; text-anchor: middle" x="24.464375" y="174.528" transform="rotate(-90 24.464375 174.528)">methyl_age_resid</text>
    </g>
   </g>
   <g id="line2d_11">
    <path d="M 117.12 268.042494 
L 117.12 162.247678 
" clip-path="url(#p37235c449b)" style="fill: none; stroke: #999999; stroke-width: 1.5; stroke-linecap: square"/>
   </g>
   <g id="line2d_12">
    <path d="M 117.12 250.391067 
L 117.12 208.408868 
" clip-path="url(#p37235c449b)" style="fill: none; stroke: #999999; stroke-width: 4.5; stroke-linecap: square"/>
   </g>
   <g id="line2d_13">
    <path d="M 117.12 234.507816 
" clip-path="url(#p37235c449b)" style="fill: none; stroke: #999999; stroke-width: 1.2; stroke-linecap: square"/>
    <defs>
     <path id="m89a85790ca" d="M 1.875 0 
L -1.875 -0 
" style="stroke: #ffffff; stroke-width: 0.9"/>
    </defs>
    <g clip-path="url(#p37235c449b)">
     <use xlink:href="#m89a85790ca" x="117.12" y="234.507816" style="fill: #ffffff; stroke: #ffffff; stroke-width: 0.9"/>
    </g>
   </g>
   <g id="line2d_14">
    <path d="M 236.16 272.705964 
L 236.16 135.462548 
" clip-path="url(#p37235c449b)" style="fill: none; stroke: #999999; stroke-width: 1.5; stroke-linecap: square"/>
   </g>
   <g id="line2d_15">
    <path d="M 236.16 243.250064 
L 236.16 198.002151 
" clip-path="url(#p37235c449b)" style="fill: none; stroke: #999999; stroke-width: 4.5; stroke-linecap: square"/>
   </g>
   <g id="line2d_16">
    <path d="M 236.16 220.517798 
" clip-path="url(#p37235c449b)" style="fill: none; stroke: #999999; stroke-width: 1.2; stroke-linecap: square"/>
    <g clip-path="url(#p37235c449b)">
     <use xlink:href="#m89a85790ca" x="236.16" y="220.517798" style="fill: #ffffff; stroke: #ffffff; stroke-width: 0.9"/>
    </g>
   </g>
   <g id="line2d_17">
    <path d="M 355.2 238.048356 
L 355.2 136.222058 
" clip-path="url(#p37235c449b)" style="fill: none; stroke: #999999; stroke-width: 1.5; stroke-linecap: square"/>
   </g>
   <g id="line2d_18">
    <path d="M 355.2 198.328709 
L 355.2 165.62007 
" clip-path="url(#p37235c449b)" style="fill: none; stroke: #999999; stroke-width: 4.5; stroke-linecap: square"/>
   </g>
   <g id="line2d_19">
    <path d="M 355.2 187.407964 
" clip-path="url(#p37235c449b)" style="fill: none; stroke: #999999; stroke-width: 1.2; stroke-linecap: square"/>
    <g clip-path="url(#p37235c449b)">
     <use xlink:href="#m89a85790ca" x="355.2" y="187.407964" style="fill: #ffffff; stroke: #ffffff; stroke-width: 0.9"/>
    </g>
   </g>
   <g id="line2d_20">
    <path d="M 57.6 207.323215 
L 414.72 207.323215 
" clip-path="url(#p37235c449b)" style="fill: none; stroke-dasharray: 4.44,1.92; stroke-dashoffset: 0; stroke: #000000; stroke-width: 1.2"/>
   </g>
   <g id="patch_3">
    <path d="M 57.6 307.584 
L 57.6 41.472 
" style="fill: none; stroke: #000000; stroke-linejoin: miter; stroke-linecap: square"/>
   </g>
   <g id="patch_4">
    <path d="M 57.6 307.584 
L 414.72 307.584 
" style="fill: none; stroke: #000000; stroke-linejoin: miter; stroke-linecap: square"/>
   </g>
   <g id="PathCollection_1">
    <defs>
     <path id="C0_0_ff268a6bdd" d="M 0 2.5 
C 0.663008 2.5 1.29895 2.236584 1.767767 1.767767 
C 2.236584 1.29895 2.5 0.663008 2.5 -0 
C 2.5 -0.663008 2.236584 -1.29895 1.767767 -1.767767 
C 1.29895 -2.236584 0.663008 -2.5 0 -2.5 
C -0.663008 -2.5 -1.29895 -2.236584 -1.767767 -1.767767 
C -2.236584 -1.29895 -2.5 -0.663008 -2.5 0 
C -2.5 0.663008 -2.236584 1.29895 -1.767767 1.767767 
C -1.29895 2.236584 -0.663008 2.5 0 2.5 
z
"/>
    </defs>
    <g clip-path="url(#p37235c449b)">
     <use xlink:href="#C0_0_ff268a6bdd" x="122.819103" y="234.507816" style="fill: #fcbba1"/>
    </g>
    <g clip-path="url(#p37235c449b)">
     <use xlink:href="#C0_0_ff268a6bdd" x="120.830584" y="250.391067" style="fill: #fcbba1"/>
    </g>
    <g clip-path="url(#p37235c449b)">
     <use xlink:href="#C0_0_ff268a6bdd" x="126.817553" y="206.836035" style="fill: #fcbba1"/>
    </g>
    <g clip-path="url(#p37235c449b)">
     <use xlink:href="#C0_0_ff268a6bdd" x="124.530527" y="268.042494" style="fill: #fcbba1"/>
    </g>
    <g clip-path="url(#p37235c449b)">
     <use xlink:href="#C0_0_ff268a6bdd" x="118.680761" y="241.5845" style="fill: #fcbba1"/>
    </g>
    <g clip-path="url(#p37235c449b)">
     <use xlink:href="#C0_0_ff268a6bdd" x="120.788638" y="162.247678" style="fill: #fcbba1"/>
    </g>
    <g clip-path="url(#p37235c449b)">
     <use xlink:href="#C0_0_ff268a6bdd" x="124.788034" y="260.992186" style="fill: #fcbba1"/>
    </g>
    <g clip-path="url(#p37235c449b)">
     <use xlink:href="#C0_0_ff268a6bdd" x="113.088359" y="208.408868" style="fill: #fcbba1"/>
    </g>
    <g clip-path="url(#p37235c449b)">
     <use xlink:href="#C0_0_ff268a6bdd" x="116.459825" y="219.976685" style="fill: #fcbba1"/>
    </g>
   </g>
   <g id="PathCollection_2">
    <defs>
     <path id="C1_0_7bb28ddf52" d="M 0 2.5 
C 0.663008 2.5 1.29895 2.236584 1.767767 1.767767 
C 2.236584 1.29895 2.5 0.663008 2.5 -0 
C 2.5 -0.663008 2.236584 -1.29895 1.767767 -1.767767 
C 1.29895 -2.236584 0.663008 -2.5 0 -2.5 
C -0.663008 -2.5 -1.29895 -2.236584 -1.767767 -1.767767 
C -2.236584 -1.29895 -2.5 -0.663008 -2.5 0 
C -2.5 0.663008 -2.236584 1.29895 -1.767767 1.767767 
C -1.29895 2.236584 -0.663008 2.5 0 2.5 
z
"/>
    </defs>
    <g clip-path="url(#p37235c449b)">
     <use xlink:href="#C1_0_7bb28ddf52" x="231.279687" y="247.065199" style="fill: #fb694a"/>
    </g>
    <g clip-path="url(#p37235c449b)">
     <use xlink:href="#C1_0_7bb28ddf52" x="228.016826" y="207.895707" style="fill: #fb694a"/>
    </g>
    <g clip-path="url(#p37235c449b)">
     <use xlink:href="#C1_0_7bb28ddf52" x="227.777303" y="119.721172" style="fill: #fb694a"/>
    </g>
    <g clip-path="url(#p37235c449b)">
     <use xlink:href="#C1_0_7bb28ddf52" x="235.518284" y="235.50614" style="fill: #fb694a"/>
    </g>
    <g clip-path="url(#p37235c449b)">
     <use xlink:href="#C1_0_7bb28ddf52" x="227.493896" y="253.946602" style="fill: #fb694a"/>
    </g>
    <g clip-path="url(#p37235c449b)">
     <use xlink:href="#C1_0_7bb28ddf52" x="232.629382" y="198.683032" style="fill: #fb694a"/>
    </g>
    <g clip-path="url(#p37235c449b)">
     <use xlink:href="#C1_0_7bb28ddf52" x="232.974555" y="216.98395" style="fill: #fb694a"/>
    </g>
    <g clip-path="url(#p37235c449b)">
     <use xlink:href="#C1_0_7bb28ddf52" x="243.290055" y="195.959508" style="fill: #fb694a"/>
    </g>
    <g clip-path="url(#p37235c449b)">
     <use xlink:href="#C1_0_7bb28ddf52" x="247.638992" y="135.462548" style="fill: #fb694a"/>
    </g>
    <g clip-path="url(#p37235c449b)">
     <use xlink:href="#C1_0_7bb28ddf52" x="238.644784" y="208.737616" style="fill: #fb694a"/>
    </g>
    <g clip-path="url(#p37235c449b)">
     <use xlink:href="#C1_0_7bb28ddf52" x="245.333727" y="242.788369" style="fill: #fb694a"/>
    </g>
    <g clip-path="url(#p37235c449b)">
     <use xlink:href="#C1_0_7bb28ddf52" x="247.582224" y="152.11334" style="fill: #fb694a"/>
    </g>
    <g clip-path="url(#p37235c449b)">
     <use xlink:href="#C1_0_7bb28ddf52" x="234.425134" y="272.705964" style="fill: #fb694a"/>
    </g>
    <g clip-path="url(#p37235c449b)">
     <use xlink:href="#C1_0_7bb28ddf52" x="243.967808" y="224.051646" style="fill: #fb694a"/>
    </g>
    <g clip-path="url(#p37235c449b)">
     <use xlink:href="#C1_0_7bb28ddf52" x="232.075908" y="262.244098" style="fill: #fb694a"/>
    </g>
    <g clip-path="url(#p37235c449b)">
     <use xlink:href="#C1_0_7bb28ddf52" x="241.980752" y="215.417178" style="fill: #fb694a"/>
    </g>
    <g clip-path="url(#p37235c449b)">
     <use xlink:href="#C1_0_7bb28ddf52" x="228.268979" y="237.559911" style="fill: #fb694a"/>
    </g>
    <g clip-path="url(#p37235c449b)">
     <use xlink:href="#C1_0_7bb28ddf52" x="235.467284" y="174.280829" style="fill: #fb694a"/>
    </g>
    <g clip-path="url(#p37235c449b)">
     <use xlink:href="#C1_0_7bb28ddf52" x="240.180793" y="244.63515" style="fill: #fb694a"/>
    </g>
    <g clip-path="url(#p37235c449b)">
     <use xlink:href="#C1_0_7bb28ddf52" x="226.621707" y="229.406966" style="fill: #fb694a"/>
    </g>
   </g>
   <g id="PathCollection_3">
    <defs>
     <path id="C2_0_9f6a30e94f" d="M 0 2.5 
C 0.663008 2.5 1.29895 2.236584 1.767767 1.767767 
C 2.236584 1.29895 2.5 0.663008 2.5 -0 
C 2.5 -0.663008 2.236584 -1.29895 1.767767 -1.767767 
C 1.29895 -2.236584 0.663008 -2.5 0 -2.5 
C -0.663008 -2.5 -1.29895 -2.236584 -1.767767 -1.767767 
C -2.236584 -1.29895 -2.5 -0.663008 -2.5 0 
C -2.5 0.663008 -2.236584 1.29895 -1.767767 1.767767 
C -1.29895 2.236584 -0.663008 2.5 0 2.5 
z
"/>
    </defs>
    <g clip-path="url(#p37235c449b)">
     <use xlink:href="#C2_0_9f6a30e94f" x="350.598252" y="238.048356" style="fill: #ca181d"/>
    </g>
    <g clip-path="url(#p37235c449b)">
     <use xlink:href="#C2_0_9f6a30e94f" x="362.730409" y="200.423168" style="fill: #ca181d"/>
    </g>
    <g clip-path="url(#p37235c449b)">
     <use xlink:href="#C2_0_9f6a30e94f" x="345.138642" y="187.407964" style="fill: #ca181d"/>
    </g>
    <g clip-path="url(#p37235c449b)">
     <use xlink:href="#C2_0_9f6a30e94f" x="347.632485" y="194.584685" style="fill: #ca181d"/>
    </g>
    <g clip-path="url(#p37235c449b)">
     <use xlink:href="#C2_0_9f6a30e94f" x="363.941761" y="177.565063" style="fill: #ca181d"/>
    </g>
    <g clip-path="url(#p37235c449b)">
     <use xlink:href="#C2_0_9f6a30e94f" x="349.75926" y="186.578941" style="fill: #ca181d"/>
    </g>
    <g clip-path="url(#p37235c449b)">
     <use xlink:href="#C2_0_9f6a30e94f" x="359.30138" y="196.23425" style="fill: #ca181d"/>
    </g>
    <g clip-path="url(#p37235c449b)">
     <use xlink:href="#C2_0_9f6a30e94f" x="361.614689" y="153.675076" style="fill: #ca181d"/>
    </g>
    <g clip-path="url(#p37235c449b)">
     <use xlink:href="#C2_0_9f6a30e94f" x="347.110654" y="136.222058" style="fill: #ca181d"/>
    </g>
    <g clip-path="url(#p37235c449b)">
     <use xlink:href="#C2_0_9f6a30e94f" x="348.014696" y="79.928751" style="fill: #ca181d"/>
    </g>
    <g clip-path="url(#p37235c449b)">
     <use xlink:href="#C2_0_9f6a30e94f" x="366.957831" y="214.108038" style="fill: #ca181d"/>
    </g>
   </g>
   <g id="text_13">
    <text style="font: 9.6px 'DejaVu Sans', 'Bitstream Vera Sans', 'Computer Modern Sans Serif', 'Lucida Grande', 'Verdana', 'Geneva', 'Lucid', 'Arial', 'Helvetica', 'Avant Garde', sans-serif" transform="translate(75.456 70.6389)">r = 0.48</text>
    <text style="font: 9.6px 'DejaVu Sans', 'Bitstream Vera Sans', 'Computer Modern Sans Serif', 'Lucida Grande', 'Verdana', 'Geneva', 'Lucid', 'Arial', 'Helvetica', 'Avant Garde', sans-serif" transform="translate(75.456 81.3888)">p = 1.76e-03</text>
   </g>
  </g>
 </g>
 <defs>
  <clipPath id="p37235c449b">
   <rect x="57.6" y="41.472" width="357.12" height="266.112"/>
  </clipPath>
 </defs>
</svg>
