<?xml version="1.0" encoding="utf-8" standalone="no"?>
<!DOCTYPE svg PUBLIC "-//W3C//DTD SVG 1.1//EN"
  "http://www.w3.org/Graphics/SVG/1.1/DTD/svg11.dtd">
<svg xmlns:xlink="http://www.w3.org/1999/xlink" width="460.8pt" height="345.6pt" viewBox="0 0 460.8 345.6" xmlns="http://www.w3.org/2000/svg" version="1.1">
 <metadata>
  <rdf:RDF xmlns:dc="http://purl.org/dc/elements/1.1/" xmlns:cc="http://creativecommons.org/ns#" xmlns:rdf="http://www.w3.org/1999/02/22-rdf-syntax-ns#">
   <cc:Work>
    <dc:type rdf:resource="http://purl.org/dc/dcmitype/StillImage"/>
    <dc:date>2024-10-17T13:32:22.960976</dc:date>
    <dc:format>image/svg+xml</dc:format>
    <dc:creator>
     <cc:Agent>
      <dc:title>Matplotlib v3.7.1, https://matplotlib.org/</dc:title>
     </cc:Agent>
    </dc:creator>
   </cc:Work>
  </rdf:RDF>
 </metadata>
 <defs>
  <style type="text/css">*{stroke-linejoin: round; stroke-linecap: butt}</style>
 </defs>
 <g id="figure_1">
  <g id="patch_1">
   <path d="M 0 345.6 
L 460.8 345.6 
L 460.8 0 
L 0 0 
z
" style="fill: #ffffff"/>
  </g>
  <g id="axes_1">
   <g id="patch_2">
    <path d="M 57.6 307.584 
L 414.72 307.584 
L 414.72 41.472 
L 57.6 41.472 
z
" style="fill: #ffffff"/>
   </g>
   <g id="PolyCollection_1">
    <defs>
     <path id="m93b27567af" d="M 94.729531 -50.112 
L 91.894469 -50.112 
L 91.590848 -51.615693 
L 91.248104 -53.119386 
L 90.867106 -54.623078 
L 90.449988 -56.126771 
L 90.000118 -57.630464 
L 89.521975 -59.134157 
L 89.020919 -60.637849 
L 88.502872 -62.141542 
L 87.973924 -63.645235 
L 87.439898 -65.148928 
L 86.905915 -66.65262 
L 86.375994 -68.156313 
L 85.852738 -69.660006 
L 85.337125 -71.163699 
L 84.828446 -72.667391 
L 84.324391 -74.171084 
L 83.82127 -75.674777 
L 83.314367 -77.17847 
L 82.79838 -78.682163 
L 82.267903 -80.185855 
L 81.717914 -81.689548 
L 81.144205 -83.193241 
L 80.543731 -84.696934 
L 79.914836 -86.200626 
L 79.257344 -87.704319 
L 78.572514 -89.208012 
L 77.862866 -90.711705 
L 77.131916 -92.215397 
L 76.383836 -93.71909 
L 75.623101 -95.222783 
L 74.854151 -96.726476 
L 74.081122 -98.230168 
L 73.307666 -99.733861 
L 72.536907 -101.237554 
L 71.771524 -102.741247 
L 71.013979 -104.244939 
L 70.266861 -105.748632 
L 69.533319 -107.252325 
L 68.817537 -108.756018 
L 68.125198 -110.259711 
L 67.463859 -111.763403 
L 66.843201 -113.267096 
L 66.275065 -114.770789 
L 65.773264 -116.274482 
L 65.353126 -117.778174 
L 65.030789 -119.281867 
L 64.822273 -120.78556 
L 64.7424 -122.289253 
L 64.803639 -123.792945 
L 65.014993 -125.296638 
L 65.381027 -126.800331 
L 65.90114 -128.304024 
L 66.569178 -129.807716 
L 67.373433 -131.311409 
L 68.29704 -132.815102 
L 69.318774 -134.318795 
L 70.414153 -135.822488 
L 71.556782 -137.32618 
L 72.719803 -138.829873 
L 73.877337 -140.333566 
L 75.005799 -141.837259 
L 76.084975 -143.340951 
L 77.09881 -144.844644 
L 78.035837 -146.348337 
L 78.889281 -147.85203 
L 79.656833 -149.355722 
L 80.340176 -150.859415 
L 80.944311 -152.363108 
L 81.476791 -153.866801 
L 81.946902 -155.370493 
L 82.364899 -156.874186 
L 82.741311 -158.377879 
L 83.086372 -159.881572 
L 83.409585 -161.385264 
L 83.71942 -162.888957 
L 84.023127 -164.39265 
L 84.326663 -165.896343 
L 84.634687 -167.400036 
L 84.950624 -168.903728 
L 85.276759 -170.407421 
L 85.614359 -171.911114 
L 85.963803 -173.414807 
L 86.324718 -174.918499 
L 86.696103 -176.422192 
L 87.076452 -177.925885 
L 87.463857 -179.429578 
L 87.856104 -180.93327 
L 88.250744 -182.436963 
L 88.645154 -183.940656 
L 89.036592 -185.444349 
L 89.42223 -186.948041 
L 89.799208 -188.451734 
L 90.164673 -189.955427 
L 90.515843 -191.45912 
L 90.850079 -192.962813 
L 91.164965 -194.466505 
L 91.458401 -195.970198 
L 91.728685 -197.473891 
L 91.974596 -198.977584 
L 94.649404 -198.977584 
L 94.649404 -198.977584 
L 94.895315 -197.473891 
L 95.165599 -195.970198 
L 95.459035 -194.466505 
L 95.773921 -192.962813 
L 96.108157 -191.45912 
L 96.459327 -189.955427 
L 96.824792 -188.451734 
L 97.20177 -186.948041 
L 97.587408 -185.444349 
L 97.978846 -183.940656 
L 98.373256 -182.436963 
L 98.767896 -180.93327 
L 99.160143 -179.429578 
L 99.547548 -177.925885 
L 99.927897 -176.422192 
L 100.299282 -174.918499 
L 100.660197 -173.414807 
L 101.009641 -171.911114 
L 101.347241 -170.407421 
L 101.673376 -168.903728 
L 101.989313 -167.400036 
L 102.297337 -165.896343 
L 102.600873 -164.39265 
L 102.90458 -162.888957 
L 103.214415 -161.385264 
L 103.537628 -159.881572 
L 103.882689 -158.377879 
L 104.259101 -156.874186 
L 104.677098 -155.370493 
L 105.147209 -153.866801 
L 105.679689 -152.363108 
L 106.283824 -150.859415 
L 106.967167 -149.355722 
L 107.734719 -147.85203 
L 108.588163 -146.348337 
L 109.52519 -144.844644 
L 110.539025 -143.340951 
L 111.618201 -141.837259 
L 112.746663 -140.333566 
L 113.904197 -138.829873 
L 115.067218 -137.32618 
L 116.209847 -135.822488 
L 117.305226 -134.318795 
L 118.32696 -132.815102 
L 119.250567 -131.311409 
L 120.054822 -129.807716 
L 120.72286 -128.304024 
L 121.242973 -126.800331 
L 121.609007 -125.296638 
L 121.820361 -123.792945 
L 121.8816 -122.289253 
L 121.801727 -120.78556 
L 121.593211 -119.281867 
L 121.270874 -117.778174 
L 120.850736 -116.274482 
L 120.348935 -114.770789 
L 119.780799 -113.267096 
L 119.160141 -111.763403 
L 118.498802 -110.259711 
L 117.806463 -108.756018 
L 117.090681 -107.252325 
L 116.357139 -105.748632 
L 115.610021 -104.244939 
L 114.852476 -102.741247 
L 114.087093 -101.237554 
L 113.316334 -99.733861 
L 112.542878 -98.230168 
L 111.769849 -96.726476 
L 111.000899 -95.222783 
L 110.240164 -93.71909 
L 109.492084 -92.215397 
L 108.761134 -90.711705 
L 108.051486 -89.208012 
L 107.366656 -87.704319 
L 106.709164 -86.200626 
L 106.080269 -84.696934 
L 105.479795 -83.193241 
L 104.906086 -81.689548 
L 104.356097 -80.185855 
L 103.82562 -78.682163 
L 103.309633 -77.17847 
L 102.80273 -75.674777 
L 102.299609 -74.171084 
L 101.795554 -72.667391 
L 101.286875 -71.163699 
L 100.771262 -69.660006 
L 100.248006 -68.156313 
L 99.718085 -66.65262 
L 99.184102 -65.148928 
L 98.650076 -63.645235 
L 98.121128 -62.141542 
L 97.603081 -60.637849 
L 97.102025 -59.134157 
L 96.623882 -57.630464 
L 96.174012 -56.126771 
L 95.756894 -54.623078 
L 95.375896 -53.119386 
L 95.033152 -51.615693 
L 94.729531 -50.112 
z
" style="stroke: #3a3a3a"/>
    </defs>
    <g clip-path="url(#p9c8f18aced)">
     <use xlink:href="#m93b27567af" x="0" y="345.6" style="fill: #f6d7ca; stroke: #3a3a3a"/>
    </g>
   </g>
   <g id="PolyCollection_2">
    <defs>
     <path id="m70672bcdca" d="M 165.305504 -64.375881 
L 164.166496 -64.375881 
L 163.990319 -66.134776 
L 163.784409 -67.893672 
L 163.550037 -69.652567 
L 163.288947 -71.411462 
L 163.002407 -73.170358 
L 162.690115 -74.929253 
L 162.349251 -76.688149 
L 161.973931 -78.447044 
L 161.555319 -80.205939 
L 161.082471 -81.964835 
L 160.54384 -83.72373 
L 159.929168 -85.482626 
L 159.231403 -87.241521 
L 158.448229 -89.000416 
L 157.582911 -90.759312 
L 156.644259 -92.518207 
L 155.645734 -94.277103 
L 154.603866 -96.035998 
L 153.536249 -97.794893 
L 152.459447 -99.553789 
L 151.387138 -101.312684 
L 150.328781 -103.07158 
L 149.28903 -104.830475 
L 148.268008 -106.58937 
L 147.262455 -108.348266 
L 146.267563 -110.107161 
L 145.27917 -111.866057 
L 144.295851 -113.624952 
L 143.32041 -115.383847 
L 142.360369 -117.142743 
L 141.427338 -118.901638 
L 140.535409 -120.660534 
L 139.699077 -122.419429 
L 138.931333 -124.178324 
L 138.242528 -125.93722 
L 137.640363 -127.696115 
L 137.130921 -129.455011 
L 136.720277 -131.213906 
L 136.415975 -132.972801 
L 136.227652 -134.731697 
L 136.1664 -136.490592 
L 136.242892 -138.249487 
L 136.464744 -140.008383 
L 136.83389 -141.767278 
L 137.344758 -143.526174 
L 137.983813 -145.285069 
L 138.730591 -147.043964 
L 139.559964 -148.80286 
L 140.445027 -150.561755 
L 141.359933 -152.320651 
L 142.282099 -154.079546 
L 143.193499 -155.838441 
L 144.081039 -157.597337 
L 144.936304 -159.356232 
L 145.755026 -161.115128 
L 146.536644 -162.874023 
L 147.2841 -164.632918 
L 148.003829 -166.391814 
L 148.705687 -168.150709 
L 149.40247 -169.909605 
L 150.108749 -171.6685 
L 150.838915 -173.427395 
L 151.604639 -175.186291 
L 152.412193 -176.945186 
L 153.260236 -178.704082 
L 154.138699 -180.462977 
L 155.029157 -182.221872 
L 155.906811 -183.980768 
L 156.743787 -185.739663 
L 157.513186 -187.498559 
L 158.19309 -189.257454 
L 158.769776 -191.016349 
L 159.239535 -192.775245 
L 159.608789 -194.53414 
L 159.892576 -196.293036 
L 160.111774 -198.051931 
L 160.289669 -199.810826 
L 160.44855 -201.569722 
L 160.606958 -203.328617 
L 160.777965 -205.087512 
L 160.968653 -206.846408 
L 161.180615 -208.605303 
L 161.411181 -210.364199 
L 161.654945 -212.123094 
L 161.905248 -213.881989 
L 162.155378 -215.640885 
L 162.399416 -217.39978 
L 162.632731 -219.158676 
L 162.85221 -220.917571 
L 163.056285 -222.676466 
L 163.244784 -224.435362 
L 163.418635 -226.194257 
L 163.579429 -227.953153 
L 163.728922 -229.712048 
L 163.868557 -231.470943 
L 163.999116 -233.229839 
L 164.120588 -234.988734 
L 164.232268 -236.74763 
L 164.333039 -238.506525 
L 165.138961 -238.506525 
L 165.138961 -238.506525 
L 165.239732 -236.74763 
L 165.351412 -234.988734 
L 165.472884 -233.229839 
L 165.603443 -231.470943 
L 165.743078 -229.712048 
L 165.892571 -227.953153 
L 166.053365 -226.194257 
L 166.227216 -224.435362 
L 166.415715 -222.676466 
L 166.61979 -220.917571 
L 166.839269 -219.158676 
L 167.072584 -217.39978 
L 167.316622 -215.640885 
L 167.566752 -213.881989 
L 167.817055 -212.123094 
L 168.060819 -210.364199 
L 168.291385 -208.605303 
L 168.503347 -206.846408 
L 168.694035 -205.087512 
L 168.865042 -203.328617 
L 169.02345 -201.569722 
L 169.182331 -199.810826 
L 169.360226 -198.051931 
L 169.579424 -196.293036 
L 169.863211 -194.53414 
L 170.232465 -192.775245 
L 170.702224 -191.016349 
L 171.27891 -189.257454 
L 171.958814 -187.498559 
L 172.728213 -185.739663 
L 173.565189 -183.980768 
L 174.442843 -182.221872 
L 175.333301 -180.462977 
L 176.211764 -178.704082 
L 177.059807 -176.945186 
L 177.867361 -175.186291 
L 178.633085 -173.427395 
L 179.363251 -171.6685 
L 180.06953 -169.909605 
L 180.766313 -168.150709 
L 181.468171 -166.391814 
L 182.1879 -164.632918 
L 182.935356 -162.874023 
L 183.716974 -161.115128 
L 184.535696 -159.356232 
L 185.390961 -157.597337 
L 186.278501 -155.838441 
L 187.189901 -154.079546 
L 188.112067 -152.320651 
L 189.026973 -150.561755 
L 189.912036 -148.80286 
L 190.741409 -147.043964 
L 191.488187 -145.285069 
L 192.127242 -143.526174 
L 192.63811 -141.767278 
L 193.007256 -140.008383 
L 193.229108 -138.249487 
L 193.3056 -136.490592 
L 193.244348 -134.731697 
L 193.056025 -132.972801 
L 192.751723 -131.213906 
L 192.341079 -129.455011 
L 191.831637 -127.696115 
L 191.229472 -125.93722 
L 190.540667 -124.178324 
L 189.772923 -122.419429 
L 188.936591 -120.660534 
L 188.044662 -118.901638 
L 187.111631 -117.142743 
L 186.15159 -115.383847 
L 185.176149 -113.624952 
L 184.19283 -111.866057 
L 183.204437 -110.107161 
L 182.209545 -108.348266 
L 181.203992 -106.58937 
L 180.18297 -104.830475 
L 179.143219 -103.07158 
L 178.084862 -101.312684 
L 177.012553 -99.553789 
L 175.935751 -97.794893 
L 174.868134 -96.035998 
L 173.826266 -94.277103 
L 172.827741 -92.518207 
L 171.889089 -90.759312 
L 171.023771 -89.000416 
L 170.240597 -87.241521 
L 169.542832 -85.482626 
L 168.92816 -83.72373 
L 168.389529 -81.964835 
L 167.916681 -80.205939 
L 167.498069 -78.447044 
L 167.122749 -76.688149 
L 166.781885 -74.929253 
L 166.469593 -73.170358 
L 166.183053 -71.411462 
L 165.921963 -69.652567 
L 165.687591 -67.893672 
L 165.481681 -66.134776 
L 165.305504 -64.375881 
z
" style="stroke: #3a3a3a"/>
    </defs>
    <g clip-path="url(#p9c8f18aced)">
     <use xlink:href="#m70672bcdca" x="0" y="345.6" style="fill: #eda791; stroke: #3a3a3a"/>
    </g>
   </g>
   <g id="PolyCollection_3">
    <defs>
     <path id="m507406e6da" d="M 236.432588 -61.966629 
L 235.887412 -61.966629 
L 235.7738 -64.012715 
L 235.645272 -66.0588 
L 235.513136 -68.104885 
L 235.390528 -70.150971 
L 235.288132 -72.197056 
L 235.209739 -74.243141 
L 235.149522 -76.289227 
L 235.092499 -78.335312 
L 235.018228 -80.381397 
L 234.90622 -82.427483 
L 234.74062 -84.473568 
L 234.512037 -86.519653 
L 234.21582 -88.565739 
L 233.847952 -90.611824 
L 233.400945 -92.657909 
L 232.862165 -94.703995 
L 232.215733 -96.75008 
L 231.44717 -98.796165 
L 230.548506 -100.842251 
L 229.521387 -102.888336 
L 228.377045 -104.934421 
L 227.133931 -106.980507 
L 225.815042 -109.026592 
L 224.446734 -111.072677 
L 223.059284 -113.118763 
L 221.687871 -115.164848 
L 220.372009 -117.210933 
L 219.152123 -119.257019 
L 218.063367 -121.303104 
L 217.128127 -123.349189 
L 216.349381 -125.395275 
L 215.707042 -127.44136 
L 215.158852 -129.487445 
L 214.646375 -131.533531 
L 214.105464 -133.579616 
L 213.479365 -135.625701 
L 212.731873 -137.671786 
L 211.857768 -139.717872 
L 210.888295 -141.763957 
L 209.890228 -143.810042 
L 208.958074 -145.856128 
L 208.199876 -147.902213 
L 207.718337 -149.948298 
L 207.5904 -151.994384 
L 207.849831 -154.040469 
L 208.477868 -156.086554 
L 209.40578 -158.13264 
L 210.530058 -160.178725 
L 211.736775 -162.22481 
L 212.928012 -164.270896 
L 214.042015 -166.316981 
L 215.060888 -168.363066 
L 216.00443 -170.409152 
L 216.91427 -172.455237 
L 217.83568 -174.501322 
L 218.803935 -176.547408 
L 219.838259 -178.593493 
L 220.941992 -180.639578 
L 222.105358 -182.685664 
L 223.308035 -184.731749 
L 224.52125 -186.777834 
L 225.710854 -188.82392 
L 226.842595 -190.870005 
L 227.888837 -192.91609 
L 228.834198 -194.962176 
L 229.677381 -197.008261 
L 230.428121 -199.054346 
L 231.10062 -201.100432 
L 231.706615 -203.146517 
L 232.251246 -205.192602 
L 232.733247 -207.238688 
L 233.14867 -209.284773 
L 233.495658 -211.330858 
L 233.777646 -213.376944 
L 234.003617 -215.423029 
L 234.185844 -217.469114 
L 234.336749 -219.5152 
L 234.466598 -221.561285 
L 234.582829 -223.60737 
L 234.690718 -225.653456 
L 234.794404 -227.699541 
L 234.897412 -229.745626 
L 235.002333 -231.791712 
L 235.109994 -233.837797 
L 235.218741 -235.883882 
L 235.324412 -237.929968 
L 235.421261 -239.976053 
L 235.503661 -242.022138 
L 235.568077 -244.068224 
L 235.614578 -246.114309 
L 235.647236 -248.160394 
L 235.673131 -250.20648 
L 235.700242 -252.252565 
L 235.735005 -254.29865 
L 235.780475 -256.344736 
L 235.835735 -258.390821 
L 235.896675 -260.436906 
L 235.957643 -262.482992 
L 236.013274 -264.529077 
L 236.306726 -264.529077 
L 236.306726 -264.529077 
L 236.362357 -262.482992 
L 236.423325 -260.436906 
L 236.484265 -258.390821 
L 236.539525 -256.344736 
L 236.584995 -254.29865 
L 236.619758 -252.252565 
L 236.646869 -250.20648 
L 236.672764 -248.160394 
L 236.705422 -246.114309 
L 236.751923 -244.068224 
L 236.816339 -242.022138 
L 236.898739 -239.976053 
L 236.995588 -237.929968 
L 237.101259 -235.883882 
L 237.210006 -233.837797 
L 237.317667 -231.791712 
L 237.422588 -229.745626 
L 237.525596 -227.699541 
L 237.629282 -225.653456 
L 237.737171 -223.60737 
L 237.853402 -221.561285 
L 237.983251 -219.5152 
L 238.134156 -217.469114 
L 238.316383 -215.423029 
L 238.542354 -213.376944 
L 238.824342 -211.330858 
L 239.17133 -209.284773 
L 239.586753 -207.238688 
L 240.068754 -205.192602 
L 240.613385 -203.146517 
L 241.21938 -201.100432 
L 241.891879 -199.054346 
L 242.642619 -197.008261 
L 243.485802 -194.962176 
L 244.431163 -192.91609 
L 245.477405 -190.870005 
L 246.609146 -188.82392 
L 247.79875 -186.777834 
L 249.011965 -184.731749 
L 250.214642 -182.685664 
L 251.378008 -180.639578 
L 252.481741 -178.593493 
L 253.516065 -176.547408 
L 254.48432 -174.501322 
L 255.40573 -172.455237 
L 256.31557 -170.409152 
L 257.259112 -168.363066 
L 258.277985 -166.316981 
L 259.391988 -164.270896 
L 260.583225 -162.22481 
L 261.789942 -160.178725 
L 262.91422 -158.13264 
L 263.842132 -156.086554 
L 264.470169 -154.040469 
L 264.7296 -151.994384 
L 264.601663 -149.948298 
L 264.120124 -147.902213 
L 263.361926 -145.856128 
L 262.429772 -143.810042 
L 261.431705 -141.763957 
L 260.462232 -139.717872 
L 259.588127 -137.671786 
L 258.840635 -135.625701 
L 258.214536 -133.579616 
L 257.673625 -131.533531 
L 257.161148 -129.487445 
L 256.612958 -127.44136 
L 255.970619 -125.395275 
L 255.191873 -123.349189 
L 254.256633 -121.303104 
L 253.167877 -119.257019 
L 251.947991 -117.210933 
L 250.632129 -115.164848 
L 249.260716 -113.118763 
L 247.873266 -111.072677 
L 246.504958 -109.026592 
L 245.186069 -106.980507 
L 243.942955 -104.934421 
L 242.798613 -102.888336 
L 241.771494 -100.842251 
L 240.87283 -98.796165 
L 240.104267 -96.75008 
L 239.457835 -94.703995 
L 238.919055 -92.657909 
L 238.472048 -90.611824 
L 238.10418 -88.565739 
L 237.807963 -86.519653 
L 237.57938 -84.473568 
L 237.41378 -82.427483 
L 237.301772 -80.381397 
L 237.227501 -78.335312 
L 237.170478 -76.289227 
L 237.110261 -74.243141 
L 237.031868 -72.197056 
L 236.929472 -70.150971 
L 236.806864 -68.104885 
L 236.674728 -66.0588 
L 236.5462 -64.012715 
L 236.432588 -61.966629 
z
" style="stroke: #3a3a3a"/>
    </defs>
    <g clip-path="url(#p9c8f18aced)">
     <use xlink:href="#m507406e6da" x="0" y="345.6" style="fill: #e57760; stroke: #3a3a3a"/>
    </g>
   </g>
   <g id="PolyCollection_4">
    <defs>
     <path id="mc0bb2235f2" d="M 308.550387 -97.309191 
L 306.617613 -97.309191 
L 306.359034 -98.918901 
L 306.070788 -100.52861 
L 305.759528 -102.13832 
L 305.433225 -103.748029 
L 305.10008 -105.357738 
L 304.767353 -106.967448 
L 304.440318 -108.577157 
L 304.12152 -110.186867 
L 303.810473 -111.796576 
L 303.503805 -113.406286 
L 303.19579 -115.015995 
L 302.879139 -116.625705 
L 302.545901 -118.235414 
L 302.188338 -119.845124 
L 301.799648 -121.454833 
L 301.374469 -123.064543 
L 300.909121 -124.674252 
L 300.401585 -126.283962 
L 299.851259 -127.893671 
L 299.258596 -129.503381 
L 298.624713 -131.11309 
L 297.951115 -132.722799 
L 297.239618 -134.332509 
L 296.492492 -135.942218 
L 295.712778 -137.551928 
L 294.904677 -139.161637 
L 294.073837 -140.771347 
L 293.227436 -142.381056 
L 292.373952 -143.990766 
L 291.522641 -145.600475 
L 290.682747 -147.210185 
L 289.862576 -148.819894 
L 289.068511 -150.429604 
L 288.304117 -152.039313 
L 287.569424 -153.649023 
L 286.860575 -155.258732 
L 286.169981 -156.868442 
L 285.487182 -158.478151 
L 284.800531 -160.087861 
L 284.099679 -161.69757 
L 283.378618 -163.307279 
L 282.638796 -164.916989 
L 281.891603 -166.526698 
L 281.159501 -168.136408 
L 280.475192 -169.746117 
L 279.878626 -171.355827 
L 279.412105 -172.965536 
L 279.114314 -174.575246 
L 279.0144 -176.184955 
L 279.12736 -177.794665 
L 279.451706 -179.404374 
L 279.969906 -181.014084 
L 280.651424 -182.623793 
L 281.457669 -184.233503 
L 282.347746 -185.843212 
L 283.283862 -187.452922 
L 284.235457 -189.062631 
L 285.181487 -190.67234 
L 286.110769 -192.28205 
L 287.020665 -193.891759 
L 287.914626 -195.501469 
L 288.799236 -197.111178 
L 289.681327 -198.720888 
L 290.56563 -200.330597 
L 291.453248 -201.940307 
L 292.341059 -203.550016 
L 293.222037 -205.159726 
L 294.086315 -206.769435 
L 294.922776 -208.379145 
L 295.720864 -209.988854 
L 296.472337 -211.598564 
L 297.172647 -213.208273 
L 297.82175 -214.817983 
L 298.424162 -216.427692 
L 298.98826 -218.037402 
L 299.524904 -219.647111 
L 300.045631 -221.25682 
L 300.560736 -222.86653 
L 301.077592 -224.476239 
L 301.599532 -226.085949 
L 302.125479 -227.695658 
L 302.650376 -229.305368 
L 303.166264 -230.915077 
L 303.663784 -232.524787 
L 304.133765 -234.134496 
L 304.568606 -235.744206 
L 304.96323 -237.353915 
L 305.315499 -238.963625 
L 305.626095 -240.573334 
L 305.897975 -242.183044 
L 306.135567 -243.792753 
L 306.34389 -245.402463 
L 306.527766 -247.012172 
L 306.691246 -248.621881 
L 306.837313 -250.231591 
L 306.967849 -251.8413 
L 307.083831 -253.45101 
L 307.185649 -255.060719 
L 307.273472 -256.670429 
L 307.894528 -256.670429 
L 307.894528 -256.670429 
L 307.982351 -255.060719 
L 308.084169 -253.45101 
L 308.200151 -251.8413 
L 308.330687 -250.231591 
L 308.476754 -248.621881 
L 308.640234 -247.012172 
L 308.82411 -245.402463 
L 309.032433 -243.792753 
L 309.270025 -242.183044 
L 309.541905 -240.573334 
L 309.852501 -238.963625 
L 310.20477 -237.353915 
L 310.599394 -235.744206 
L 311.034235 -234.134496 
L 311.504216 -232.524787 
L 312.001736 -230.915077 
L 312.517624 -229.305368 
L 313.042521 -227.695658 
L 313.568468 -226.085949 
L 314.090408 -224.476239 
L 314.607264 -222.86653 
L 315.122369 -221.25682 
L 315.643096 -219.647111 
L 316.17974 -218.037402 
L 316.743838 -216.427692 
L 317.34625 -214.817983 
L 317.995353 -213.208273 
L 318.695663 -211.598564 
L 319.447136 -209.988854 
L 320.245224 -208.379145 
L 321.081685 -206.769435 
L 321.945963 -205.159726 
L 322.826941 -203.550016 
L 323.714752 -201.940307 
L 324.60237 -200.330597 
L 325.486673 -198.720888 
L 326.368764 -197.111178 
L 327.253374 -195.501469 
L 328.147335 -193.891759 
L 329.057231 -192.28205 
L 329.986513 -190.67234 
L 330.932543 -189.062631 
L 331.884138 -187.452922 
L 332.820254 -185.843212 
L 333.710331 -184.233503 
L 334.516576 -182.623793 
L 335.198094 -181.014084 
L 335.716294 -179.404374 
L 336.04064 -177.794665 
L 336.1536 -176.184955 
L 336.053686 -174.575246 
L 335.755895 -172.965536 
L 335.289374 -171.355827 
L 334.692808 -169.746117 
L 334.008499 -168.136408 
L 333.276397 -166.526698 
L 332.529204 -164.916989 
L 331.789382 -163.307279 
L 331.068321 -161.69757 
L 330.367469 -160.087861 
L 329.680818 -158.478151 
L 328.998019 -156.868442 
L 328.307425 -155.258732 
L 327.598576 -153.649023 
L 326.863883 -152.039313 
L 326.099489 -150.429604 
L 325.305424 -148.819894 
L 324.485253 -147.210185 
L 323.645359 -145.600475 
L 322.794048 -143.990766 
L 321.940564 -142.381056 
L 321.094163 -140.771347 
L 320.263323 -139.161637 
L 319.455222 -137.551928 
L 318.675508 -135.942218 
L 317.928382 -134.332509 
L 317.216885 -132.722799 
L 316.543287 -131.11309 
L 315.909404 -129.503381 
L 315.316741 -127.893671 
L 314.766415 -126.283962 
L 314.258879 -124.674252 
L 313.793531 -123.064543 
L 313.368352 -121.454833 
L 312.979662 -119.845124 
L 312.622099 -118.235414 
L 312.288861 -116.625705 
L 311.97221 -115.015995 
L 311.664195 -113.406286 
L 311.357527 -111.796576 
L 311.04648 -110.186867 
L 310.727682 -108.577157 
L 310.400647 -106.967448 
L 310.06792 -105.357738 
L 309.734775 -103.748029 
L 309.408472 -102.13832 
L 309.097212 -100.52861 
L 308.808966 -98.918901 
L 308.550387 -97.309191 
z
" style="stroke: #3a3a3a"/>
    </defs>
    <g clip-path="url(#p9c8f18aced)">
     <use xlink:href="#mc0bb2235f2" x="0" y="345.6" style="fill: #cb453e; stroke: #3a3a3a"/>
    </g>
   </g>
   <g id="PolyCollection_5">
    <defs>
     <path id="mfb94a7a790" d="M 380.424485 -117.481174 
L 377.591515 -117.481174 
L 377.314183 -119.244314 
L 377.009139 -121.007453 
L 376.678757 -122.770593 
L 376.326049 -124.533733 
L 375.954388 -126.296872 
L 375.567174 -128.060012 
L 375.16747 -129.823152 
L 374.757663 -131.586291 
L 374.339185 -133.349431 
L 373.912355 -135.112571 
L 373.476348 -136.87571 
L 373.029331 -138.63885 
L 372.568751 -140.40199 
L 372.09174 -142.165129 
L 371.595604 -143.928269 
L 371.078308 -145.691409 
L 370.538906 -147.454548 
L 369.977826 -149.217688 
L 369.396955 -150.980828 
L 368.799485 -152.743967 
L 368.189512 -154.507107 
L 367.571406 -156.270247 
L 366.949028 -158.033386 
L 366.324886 -159.796526 
L 365.699344 -161.559666 
L 365.070017 -163.322805 
L 364.431488 -165.085945 
L 363.775423 -166.849085 
L 363.091175 -168.612224 
L 362.36685 -170.375364 
L 361.5908 -172.138503 
L 360.7534 -173.901643 
L 359.84895 -175.664783 
L 358.877463 -177.427922 
L 357.846116 -179.191062 
L 356.77015 -180.954202 
L 355.673029 -182.717341 
L 354.585768 -184.480481 
L 353.545408 -186.243621 
L 352.592733 -188.00676 
L 351.769396 -189.7699 
L 351.114735 -191.53304 
L 350.662581 -193.296179 
L 350.4384 -195.059319 
L 350.457071 -196.822459 
L 350.721554 -198.585598 
L 351.222604 -200.348738 
L 351.939573 -202.111878 
L 352.842211 -203.875017 
L 353.893288 -205.638157 
L 355.051727 -207.401297 
L 356.275936 -209.164436 
L 357.526955 -210.927576 
L 358.771123 -212.690716 
L 359.98199 -214.453855 
L 361.141348 -216.216995 
L 362.239329 -217.980135 
L 363.273655 -219.743274 
L 364.248215 -221.506414 
L 365.171206 -223.269553 
L 366.053092 -225.032693 
L 366.904645 -226.795833 
L 367.735273 -228.558972 
L 368.551775 -230.322112 
L 369.357593 -232.085252 
L 370.152567 -233.848391 
L 370.933115 -235.611531 
L 371.692762 -237.374671 
L 372.422879 -239.13781 
L 373.113544 -240.90095 
L 373.754412 -242.66409 
L 374.335533 -244.427229 
L 374.84808 -246.190369 
L 375.284956 -247.953509 
L 375.641281 -249.716648 
L 375.914766 -251.479788 
L 376.105954 -253.242928 
L 376.218348 -255.006067 
L 376.258396 -256.769207 
L 376.235328 -258.532347 
L 376.160836 -260.295486 
L 376.04858 -262.058626 
L 375.91355 -263.821766 
L 375.771286 -265.584905 
L 375.637031 -267.348045 
L 375.52485 -269.111184 
L 375.446813 -270.874324 
L 375.412297 -272.637464 
L 375.427486 -274.400603 
L 375.495108 -276.163743 
L 375.614447 -277.926883 
L 375.781606 -279.690022 
L 375.990013 -281.453162 
L 376.231088 -283.216302 
L 376.495025 -284.979441 
L 376.771586 -286.742581 
L 377.050849 -288.505721 
L 377.323839 -290.26886 
L 377.582999 -292.032 
L 380.433001 -292.032 
L 380.433001 -292.032 
L 380.692161 -290.26886 
L 380.965151 -288.505721 
L 381.244414 -286.742581 
L 381.520975 -284.979441 
L 381.784912 -283.216302 
L 382.025987 -281.453162 
L 382.234394 -279.690022 
L 382.401553 -277.926883 
L 382.520892 -276.163743 
L 382.588514 -274.400603 
L 382.603703 -272.637464 
L 382.569187 -270.874324 
L 382.49115 -269.111184 
L 382.378969 -267.348045 
L 382.244714 -265.584905 
L 382.10245 -263.821766 
L 381.96742 -262.058626 
L 381.855164 -260.295486 
L 381.780672 -258.532347 
L 381.757604 -256.769207 
L 381.797652 -255.006067 
L 381.910046 -253.242928 
L 382.101234 -251.479788 
L 382.374719 -249.716648 
L 382.731044 -247.953509 
L 383.16792 -246.190369 
L 383.680467 -244.427229 
L 384.261588 -242.66409 
L 384.902456 -240.90095 
L 385.593121 -239.13781 
L 386.323238 -237.374671 
L 387.082885 -235.611531 
L 387.863433 -233.848391 
L 388.658407 -232.085252 
L 389.464225 -230.322112 
L 390.280727 -228.558972 
L 391.111355 -226.795833 
L 391.962908 -225.032693 
L 392.844794 -223.269553 
L 393.767785 -221.506414 
L 394.742345 -219.743274 
L 395.776671 -217.980135 
L 396.874652 -216.216995 
L 398.03401 -214.453855 
L 399.244877 -212.690716 
L 400.489045 -210.927576 
L 401.740064 -209.164436 
L 402.964273 -207.401297 
L 404.122712 -205.638157 
L 405.173789 -203.875017 
L 406.076427 -202.111878 
L 406.793396 -200.348738 
L 407.294446 -198.585598 
L 407.558929 -196.822459 
L 407.5776 -195.059319 
L 407.353419 -193.296179 
L 406.901265 -191.53304 
L 406.246604 -189.7699 
L 405.423267 -188.00676 
L 404.470592 -186.243621 
L 403.430232 -184.480481 
L 402.342971 -182.717341 
L 401.24585 -180.954202 
L 400.169884 -179.191062 
L 399.138537 -177.427922 
L 398.16705 -175.664783 
L 397.2626 -173.901643 
L 396.4252 -172.138503 
L 395.64915 -170.375364 
L 394.924825 -168.612224 
L 394.240577 -166.849085 
L 393.584512 -165.085945 
L 392.945983 -163.322805 
L 392.316656 -161.559666 
L 391.691114 -159.796526 
L 391.066972 -158.033386 
L 390.444594 -156.270247 
L 389.826488 -154.507107 
L 389.216515 -152.743967 
L 388.619045 -150.980828 
L 388.038174 -149.217688 
L 387.477094 -147.454548 
L 386.937692 -145.691409 
L 386.420396 -143.928269 
L 385.92426 -142.165129 
L 385.447249 -140.40199 
L 384.986669 -138.63885 
L 384.539652 -136.87571 
L 384.103645 -135.112571 
L 383.676815 -133.349431 
L 383.258337 -131.586291 
L 382.84853 -129.823152 
L 382.448826 -128.060012 
L 382.061612 -126.296872 
L 381.689951 -124.533733 
L 381.337243 -122.770593 
L 381.006861 -121.007453 
L 380.701817 -119.244314 
L 380.424485 -117.481174 
z
" style="stroke: #3a3a3a"/>
    </defs>
    <g clip-path="url(#p9c8f18aced)">
     <use xlink:href="#mfb94a7a790" x="0" y="345.6" style="fill: #9d262a; stroke: #3a3a3a"/>
    </g>
   </g>
   <g id="matplotlib.axis_1">
    <g id="xtick_1">
     <g id="line2d_1">
      <defs>
       <path id="m09f2354910" d="M 0 0 
L 0 4.8 
" style="stroke: #000000"/>
      </defs>
      <g>
       <use xlink:href="#m09f2354910" x="93.312" y="307.584" style="stroke: #000000"/>
      </g>
     </g>
     <g id="text_1">
      <text style="font: 8.8px 'DejaVu Sans', 'Bitstream Vera Sans', 'Computer Modern Sans Serif', 'Lucida Grande', 'Verdana', 'Geneva', 'Lucid', 'Arial', 'Helvetica', 'Avant Garde', sans-serif; text-anchor: middle" x="93.312" y="322.570625" transform="rotate(-0 93.312 322.570625)">[-15, -10)</text>
     </g>
    </g>
    <g id="xtick_2">
     <g id="line2d_2">
      <g>
       <use xlink:href="#m09f2354910" x="164.736" y="307.584" style="stroke: #000000"/>
      </g>
     </g>
     <g id="text_2">
      <text style="font: 8.8px 'DejaVu Sans', 'Bitstream Vera Sans', 'Computer Modern Sans Serif', 'Lucida Grande', 'Verdana', 'Geneva', 'Lucid', 'Arial', 'Helvetica', 'Avant Garde', sans-serif; text-anchor: middle" x="164.736" y="322.570625" transform="rotate(-0 164.736 322.570625)">[-10, -5)</text>
     </g>
    </g>
    <g id="xtick_3">
     <g id="line2d_3">
      <g>
       <use xlink:href="#m09f2354910" x="236.16" y="307.584" style="stroke: #000000"/>
      </g>
     </g>
     <g id="text_3">
      <text style="font: 8.8px 'DejaVu Sans', 'Bitstream Vera Sans', 'Computer Modern Sans Serif', 'Lucida Grande', 'Verdana', 'Geneva', 'Lucid', 'Arial', 'Helvetica', 'Avant Garde', sans-serif; text-anchor: middle" x="236.16" y="322.570625" transform="rotate(-0 236.16 322.570625)">[-5, 5)</text>
     </g>
    </g>
    <g id="xtick_4">
     <g id="line2d_4">
      <g>
       <use xlink:href="#m09f2354910" x="307.584" y="307.584" style="stroke: #000000"/>
      </g>
     </g>
     <g id="text_4">
      <text style="font: 8.8px 'DejaVu Sans', 'Bitstream Vera Sans', 'Computer Modern Sans Serif', 'Lucida Grande', 'Verdana', 'Geneva', 'Lucid', 'Arial', 'Helvetica', 'Avant Garde', sans-serif; text-anchor: middle" x="307.584" y="322.570625" transform="rotate(-0 307.584 322.570625)">[5, 10)</text>
     </g>
    </g>
    <g id="xtick_5">
     <g id="line2d_5">
      <g>
       <use xlink:href="#m09f2354910" x="379.008" y="307.584" style="stroke: #000000"/>
      </g>
     </g>
     <g id="text_5">
      <text style="font: 8.8px 'DejaVu Sans', 'Bitstream Vera Sans', 'Computer Modern Sans Serif', 'Lucida Grande', 'Verdana', 'Geneva', 'Lucid', 'Arial', 'Helvetica', 'Avant Garde', sans-serif; text-anchor: middle" x="379.008" y="322.570625" transform="rotate(-0 379.008 322.570625)">[10, 15)</text>
     </g>
    </g>
    <g id="text_6">
     <text style="font: 9.6px 'DejaVu Sans', 'Bitstream Vera Sans', 'Computer Modern Sans Serif', 'Lucida Grande', 'Verdana', 'Geneva', 'Lucid', 'Arial', 'Helvetica', 'Avant Garde', sans-serif; text-anchor: middle" x="236.16" y="335.69525" transform="rotate(-0 236.16 335.69525)">mut_age_resid_bin</text>
    </g>
   </g>
   <g id="matplotlib.axis_2">
    <g id="ytick_1">
     <g id="line2d_6">
      <defs>
       <path id="mdd93d88126" d="M 0 0 
L -4.8 0 
" style="stroke: #000000"/>
      </defs>
      <g>
       <use xlink:href="#mdd93d88126" x="57.6" y="294.68058" style="stroke: #000000"/>
      </g>
     </g>
     <g id="text_7">
      <text style="font: 8.8px 'DejaVu Sans', 'Bitstream Vera Sans', 'Computer Modern Sans Serif', 'Lucida Grande', 'Verdana', 'Geneva', 'Lucid', 'Arial', 'Helvetica', 'Avant Garde', sans-serif; text-anchor: end" x="49.3" y="298.023893" transform="rotate(-0 49.3 298.023893)">−20</text>
     </g>
    </g>
    <g id="ytick_2">
     <g id="line2d_7">
      <g>
       <use xlink:href="#mdd93d88126" x="57.6" y="242.97155" style="stroke: #000000"/>
      </g>
     </g>
     <g id="text_8">
      <text style="font: 8.8px 'DejaVu Sans', 'Bitstream Vera Sans', 'Computer Modern Sans Serif', 'Lucida Grande', 'Verdana', 'Geneva', 'Lucid', 'Arial', 'Helvetica', 'Avant Garde', sans-serif; text-anchor: end" x="49.3" y="246.314863" transform="rotate(-0 49.3 246.314863)">−10</text>
     </g>
    </g>
    <g id="ytick_3">
     <g id="line2d_8">
      <g>
       <use xlink:href="#mdd93d88126" x="57.6" y="191.26252" style="stroke: #000000"/>
      </g>
     </g>
     <g id="text_9">
      <text style="font: 8.8px 'DejaVu Sans', 'Bitstream Vera Sans', 'Computer Modern Sans Serif', 'Lucida Grande', 'Verdana', 'Geneva', 'Lucid', 'Arial', 'Helvetica', 'Avant Garde', sans-serif; text-anchor: end" x="49.3" y="194.605832" transform="rotate(-0 49.3 194.605832)">0</text>
     </g>
    </g>
    <g id="ytick_4">
     <g id="line2d_9">
      <g>
       <use xlink:href="#mdd93d88126" x="57.6" y="139.55349" style="stroke: #000000"/>
      </g>
     </g>
     <g id="text_10">
      <text style="font: 8.8px 'DejaVu Sans', 'Bitstream Vera Sans', 'Computer Modern Sans Serif', 'Lucida Grande', 'Verdana', 'Geneva', 'Lucid', 'Arial', 'Helvetica', 'Avant Garde', sans-serif; text-anchor: end" x="49.3" y="142.896802" transform="rotate(-0 49.3 142.896802)">10</text>
     </g>
    </g>
    <g id="ytick_5">
     <g id="line2d_10">
      <g>
       <use xlink:href="#mdd93d88126" x="57.6" y="87.844459" style="stroke: #000000"/>
      </g>
     </g>
     <g id="text_11">
      <text style="font: 8.8px 'DejaVu Sans', 'Bitstream Vera Sans', 'Computer Modern Sans Serif', 'Lucida Grande', 'Verdana', 'Geneva', 'Lucid', 'Arial', 'Helvetica', 'Avant Garde', sans-serif; text-anchor: end" x="49.3" y="91.187772" transform="rotate(-0 49.3 91.187772)">20</text>
     </g>
    </g>
    <g id="text_12">
     <text style="font: 9.6px 'DejaVu Sans', 'Bitstream Vera Sans', 'Computer Modern Sans Serif', 'Lucida Grande', 'Verdana', 'Geneva', 'Lucid', 'Arial', 'Helvetica', 'Avant Garde', sans-serif; text-anchor: middle" x="24.464375" y="174.528" transform="rotate(-90 24.464375 174.528)">methyl_age_resid</text>
    </g>
   </g>
   <g id="line2d_11">
    <path d="M 93.312 283.895153 
L 93.312 168.340784 
" clip-path="url(#p9c8f18aced)" style="fill: none; stroke: #3a3a3a; stroke-width: 1.5; stroke-linecap: square"/>
   </g>
   <g id="line2d_12">
    <path d="M 93.312 243.209525 
L 93.312 210.854788 
" clip-path="url(#p9c8f18aced)" style="fill: none; stroke: #3a3a3a; stroke-width: 4.5; stroke-linecap: square"/>
   </g>
   <g id="line2d_13">
    <path d="M 93.312 223.218498 
" clip-path="url(#p9c8f18aced)" style="fill: none; stroke: #3a3a3a; stroke-width: 1.2; stroke-linecap: square"/>
    <defs>
     <path id="md6d95c0e37" d="M 1.875 0 
L -1.875 -0 
" style="stroke: #ffffff; stroke-width: 0.9"/>
    </defs>
    <g clip-path="url(#p9c8f18aced)">
     <use xlink:href="#md6d95c0e37" x="93.312" y="223.218498" style="fill: #ffffff; stroke: #ffffff; stroke-width: 0.9"/>
    </g>
   </g>
   <g id="line2d_14">
    <path d="M 164.736 271.983538 
L 164.736 130.243671 
" clip-path="url(#p9c8f18aced)" style="fill: none; stroke: #3a3a3a; stroke-width: 1.5; stroke-linecap: square"/>
   </g>
   <g id="line2d_15">
    <path d="M 164.736 224.73803 
L 164.736 186.120232 
" clip-path="url(#p9c8f18aced)" style="fill: none; stroke: #3a3a3a; stroke-width: 4.5; stroke-linecap: square"/>
   </g>
   <g id="line2d_16">
    <path d="M 164.736 206.665654 
" clip-path="url(#p9c8f18aced)" style="fill: none; stroke: #3a3a3a; stroke-width: 1.2; stroke-linecap: square"/>
    <g clip-path="url(#p9c8f18aced)">
     <use xlink:href="#md6d95c0e37" x="164.736" y="206.665654" style="fill: #ffffff; stroke: #ffffff; stroke-width: 0.9"/>
    </g>
   </g>
   <g id="line2d_17">
    <path d="M 236.16 273.559566 
L 236.16 115.949337 
" clip-path="url(#p9c8f18aced)" style="fill: none; stroke: #3a3a3a; stroke-width: 1.5; stroke-linecap: square"/>
   </g>
   <g id="line2d_18">
    <path d="M 236.16 215.426119 
L 236.16 175.494615 
" clip-path="url(#p9c8f18aced)" style="fill: none; stroke: #3a3a3a; stroke-width: 4.5; stroke-linecap: square"/>
   </g>
   <g id="line2d_19">
    <path d="M 236.16 195.390501 
" clip-path="url(#p9c8f18aced)" style="fill: none; stroke: #3a3a3a; stroke-width: 1.2; stroke-linecap: square"/>
    <g clip-path="url(#p9c8f18aced)">
     <use xlink:href="#md6d95c0e37" x="236.16" y="195.390501" style="fill: #ffffff; stroke: #ffffff; stroke-width: 0.9"/>
    </g>
   </g>
   <g id="line2d_20">
    <path d="M 307.584 239.604989 
L 307.584 101.650118 
" clip-path="url(#p9c8f18aced)" style="fill: none; stroke: #3a3a3a; stroke-width: 1.5; stroke-linecap: square"/>
   </g>
   <g id="line2d_21">
    <path d="M 307.584 190.204087 
L 307.584 153.889765 
" clip-path="url(#p9c8f18aced)" style="fill: none; stroke: #3a3a3a; stroke-width: 4.5; stroke-linecap: square"/>
   </g>
   <g id="line2d_22">
    <path d="M 307.584 170.512765 
" clip-path="url(#p9c8f18aced)" style="fill: none; stroke: #3a3a3a; stroke-width: 1.2; stroke-linecap: square"/>
    <g clip-path="url(#p9c8f18aced)">
     <use xlink:href="#md6d95c0e37" x="307.584" y="170.512765" style="fill: #ffffff; stroke: #ffffff; stroke-width: 0.9"/>
    </g>
   </g>
   <g id="line2d_23">
    <path d="M 379.008 215.027579 
L 379.008 104.2593 
" clip-path="url(#p9c8f18aced)" style="fill: none; stroke: #3a3a3a; stroke-width: 1.5; stroke-linecap: square"/>
   </g>
   <g id="line2d_24">
    <path d="M 379.008 171.71728 
L 379.008 138.325767 
" clip-path="url(#p9c8f18aced)" style="fill: none; stroke: #3a3a3a; stroke-width: 4.5; stroke-linecap: square"/>
   </g>
   <g id="line2d_25">
    <path d="M 379.008 150.335547 
" clip-path="url(#p9c8f18aced)" style="fill: none; stroke: #3a3a3a; stroke-width: 1.2; stroke-linecap: square"/>
    <g clip-path="url(#p9c8f18aced)">
     <use xlink:href="#md6d95c0e37" x="379.008" y="150.335547" style="fill: #ffffff; stroke: #ffffff; stroke-width: 0.9"/>
    </g>
   </g>
   <g id="line2d_26">
    <path d="M 57.6 191.26252 
L 414.72 191.26252 
" clip-path="url(#p9c8f18aced)" style="fill: none; stroke-dasharray: 4.44,1.92; stroke-dashoffset: 0; stroke: #000000; stroke-width: 1.2"/>
   </g>
   <g id="patch_3">
    <path d="M 57.6 307.584 
L 57.6 41.472 
" style="fill: none; stroke: #000000; stroke-linejoin: miter; stroke-linecap: square"/>
   </g>
   <g id="patch_4">
    <path d="M 57.6 307.584 
L 414.72 307.584 
" style="fill: none; stroke: #000000; stroke-linejoin: miter; stroke-linecap: square"/>
   </g>
   <g id="text_13">
    <text style="font: 9.6px 'DejaVu Sans', 'Bitstream Vera Sans', 'Computer Modern Sans Serif', 'Lucida Grande', 'Verdana', 'Geneva', 'Lucid', 'Arial', 'Helvetica', 'Avant Garde', sans-serif" transform="translate(75.456 70.6389)">r = 0.51</text>
    <text style="font: 9.6px 'DejaVu Sans', 'Bitstream Vera Sans', 'Computer Modern Sans Serif', 'Lucida Grande', 'Verdana', 'Geneva', 'Lucid', 'Arial', 'Helvetica', 'Avant Garde', sans-serif" transform="translate(75.456 81.3888)">p = 6.66e-105</text>
   </g>
  </g>
 </g>
 <defs>
  <clipPath id="p9c8f18aced">
   <rect x="57.6" y="41.472" width="357.12" height="266.112"/>
  </clipPath>
 </defs>
</svg>
