<?xml version="1.0" encoding="utf-8" standalone="no"?>
<!DOCTYPE svg PUBLIC "-//W3C//DTD SVG 1.1//EN"
  "http://www.w3.org/Graphics/SVG/1.1/DTD/svg11.dtd">
<svg xmlns:xlink="http://www.w3.org/1999/xlink" width="460.8pt" height="345.6pt" viewBox="0 0 460.8 345.6" xmlns="http://www.w3.org/2000/svg" version="1.1">
 <metadata>
  <rdf:RDF xmlns:dc="http://purl.org/dc/elements/1.1/" xmlns:cc="http://creativecommons.org/ns#" xmlns:rdf="http://www.w3.org/1999/02/22-rdf-syntax-ns#">
   <cc:Work>
    <dc:type rdf:resource="http://purl.org/dc/dcmitype/StillImage"/>
    <dc:date>2024-10-16T11:31:44.906924</dc:date>
    <dc:format>image/svg+xml</dc:format>
    <dc:creator>
     <cc:Agent>
      <dc:title>Matplotlib v3.7.1, https://matplotlib.org/</dc:title>
     </cc:Agent>
    </dc:creator>
   </cc:Work>
  </rdf:RDF>
 </metadata>
 <defs>
  <style type="text/css">*{stroke-linejoin: round; stroke-linecap: butt}</style>
 </defs>
 <g id="figure_1">
  <g id="patch_1">
   <path d="M 0 345.6 
L 460.8 345.6 
L 460.8 0 
L 0 0 
z
" style="fill: #ffffff"/>
  </g>
  <g id="axes_1">
   <g id="patch_2">
    <path d="M 57.6 307.584 
L 414.72 307.584 
L 414.72 41.472 
L 57.6 41.472 
z
" style="fill: #ffffff"/>
   </g>
   <g id="PolyCollection_1">
    <defs>
     <path id="m19c186219d" d="M 94.294941 -54.670114 
L 92.329059 -54.670114 
L 92.108459 -56.422295 
L 91.858798 -58.174476 
L 91.580711 -59.926656 
L 91.275552 -61.678837 
L 90.945212 -63.431018 
L 90.591832 -65.183199 
L 90.217417 -66.935379 
L 89.823393 -68.68756 
L 89.410128 -70.439741 
L 88.976488 -72.191922 
L 88.519482 -73.944102 
L 88.034063 -75.696283 
L 87.513132 -77.448464 
L 86.947811 -79.200645 
L 86.327984 -80.952826 
L 85.643109 -82.705006 
L 84.883254 -84.457187 
L 84.040264 -86.209368 
L 83.108967 -87.961549 
L 82.088254 -89.713729 
L 80.981913 -91.46591 
L 79.799071 -93.218091 
L 78.554158 -94.970272 
L 77.266326 -96.722452 
L 75.958373 -98.474633 
L 74.655234 -100.226814 
L 73.382203 -101.978995 
L 72.163092 -103.731176 
L 71.018541 -105.483356 
L 69.964684 -107.235537 
L 69.012355 -108.987718 
L 68.166905 -110.739899 
L 67.428663 -112.492079 
L 66.793929 -114.24426 
L 66.256372 -115.996441 
L 65.808587 -117.748622 
L 65.443596 -119.500802 
L 65.15607 -121.252983 
L 64.943111 -123.005164 
L 64.8045 -124.757345 
L 64.7424 -126.509525 
L 64.760603 -128.261706 
L 64.863443 -130.013887 
L 65.054571 -131.766068 
L 65.335774 -133.518249 
L 65.70602 -135.270429 
L 66.160861 -137.02261 
L 66.692279 -138.774791 
L 67.288994 -140.526972 
L 67.937171 -142.279152 
L 68.621451 -144.031333 
L 69.326134 -145.783514 
L 70.036377 -147.535695 
L 70.739228 -149.287875 
L 71.424385 -151.040056 
L 72.08457 -152.792237 
L 72.715516 -154.544418 
L 73.315597 -156.296599 
L 73.885203 -158.048779 
L 74.42599 -159.80096 
L 74.940174 -161.553141 
L 75.429986 -163.305322 
L 75.897405 -165.057502 
L 76.344178 -166.809683 
L 76.772116 -168.561864 
L 77.183555 -170.314045 
L 77.581858 -172.066225 
L 77.971805 -173.818406 
L 78.359754 -175.570587 
L 78.75348 -177.322768 
L 79.161698 -179.074949 
L 79.593294 -180.827129 
L 80.056402 -182.57931 
L 80.557437 -184.331491 
L 81.100268 -186.083672 
L 81.685642 -187.835852 
L 82.310952 -189.588033 
L 82.970387 -191.340214 
L 83.655437 -193.092395 
L 84.355669 -194.844575 
L 85.059673 -196.596756 
L 85.756034 -198.348937 
L 86.434226 -200.101118 
L 87.085318 -201.853298 
L 87.702429 -203.605479 
L 88.28092 -205.35766 
L 88.818323 -207.109841 
L 89.314077 -208.862022 
L 89.769116 -210.614202 
L 90.185395 -212.366383 
L 90.56543 -214.118564 
L 90.911892 -215.870745 
L 91.227309 -217.622925 
L 91.513878 -219.375106 
L 91.773396 -221.127287 
L 92.007284 -222.879468 
L 92.216678 -224.631648 
L 92.402553 -226.383829 
L 92.565859 -228.13601 
L 94.058141 -228.13601 
L 94.058141 -228.13601 
L 94.221447 -226.383829 
L 94.407322 -224.631648 
L 94.616716 -222.879468 
L 94.850604 -221.127287 
L 95.110122 -219.375106 
L 95.396691 -217.622925 
L 95.712108 -215.870745 
L 96.05857 -214.118564 
L 96.438605 -212.366383 
L 96.854884 -210.614202 
L 97.309923 -208.862022 
L 97.805677 -207.109841 
L 98.34308 -205.35766 
L 98.921571 -203.605479 
L 99.538682 -201.853298 
L 100.189774 -200.101118 
L 100.867966 -198.348937 
L 101.564327 -196.596756 
L 102.268331 -194.844575 
L 102.968563 -193.092395 
L 103.653613 -191.340214 
L 104.313048 -189.588033 
L 104.938358 -187.835852 
L 105.523732 -186.083672 
L 106.066563 -184.331491 
L 106.567598 -182.57931 
L 107.030706 -180.827129 
L 107.462302 -179.074949 
L 107.87052 -177.322768 
L 108.264246 -175.570587 
L 108.652195 -173.818406 
L 109.042142 -172.066225 
L 109.440445 -170.314045 
L 109.851884 -168.561864 
L 110.279822 -166.809683 
L 110.726595 -165.057502 
L 111.194014 -163.305322 
L 111.683826 -161.553141 
L 112.19801 -159.80096 
L 112.738797 -158.048779 
L 113.308403 -156.296599 
L 113.908484 -154.544418 
L 114.53943 -152.792237 
L 115.199615 -151.040056 
L 115.884772 -149.287875 
L 116.587623 -147.535695 
L 117.297866 -145.783514 
L 118.002549 -144.031333 
L 118.686829 -142.279152 
L 119.335006 -140.526972 
L 119.931721 -138.774791 
L 120.463139 -137.02261 
L 120.91798 -135.270429 
L 121.288226 -133.518249 
L 121.569429 -131.766068 
L 121.760557 -130.013887 
L 121.863397 -128.261706 
L 121.8816 -126.509525 
L 121.8195 -124.757345 
L 121.680889 -123.005164 
L 121.46793 -121.252983 
L 121.180404 -119.500802 
L 120.815413 -117.748622 
L 120.367628 -115.996441 
L 119.830071 -114.24426 
L 119.195337 -112.492079 
L 118.457095 -110.739899 
L 117.611645 -108.987718 
L 116.659316 -107.235537 
L 115.605459 -105.483356 
L 114.460908 -103.731176 
L 113.241797 -101.978995 
L 111.968766 -100.226814 
L 110.665627 -98.474633 
L 109.357674 -96.722452 
L 108.069842 -94.970272 
L 106.824929 -93.218091 
L 105.642087 -91.46591 
L 104.535746 -89.713729 
L 103.515033 -87.961549 
L 102.583736 -86.209368 
L 101.740746 -84.457187 
L 100.980891 -82.705006 
L 100.296016 -80.952826 
L 99.676189 -79.200645 
L 99.110868 -77.448464 
L 98.589937 -75.696283 
L 98.104518 -73.944102 
L 97.647512 -72.191922 
L 97.213872 -70.439741 
L 96.800607 -68.68756 
L 96.406583 -66.935379 
L 96.032168 -65.183199 
L 95.678788 -63.431018 
L 95.348448 -61.678837 
L 95.043289 -59.926656 
L 94.765202 -58.174476 
L 94.515541 -56.422295 
L 94.294941 -54.670114 
z
" style="stroke: #3a3a3a; stroke-width: 1.25"/>
    </defs>
    <g clip-path="url(#pe14d020904)">
     <use xlink:href="#m19c186219d" x="0" y="345.6" style="fill: #f6d7ca; stroke: #3a3a3a; stroke-width: 1.25"/>
    </g>
   </g>
   <g id="PolyCollection_2">
    <defs>
     <path id="m2af211af0f" d="M 165.493583 -65.641804 
L 163.978417 -65.641804 
L 163.730081 -67.614452 
L 163.452287 -69.5871 
L 163.159697 -71.559747 
L 162.870567 -73.532395 
L 162.603487 -75.505043 
L 162.373267 -77.477691 
L 162.186921 -79.450339 
L 162.040785 -81.422987 
L 161.919607 -83.395635 
L 161.797935 -85.368282 
L 161.643482 -87.34093 
L 161.421583 -89.313578 
L 161.099573 -91.286226 
L 160.650032 -93.258874 
L 160.052305 -95.231522 
L 159.29234 -97.20417 
L 158.361549 -99.176817 
L 157.255679 -101.149465 
L 155.974686 -103.122113 
L 154.524069 -105.094761 
L 152.91746 -107.067409 
L 151.179521 -109.040057 
L 149.347823 -111.012705 
L 147.472475 -112.985352 
L 145.612853 -114.958 
L 143.831674 -116.930648 
L 142.187566 -118.903296 
L 140.727818 -120.875944 
L 139.483049 -122.848592 
L 138.465002 -124.82124 
L 137.667826 -126.793888 
L 137.072238 -128.766535 
L 136.651304 -130.739183 
L 136.376297 -132.711831 
L 136.221374 -134.684479 
L 136.1664 -136.657127 
L 136.197977 -138.629775 
L 136.309234 -140.602423 
L 136.499049 -142.57507 
L 136.771104 -144.547718 
L 137.132728 -146.520366 
L 137.593136 -148.493014 
L 138.160737 -150.465662 
L 138.839577 -152.43831 
L 139.625659 -154.410958 
L 140.504342 -156.383605 
L 141.450054 -158.356253 
L 142.429016 -160.328901 
L 143.40472 -162.301549 
L 144.344935 -164.274197 
L 145.228357 -166.246845 
L 146.049042 -168.219493 
L 146.817332 -170.19214 
L 147.557046 -172.164788 
L 148.299703 -174.137436 
L 149.077373 -176.110084 
L 149.915913 -178.082732 
L 150.830096 -180.05538 
L 151.821414 -182.028028 
L 152.878574 -184.000675 
L 153.980069 -185.973323 
L 155.097903 -187.945971 
L 156.201579 -189.918619 
L 157.261665 -191.891267 
L 158.252565 -193.863915 
L 159.154314 -195.836563 
L 159.953419 -197.80921 
L 160.642848 -199.781858 
L 161.221401 -201.754506 
L 161.69275 -203.727154 
L 162.064462 -205.699802 
L 162.347191 -207.67245 
L 162.554091 -209.645098 
L 162.700313 -211.617745 
L 162.802361 -213.590393 
L 162.877144 -215.563041 
L 162.940711 -217.535689 
L 163.006834 -219.508337 
L 163.085739 -221.480985 
L 163.183294 -223.453633 
L 163.300811 -225.42628 
L 163.435502 -227.398928 
L 163.581428 -229.371576 
L 163.730736 -231.344224 
L 163.874966 -233.316872 
L 164.006273 -235.28952 
L 164.118456 -237.262168 
L 164.207743 -239.234816 
L 164.273227 -241.207463 
L 164.316915 -243.180111 
L 164.343309 -245.152759 
L 164.358575 -247.125407 
L 164.369406 -249.098055 
L 164.381823 -251.070703 
L 164.400166 -253.043351 
L 164.426514 -255.015998 
L 164.460635 -256.988646 
L 164.500447 -258.961294 
L 164.542784 -260.933942 
L 164.929216 -260.933942 
L 164.929216 -260.933942 
L 164.971553 -258.961294 
L 165.011365 -256.988646 
L 165.045486 -255.015998 
L 165.071834 -253.043351 
L 165.090177 -251.070703 
L 165.102594 -249.098055 
L 165.113425 -247.125407 
L 165.128691 -245.152759 
L 165.155085 -243.180111 
L 165.198773 -241.207463 
L 165.264257 -239.234816 
L 165.353544 -237.262168 
L 165.465727 -235.28952 
L 165.597034 -233.316872 
L 165.741264 -231.344224 
L 165.890572 -229.371576 
L 166.036498 -227.398928 
L 166.171189 -225.42628 
L 166.288706 -223.453633 
L 166.386261 -221.480985 
L 166.465166 -219.508337 
L 166.531289 -217.535689 
L 166.594856 -215.563041 
L 166.669639 -213.590393 
L 166.771687 -211.617745 
L 166.917909 -209.645098 
L 167.124809 -207.67245 
L 167.407538 -205.699802 
L 167.77925 -203.727154 
L 168.250599 -201.754506 
L 168.829152 -199.781858 
L 169.518581 -197.80921 
L 170.317686 -195.836563 
L 171.219435 -193.863915 
L 172.210335 -191.891267 
L 173.270421 -189.918619 
L 174.374097 -187.945971 
L 175.491931 -185.973323 
L 176.593426 -184.000675 
L 177.650586 -182.028028 
L 178.641904 -180.05538 
L 179.556087 -178.082732 
L 180.394627 -176.110084 
L 181.172297 -174.137436 
L 181.914954 -172.164788 
L 182.654668 -170.19214 
L 183.422958 -168.219493 
L 184.243643 -166.246845 
L 185.127065 -164.274197 
L 186.06728 -162.301549 
L 187.042984 -160.328901 
L 188.021946 -158.356253 
L 188.967658 -156.383605 
L 189.846341 -154.410958 
L 190.632423 -152.43831 
L 191.311263 -150.465662 
L 191.878864 -148.493014 
L 192.339272 -146.520366 
L 192.700896 -144.547718 
L 192.972951 -142.57507 
L 193.162766 -140.602423 
L 193.274023 -138.629775 
L 193.3056 -136.657127 
L 193.250626 -134.684479 
L 193.095703 -132.711831 
L 192.820696 -130.739183 
L 192.399762 -128.766535 
L 191.804174 -126.793888 
L 191.006998 -124.82124 
L 189.988951 -122.848592 
L 188.744182 -120.875944 
L 187.284434 -118.903296 
L 185.640326 -116.930648 
L 183.859147 -114.958 
L 181.999525 -112.985352 
L 180.124177 -111.012705 
L 178.292479 -109.040057 
L 176.55454 -107.067409 
L 174.947931 -105.094761 
L 173.497314 -103.122113 
L 172.216321 -101.149465 
L 171.110451 -99.176817 
L 170.17966 -97.20417 
L 169.419695 -95.231522 
L 168.821968 -93.258874 
L 168.372427 -91.286226 
L 168.050417 -89.313578 
L 167.828518 -87.34093 
L 167.674065 -85.368282 
L 167.552393 -83.395635 
L 167.431215 -81.422987 
L 167.285079 -79.450339 
L 167.098733 -77.477691 
L 166.868513 -75.505043 
L 166.601433 -73.532395 
L 166.312303 -71.559747 
L 166.019713 -69.5871 
L 165.741919 -67.614452 
L 165.493583 -65.641804 
z
" style="stroke: #3a3a3a; stroke-width: 1.25"/>
    </defs>
    <g clip-path="url(#pe14d020904)">
     <use xlink:href="#m2af211af0f" x="0" y="345.6" style="fill: #eda791; stroke: #3a3a3a; stroke-width: 1.25"/>
    </g>
   </g>
   <g id="PolyCollection_3">
    <defs>
     <path id="m09e546cfd6" d="M 236.246909 -50.112 
L 236.073091 -50.112 
L 236.04703 -52.29636 
L 236.021684 -54.48072 
L 235.9987 -56.66508 
L 235.977846 -58.84944 
L 235.956477 -61.033801 
L 235.930014 -63.218161 
L 235.893319 -65.402521 
L 235.842369 -67.586881 
L 235.775306 -69.771241 
L 235.692206 -71.955601 
L 235.593449 -74.139961 
L 235.477292 -76.324321 
L 235.337725 -78.508681 
L 235.163789 -80.693041 
L 234.941033 -82.877402 
L 234.654904 -85.061762 
L 234.294775 -87.246122 
L 233.856648 -89.430482 
L 233.34288 -91.614842 
L 232.758746 -93.799202 
L 232.107663 -95.983562 
L 231.388175 -98.167922 
L 230.595088 -100.352282 
L 229.724454 -102.536643 
L 228.778996 -104.721003 
L 227.76958 -106.905363 
L 226.710702 -109.089723 
L 225.612414 -111.274083 
L 224.474437 -113.458443 
L 223.287662 -115.642803 
L 222.043886 -117.827163 
L 220.749257 -120.011523 
L 219.433898 -122.195884 
L 218.151302 -124.380244 
L 216.96565 -126.564604 
L 215.930973 -128.748964 
L 215.070487 -130.933324 
L 214.365297 -133.117684 
L 213.758274 -135.302044 
L 213.172363 -137.486404 
L 212.536098 -139.670764 
L 211.806318 -141.855124 
L 210.980458 -144.039485 
L 210.096557 -146.223845 
L 209.224473 -148.408205 
L 208.453461 -150.592565 
L 207.879209 -152.776925 
L 207.5904 -154.961285 
L 207.653761 -157.145645 
L 208.098636 -159.330005 
L 208.905519 -161.514365 
L 210.004768 -163.698726 
L 211.28961 -165.883086 
L 212.641983 -168.067446 
L 213.963342 -170.251806 
L 215.199166 -172.436166 
L 216.347756 -174.620526 
L 217.45044 -176.804886 
L 218.568071 -178.989246 
L 219.753678 -181.173606 
L 221.031298 -183.357967 
L 222.387142 -185.542327 
L 223.773984 -187.726687 
L 225.125407 -189.911047 
L 226.374368 -192.095407 
L 227.470377 -194.279767 
L 228.390694 -196.464127 
L 229.142997 -198.648487 
L 229.759412 -200.832847 
L 230.28432 -203.017207 
L 230.760294 -205.201568 
L 231.217003 -207.385928 
L 231.666581 -209.570288 
L 232.106096 -211.754648 
L 232.524705 -213.939008 
L 232.911436 -216.123368 
L 233.260101 -218.307728 
L 233.570089 -220.492088 
L 233.844186 -222.676448 
L 234.085773 -224.860809 
L 234.29733 -227.045169 
L 234.480746 -229.229529 
L 234.638665 -231.413889 
L 234.775579 -233.598249 
L 234.897754 -235.782609 
L 235.011884 -237.966969 
L 235.123125 -240.151329 
L 235.233514 -242.335689 
L 235.341619 -244.520049 
L 235.443698 -246.70441 
L 235.535858 -248.88877 
L 235.61616 -251.07313 
L 235.685622 -253.25749 
L 235.74764 -255.44185 
L 235.806249 -257.62621 
L 235.864192 -259.81057 
L 235.921809 -261.99493 
L 235.977191 -264.17929 
L 236.027306 -266.363651 
L 236.292694 -266.363651 
L 236.292694 -266.363651 
L 236.342809 -264.17929 
L 236.398191 -261.99493 
L 236.455808 -259.81057 
L 236.513751 -257.62621 
L 236.57236 -255.44185 
L 236.634378 -253.25749 
L 236.70384 -251.07313 
L 236.784142 -248.88877 
L 236.876302 -246.70441 
L 236.978381 -244.520049 
L 237.086486 -242.335689 
L 237.196875 -240.151329 
L 237.308116 -237.966969 
L 237.422246 -235.782609 
L 237.544421 -233.598249 
L 237.681335 -231.413889 
L 237.839254 -229.229529 
L 238.02267 -227.045169 
L 238.234227 -224.860809 
L 238.475814 -222.676448 
L 238.749911 -220.492088 
L 239.059899 -218.307728 
L 239.408564 -216.123368 
L 239.795295 -213.939008 
L 240.213904 -211.754648 
L 240.653419 -209.570288 
L 241.102997 -207.385928 
L 241.559706 -205.201568 
L 242.03568 -203.017207 
L 242.560588 -200.832847 
L 243.177003 -198.648487 
L 243.929306 -196.464127 
L 244.849623 -194.279767 
L 245.945632 -192.095407 
L 247.194593 -189.911047 
L 248.546016 -187.726687 
L 249.932858 -185.542327 
L 251.288702 -183.357967 
L 252.566322 -181.173606 
L 253.751929 -178.989246 
L 254.86956 -176.804886 
L 255.972244 -174.620526 
L 257.120834 -172.436166 
L 258.356658 -170.251806 
L 259.678017 -168.067446 
L 261.03039 -165.883086 
L 262.315232 -163.698726 
L 263.414481 -161.514365 
L 264.221364 -159.330005 
L 264.666239 -157.145645 
L 264.7296 -154.961285 
L 264.440791 -152.776925 
L 263.866539 -150.592565 
L 263.095527 -148.408205 
L 262.223443 -146.223845 
L 261.339542 -144.039485 
L 260.513682 -141.855124 
L 259.783902 -139.670764 
L 259.147637 -137.486404 
L 258.561726 -135.302044 
L 257.954703 -133.117684 
L 257.249513 -130.933324 
L 256.389027 -128.748964 
L 255.35435 -126.564604 
L 254.168698 -124.380244 
L 252.886102 -122.195884 
L 251.570743 -120.011523 
L 250.276114 -117.827163 
L 249.032338 -115.642803 
L 247.845563 -113.458443 
L 246.707586 -111.274083 
L 245.609298 -109.089723 
L 244.55042 -106.905363 
L 243.541004 -104.721003 
L 242.595546 -102.536643 
L 241.724912 -100.352282 
L 240.931825 -98.167922 
L 240.212337 -95.983562 
L 239.561254 -93.799202 
L 238.97712 -91.614842 
L 238.463352 -89.430482 
L 238.025225 -87.246122 
L 237.665096 -85.061762 
L 237.378967 -82.877402 
L 237.156211 -80.693041 
L 236.982275 -78.508681 
L 236.842708 -76.324321 
L 236.726551 -74.139961 
L 236.627794 -71.955601 
L 236.544694 -69.771241 
L 236.477631 -67.586881 
L 236.426681 -65.402521 
L 236.389986 -63.218161 
L 236.363523 -61.033801 
L 236.342154 -58.84944 
L 236.3213 -56.66508 
L 236.298316 -54.48072 
L 236.27297 -52.29636 
L 236.246909 -50.112 
z
" style="stroke: #3a3a3a; stroke-width: 1.25"/>
    </defs>
    <g clip-path="url(#pe14d020904)">
     <use xlink:href="#m09e546cfd6" x="0" y="345.6" style="fill: #e57760; stroke: #3a3a3a; stroke-width: 1.25"/>
    </g>
   </g>
   <g id="PolyCollection_4">
    <defs>
     <path id="mec819577be" d="M 308.269028 -101.231005 
L 306.898972 -101.231005 
L 306.711362 -102.692097 
L 306.493596 -104.153188 
L 306.245453 -105.61428 
L 305.967265 -107.075372 
L 305.659824 -108.536463 
L 305.324339 -109.997555 
L 304.962441 -111.458647 
L 304.576231 -112.919739 
L 304.168298 -114.38083 
L 303.741634 -115.841922 
L 303.299391 -117.303014 
L 302.844465 -118.764105 
L 302.378967 -120.225197 
L 301.903704 -121.686289 
L 301.417815 -123.14738 
L 300.918684 -124.608472 
L 300.402194 -126.069564 
L 299.863283 -127.530656 
L 299.296673 -128.991747 
L 298.697602 -130.452839 
L 298.062409 -131.913931 
L 297.388881 -133.375022 
L 296.676383 -134.836114 
L 295.925879 -136.297206 
L 295.139968 -137.758297 
L 294.323047 -139.219389 
L 293.48161 -140.680481 
L 292.624575 -142.141573 
L 291.763451 -143.602664 
L 290.912141 -145.063756 
L 290.086209 -146.524848 
L 289.301608 -147.985939 
L 288.572949 -149.447031 
L 287.911587 -150.908123 
L 287.323831 -152.369214 
L 286.8096 -153.830306 
L 286.3618 -155.291398 
L 285.966571 -156.75249 
L 285.604456 -158.213581 
L 285.252403 -159.674673 
L 284.88642 -161.135765 
L 284.48461 -162.596856 
L 284.030239 -164.057948 
L 283.514445 -165.51904 
L 282.938199 -166.980131 
L 282.313169 -168.441223 
L 281.661237 -169.902315 
L 281.012628 -171.363407 
L 280.402782 -172.824498 
L 279.868354 -174.28559 
L 279.442891 -175.746682 
L 279.152822 -177.207773 
L 279.0144 -178.668865 
L 279.032077 -180.129957 
L 279.198559 -181.591048 
L 279.496527 -183.05214 
L 279.901712 -184.513232 
L 280.386808 -185.974324 
L 280.925595 -187.435415 
L 281.49663 -188.896507 
L 282.085966 -190.357599 
L 282.68855 -191.81869 
L 283.308162 -193.279782 
L 283.955976 -194.740874 
L 284.648059 -196.201965 
L 285.402205 -197.663057 
L 286.234624 -199.124149 
L 287.156954 -200.585241 
L 288.173978 -202.046332 
L 289.282322 -203.507424 
L 290.470212 -204.968516 
L 291.71824 -206.429607 
L 293.000965 -207.890699 
L 294.289095 -209.351791 
L 295.551989 -210.812882 
L 296.760203 -212.273974 
L 297.887861 -213.735066 
L 298.914643 -215.196158 
L 299.827237 -216.657249 
L 300.620118 -218.118341 
L 301.295597 -219.579433 
L 301.863103 -221.040524 
L 302.337787 -222.501616 
L 302.738594 -223.962708 
L 303.086043 -225.423799 
L 303.399995 -226.884891 
L 303.697701 -228.345983 
L 303.992353 -229.807075 
L 304.292299 -231.268166 
L 304.600955 -232.729258 
L 304.917329 -234.19035 
L 305.237008 -235.651441 
L 305.553395 -237.112533 
L 305.858991 -238.573625 
L 306.14654 -240.034716 
L 306.409909 -241.495808 
L 306.644659 -242.9569 
L 306.84829 -244.417992 
L 307.020211 -245.879083 
L 308.147789 -245.879083 
L 308.147789 -245.879083 
L 308.31971 -244.417992 
L 308.523341 -242.9569 
L 308.758091 -241.495808 
L 309.02146 -240.034716 
L 309.309009 -238.573625 
L 309.614605 -237.112533 
L 309.930992 -235.651441 
L 310.250671 -234.19035 
L 310.567045 -232.729258 
L 310.875701 -231.268166 
L 311.175647 -229.807075 
L 311.470299 -228.345983 
L 311.768005 -226.884891 
L 312.081957 -225.423799 
L 312.429406 -223.962708 
L 312.830213 -222.501616 
L 313.304897 -221.040524 
L 313.872403 -219.579433 
L 314.547882 -218.118341 
L 315.340763 -216.657249 
L 316.253357 -215.196158 
L 317.280139 -213.735066 
L 318.407797 -212.273974 
L 319.616011 -210.812882 
L 320.878905 -209.351791 
L 322.167035 -207.890699 
L 323.44976 -206.429607 
L 324.697788 -204.968516 
L 325.885678 -203.507424 
L 326.994022 -202.046332 
L 328.011046 -200.585241 
L 328.933376 -199.124149 
L 329.765795 -197.663057 
L 330.519941 -196.201965 
L 331.212024 -194.740874 
L 331.859838 -193.279782 
L 332.47945 -191.81869 
L 333.082034 -190.357599 
L 333.67137 -188.896507 
L 334.242405 -187.435415 
L 334.781192 -185.974324 
L 335.266288 -184.513232 
L 335.671473 -183.05214 
L 335.969441 -181.591048 
L 336.135923 -180.129957 
L 336.1536 -178.668865 
L 336.015178 -177.207773 
L 335.725109 -175.746682 
L 335.299646 -174.28559 
L 334.765218 -172.824498 
L 334.155372 -171.363407 
L 333.506763 -169.902315 
L 332.854831 -168.441223 
L 332.229801 -166.980131 
L 331.653555 -165.51904 
L 331.137761 -164.057948 
L 330.68339 -162.596856 
L 330.28158 -161.135765 
L 329.915597 -159.674673 
L 329.563544 -158.213581 
L 329.201429 -156.75249 
L 328.8062 -155.291398 
L 328.3584 -153.830306 
L 327.844169 -152.369214 
L 327.256413 -150.908123 
L 326.595051 -149.447031 
L 325.866392 -147.985939 
L 325.081791 -146.524848 
L 324.255859 -145.063756 
L 323.404549 -143.602664 
L 322.543425 -142.141573 
L 321.68639 -140.680481 
L 320.844953 -139.219389 
L 320.028032 -137.758297 
L 319.242121 -136.297206 
L 318.491617 -134.836114 
L 317.779119 -133.375022 
L 317.105591 -131.913931 
L 316.470398 -130.452839 
L 315.871327 -128.991747 
L 315.304717 -127.530656 
L 314.765806 -126.069564 
L 314.249316 -124.608472 
L 313.750185 -123.14738 
L 313.264296 -121.686289 
L 312.789033 -120.225197 
L 312.323535 -118.764105 
L 311.868609 -117.303014 
L 311.426366 -115.841922 
L 310.999702 -114.38083 
L 310.591769 -112.919739 
L 310.205559 -111.458647 
L 309.843661 -109.997555 
L 309.508176 -108.536463 
L 309.200735 -107.075372 
L 308.922547 -105.61428 
L 308.674404 -104.153188 
L 308.456638 -102.692097 
L 308.269028 -101.231005 
z
" style="stroke: #3a3a3a; stroke-width: 1.25"/>
    </defs>
    <g clip-path="url(#pe14d020904)">
     <use xlink:href="#mec819577be" x="0" y="345.6" style="fill: #cb453e; stroke: #3a3a3a; stroke-width: 1.25"/>
    </g>
   </g>
   <g id="PolyCollection_5">
    <defs>
     <path id="m3962a8fdf3" d="M 379.639099 -99.414046 
L 378.376901 -99.414046 
L 378.242229 -101.359681 
L 378.09686 -103.305317 
L 377.942942 -105.250953 
L 377.782016 -107.196589 
L 377.614356 -109.142225 
L 377.438379 -111.087861 
L 377.25027 -113.033497 
L 377.043949 -114.979133 
L 376.811454 -116.924769 
L 376.543731 -118.870405 
L 376.231756 -120.81604 
L 375.867813 -122.761676 
L 375.446701 -124.707312 
L 374.966646 -126.652948 
L 374.42971 -128.598584 
L 373.841594 -130.54422 
L 373.210834 -132.489856 
L 372.547495 -134.435492 
L 371.861593 -136.381128 
L 371.161504 -138.326764 
L 370.452657 -140.272399 
L 369.736726 -142.218035 
L 369.0115 -144.163671 
L 368.271453 -146.109307 
L 367.508939 -148.054943 
L 366.715835 -150.000579 
L 365.885352 -151.946215 
L 365.013715 -153.891851 
L 364.101401 -155.837487 
L 363.1537 -157.783123 
L 362.180461 -159.728759 
L 361.195034 -161.674394 
L 360.212563 -163.62003 
L 359.247956 -165.565666 
L 358.313895 -167.511302 
L 357.419312 -169.456938 
L 356.568655 -171.402574 
L 355.762121 -173.34821 
L 354.99687 -175.293846 
L 354.268975 -177.239482 
L 353.575767 -179.185118 
L 352.91809 -181.130753 
L 352.302028 -183.076389 
L 351.739727 -185.022025 
L 351.249124 -186.967661 
L 350.852559 -188.913297 
L 350.574456 -190.858933 
L 350.4384 -192.804569 
L 350.464037 -194.750205 
L 350.664249 -196.695841 
L 351.043034 -198.641477 
L 351.594423 -200.587113 
L 352.302637 -202.532748 
L 353.143498 -204.478384 
L 354.086952 -206.42402 
L 355.100364 -208.369656 
L 356.152121 -210.315292 
L 357.215 -212.260928 
L 358.268793 -214.206564 
L 359.301771 -216.1522 
L 360.310789 -218.097836 
L 361.300042 -220.043472 
L 362.278764 -221.989107 
L 363.258288 -223.934743 
L 364.249046 -225.880379 
L 365.258009 -227.826015 
L 366.28698 -229.771651 
L 367.331951 -231.717287 
L 368.383501 -233.662923 
L 369.428034 -235.608559 
L 370.449516 -237.554195 
L 371.431336 -239.499831 
L 372.357956 -241.445466 
L 373.21612 -243.391102 
L 373.995533 -245.336738 
L 374.689049 -247.282374 
L 375.292519 -249.22801 
L 375.804458 -251.173646 
L 376.225712 -253.119282 
L 376.559242 -255.064918 
L 376.810051 -257.010554 
L 376.985227 -258.95619 
L 377.093987 -260.901826 
L 377.147624 -262.847461 
L 377.159231 -264.793097 
L 377.143151 -266.738733 
L 377.114163 -268.684369 
L 377.086472 -270.630005 
L 377.072628 -272.575641 
L 377.082554 -274.521277 
L 377.122808 -276.466913 
L 377.196217 -278.412549 
L 377.301929 -280.358185 
L 377.435861 -282.30382 
L 377.59148 -284.249456 
L 377.760774 -286.195092 
L 377.935267 -288.140728 
L 378.106954 -290.086364 
L 378.269023 -292.032 
L 379.746977 -292.032 
L 379.746977 -292.032 
L 379.909046 -290.086364 
L 380.080733 -288.140728 
L 380.255226 -286.195092 
L 380.42452 -284.249456 
L 380.580139 -282.30382 
L 380.714071 -280.358185 
L 380.819783 -278.412549 
L 380.893192 -276.466913 
L 380.933446 -274.521277 
L 380.943372 -272.575641 
L 380.929528 -270.630005 
L 380.901837 -268.684369 
L 380.872849 -266.738733 
L 380.856769 -264.793097 
L 380.868376 -262.847461 
L 380.922013 -260.901826 
L 381.030773 -258.95619 
L 381.205949 -257.010554 
L 381.456758 -255.064918 
L 381.790288 -253.119282 
L 382.211542 -251.173646 
L 382.723481 -249.22801 
L 383.326951 -247.282374 
L 384.020467 -245.336738 
L 384.79988 -243.391102 
L 385.658044 -241.445466 
L 386.584664 -239.499831 
L 387.566484 -237.554195 
L 388.587966 -235.608559 
L 389.632499 -233.662923 
L 390.684049 -231.717287 
L 391.72902 -229.771651 
L 392.757991 -227.826015 
L 393.766954 -225.880379 
L 394.757712 -223.934743 
L 395.737236 -221.989107 
L 396.715958 -220.043472 
L 397.705211 -218.097836 
L 398.714229 -216.1522 
L 399.747207 -214.206564 
L 400.801 -212.260928 
L 401.863879 -210.315292 
L 402.915636 -208.369656 
L 403.929048 -206.42402 
L 404.872502 -204.478384 
L 405.713363 -202.532748 
L 406.421577 -200.587113 
L 406.972966 -198.641477 
L 407.351751 -196.695841 
L 407.551963 -194.750205 
L 407.5776 -192.804569 
L 407.441544 -190.858933 
L 407.163441 -188.913297 
L 406.766876 -186.967661 
L 406.276273 -185.022025 
L 405.713972 -183.076389 
L 405.09791 -181.130753 
L 404.440233 -179.185118 
L 403.747025 -177.239482 
L 403.01913 -175.293846 
L 402.253879 -173.34821 
L 401.447345 -171.402574 
L 400.596688 -169.456938 
L 399.702105 -167.511302 
L 398.768044 -165.565666 
L 397.803437 -163.62003 
L 396.820966 -161.674394 
L 395.835539 -159.728759 
L 394.8623 -157.783123 
L 393.914599 -155.837487 
L 393.002285 -153.891851 
L 392.130648 -151.946215 
L 391.300165 -150.000579 
L 390.507061 -148.054943 
L 389.744547 -146.109307 
L 389.0045 -144.163671 
L 388.279274 -142.218035 
L 387.563343 -140.272399 
L 386.854496 -138.326764 
L 386.154407 -136.381128 
L 385.468505 -134.435492 
L 384.805166 -132.489856 
L 384.174406 -130.54422 
L 383.58629 -128.598584 
L 383.049354 -126.652948 
L 382.569299 -124.707312 
L 382.148187 -122.761676 
L 381.784244 -120.81604 
L 381.472269 -118.870405 
L 381.204546 -116.924769 
L 380.972051 -114.979133 
L 380.76573 -113.033497 
L 380.577621 -111.087861 
L 380.401644 -109.142225 
L 380.233984 -107.196589 
L 380.073058 -105.250953 
L 379.91914 -103.305317 
L 379.773771 -101.359681 
L 379.639099 -99.414046 
z
" style="stroke: #3a3a3a; stroke-width: 1.25"/>
    </defs>
    <g clip-path="url(#pe14d020904)">
     <use xlink:href="#m3962a8fdf3" x="0" y="345.6" style="fill: #9d262a; stroke: #3a3a3a; stroke-width: 1.25"/>
    </g>
   </g>
   <g id="matplotlib.axis_1">
    <g id="xtick_1">
     <g id="line2d_1">
      <defs>
       <path id="ma19ddb2b61" d="M 0 0 
L 0 3.5 
" style="stroke: #000000; stroke-width: 0.8"/>
      </defs>
      <g>
       <use xlink:href="#ma19ddb2b61" x="93.312" y="307.584" style="stroke: #000000; stroke-width: 0.8"/>
      </g>
     </g>
     <g id="text_1">
      <text style="font: 10px 'DejaVu Sans', 'Bitstream Vera Sans', 'Computer Modern Sans Serif', 'Lucida Grande', 'Verdana', 'Geneva', 'Lucid', 'Arial', 'Helvetica', 'Avant Garde', sans-serif; text-anchor: middle" x="93.312" y="322.182437" transform="rotate(-0 93.312 322.182437)">[-15, -10)</text>
     </g>
    </g>
    <g id="xtick_2">
     <g id="line2d_2">
      <g>
       <use xlink:href="#ma19ddb2b61" x="164.736" y="307.584" style="stroke: #000000; stroke-width: 0.8"/>
      </g>
     </g>
     <g id="text_2">
      <text style="font: 10px 'DejaVu Sans', 'Bitstream Vera Sans', 'Computer Modern Sans Serif', 'Lucida Grande', 'Verdana', 'Geneva', 'Lucid', 'Arial', 'Helvetica', 'Avant Garde', sans-serif; text-anchor: middle" x="164.736" y="322.182437" transform="rotate(-0 164.736 322.182437)">[-10, -5)</text>
     </g>
    </g>
    <g id="xtick_3">
     <g id="line2d_3">
      <g>
       <use xlink:href="#ma19ddb2b61" x="236.16" y="307.584" style="stroke: #000000; stroke-width: 0.8"/>
      </g>
     </g>
     <g id="text_3">
      <text style="font: 10px 'DejaVu Sans', 'Bitstream Vera Sans', 'Computer Modern Sans Serif', 'Lucida Grande', 'Verdana', 'Geneva', 'Lucid', 'Arial', 'Helvetica', 'Avant Garde', sans-serif; text-anchor: middle" x="236.16" y="322.182437" transform="rotate(-0 236.16 322.182437)">[-5, 5)</text>
     </g>
    </g>
    <g id="xtick_4">
     <g id="line2d_4">
      <g>
       <use xlink:href="#ma19ddb2b61" x="307.584" y="307.584" style="stroke: #000000; stroke-width: 0.8"/>
      </g>
     </g>
     <g id="text_4">
      <text style="font: 10px 'DejaVu Sans', 'Bitstream Vera Sans', 'Computer Modern Sans Serif', 'Lucida Grande', 'Verdana', 'Geneva', 'Lucid', 'Arial', 'Helvetica', 'Avant Garde', sans-serif; text-anchor: middle" x="307.584" y="322.182437" transform="rotate(-0 307.584 322.182437)">[5, 10)</text>
     </g>
    </g>
    <g id="xtick_5">
     <g id="line2d_5">
      <g>
       <use xlink:href="#ma19ddb2b61" x="379.008" y="307.584" style="stroke: #000000; stroke-width: 0.8"/>
      </g>
     </g>
     <g id="text_5">
      <text style="font: 10px 'DejaVu Sans', 'Bitstream Vera Sans', 'Computer Modern Sans Serif', 'Lucida Grande', 'Verdana', 'Geneva', 'Lucid', 'Arial', 'Helvetica', 'Avant Garde', sans-serif; text-anchor: middle" x="379.008" y="322.182437" transform="rotate(-0 379.008 322.182437)">[10, 15)</text>
     </g>
    </g>
    <g id="text_6">
     <text style="font: 10px 'DejaVu Sans', 'Bitstream Vera Sans', 'Computer Modern Sans Serif', 'Lucida Grande', 'Verdana', 'Geneva', 'Lucid', 'Arial', 'Helvetica', 'Avant Garde', sans-serif; text-anchor: middle" x="236.16" y="335.860562" transform="rotate(-0 236.16 335.860562)">mut_age_resid_bin</text>
    </g>
   </g>
   <g id="matplotlib.axis_2">
    <g id="ytick_1">
     <g id="line2d_6">
      <defs>
       <path id="ma63a315ef9" d="M 0 0 
L -3.5 0 
" style="stroke: #000000; stroke-width: 0.8"/>
      </defs>
      <g>
       <use xlink:href="#ma63a315ef9" x="57.6" y="289.101463" style="stroke: #000000; stroke-width: 0.8"/>
      </g>
     </g>
     <g id="text_7">
      <text style="font: 10px 'DejaVu Sans', 'Bitstream Vera Sans', 'Computer Modern Sans Serif', 'Lucida Grande', 'Verdana', 'Geneva', 'Lucid', 'Arial', 'Helvetica', 'Avant Garde', sans-serif; text-anchor: end" x="50.6" y="292.900682" transform="rotate(-0 50.6 292.900682)">−20</text>
     </g>
    </g>
    <g id="ytick_2">
     <g id="line2d_7">
      <g>
       <use xlink:href="#ma63a315ef9" x="57.6" y="238.393573" style="stroke: #000000; stroke-width: 0.8"/>
      </g>
     </g>
     <g id="text_8">
      <text style="font: 10px 'DejaVu Sans', 'Bitstream Vera Sans', 'Computer Modern Sans Serif', 'Lucida Grande', 'Verdana', 'Geneva', 'Lucid', 'Arial', 'Helvetica', 'Avant Garde', sans-serif; text-anchor: end" x="50.6" y="242.192792" transform="rotate(-0 50.6 242.192792)">−10</text>
     </g>
    </g>
    <g id="ytick_3">
     <g id="line2d_8">
      <g>
       <use xlink:href="#ma63a315ef9" x="57.6" y="187.685684" style="stroke: #000000; stroke-width: 0.8"/>
      </g>
     </g>
     <g id="text_9">
      <text style="font: 10px 'DejaVu Sans', 'Bitstream Vera Sans', 'Computer Modern Sans Serif', 'Lucida Grande', 'Verdana', 'Geneva', 'Lucid', 'Arial', 'Helvetica', 'Avant Garde', sans-serif; text-anchor: end" x="50.6" y="191.484903" transform="rotate(-0 50.6 191.484903)">0</text>
     </g>
    </g>
    <g id="ytick_4">
     <g id="line2d_9">
      <g>
       <use xlink:href="#ma63a315ef9" x="57.6" y="136.977795" style="stroke: #000000; stroke-width: 0.8"/>
      </g>
     </g>
     <g id="text_10">
      <text style="font: 10px 'DejaVu Sans', 'Bitstream Vera Sans', 'Computer Modern Sans Serif', 'Lucida Grande', 'Verdana', 'Geneva', 'Lucid', 'Arial', 'Helvetica', 'Avant Garde', sans-serif; text-anchor: end" x="50.6" y="140.777013" transform="rotate(-0 50.6 140.777013)">10</text>
     </g>
    </g>
    <g id="ytick_5">
     <g id="line2d_10">
      <g>
       <use xlink:href="#ma63a315ef9" x="57.6" y="86.269905" style="stroke: #000000; stroke-width: 0.8"/>
      </g>
     </g>
     <g id="text_11">
      <text style="font: 10px 'DejaVu Sans', 'Bitstream Vera Sans', 'Computer Modern Sans Serif', 'Lucida Grande', 'Verdana', 'Geneva', 'Lucid', 'Arial', 'Helvetica', 'Avant Garde', sans-serif; text-anchor: end" x="50.6" y="90.069124" transform="rotate(-0 50.6 90.069124)">20</text>
     </g>
    </g>
    <g id="text_12">
     <text style="font: 10px 'DejaVu Sans', 'Bitstream Vera Sans', 'Computer Modern Sans Serif', 'Lucida Grande', 'Verdana', 'Geneva', 'Lucid', 'Arial', 'Helvetica', 'Avant Garde', sans-serif; text-anchor: middle" x="23.1375" y="174.528" transform="rotate(-90 23.1375 174.528)">methyl_age_resid</text>
    </g>
   </g>
   <g id="line2d_11">
    <path d="M 93.312 278.524852 
L 93.312 129.869024 
" clip-path="url(#pe14d020904)" style="fill: none; stroke: #3a3a3a; stroke-width: 1.875; stroke-linecap: square"/>
   </g>
   <g id="line2d_12">
    <path d="M 93.312 231.959096 
L 93.312 184.535269 
" clip-path="url(#pe14d020904)" style="fill: none; stroke: #3a3a3a; stroke-width: 5.625; stroke-linecap: square"/>
   </g>
   <g id="line2d_13">
    <path d="M 93.312 212.239115 
" clip-path="url(#pe14d020904)" style="fill: none; stroke: #3a3a3a; stroke-width: 1.5; stroke-linecap: square"/>
    <defs>
     <path id="m385b98214c" d="M 2.34375 0 
L -2.34375 -0 
" style="stroke: #ffffff; stroke-width: 1.125"/>
    </defs>
    <g clip-path="url(#pe14d020904)">
     <use xlink:href="#m385b98214c" x="93.312" y="212.239115" style="fill: #ffffff; stroke: #ffffff; stroke-width: 1.125"/>
    </g>
   </g>
   <g id="line2d_14">
    <path d="M 164.736 270.770981 
L 164.736 127.848224 
" clip-path="url(#pe14d020904)" style="fill: none; stroke: #3a3a3a; stroke-width: 1.875; stroke-linecap: square"/>
   </g>
   <g id="line2d_15">
    <path d="M 164.736 220.361423 
L 164.736 182.27202 
" clip-path="url(#pe14d020904)" style="fill: none; stroke: #3a3a3a; stroke-width: 5.625; stroke-linecap: square"/>
   </g>
   <g id="line2d_16">
    <path d="M 164.736 202.354924 
" clip-path="url(#pe14d020904)" style="fill: none; stroke: #3a3a3a; stroke-width: 1.5; stroke-linecap: square"/>
    <g clip-path="url(#pe14d020904)">
     <use xlink:href="#m385b98214c" x="164.736" y="202.354924" style="fill: #ffffff; stroke: #ffffff; stroke-width: 1.125"/>
    </g>
   </g>
   <g id="line2d_17">
    <path d="M 236.16 272.931565 
L 236.16 113.830643 
" clip-path="url(#pe14d020904)" style="fill: none; stroke: #3a3a3a; stroke-width: 1.875; stroke-linecap: square"/>
   </g>
   <g id="line2d_18">
    <path d="M 236.16 213.138799 
L 236.16 173.180415 
" clip-path="url(#pe14d020904)" style="fill: none; stroke: #3a3a3a; stroke-width: 5.625; stroke-linecap: square"/>
   </g>
   <g id="line2d_19">
    <path d="M 236.16 192.067653 
" clip-path="url(#pe14d020904)" style="fill: none; stroke: #3a3a3a; stroke-width: 1.5; stroke-linecap: square"/>
    <g clip-path="url(#pe14d020904)">
     <use xlink:href="#m385b98214c" x="236.16" y="192.067653" style="fill: #ffffff; stroke: #ffffff; stroke-width: 1.125"/>
    </g>
   </g>
   <g id="line2d_20">
    <path d="M 307.584 236.057658 
L 307.584 108.032253 
" clip-path="url(#pe14d020904)" style="fill: none; stroke: #3a3a3a; stroke-width: 1.875; stroke-linecap: square"/>
   </g>
   <g id="line2d_21">
    <path d="M 307.584 190.593378 
L 307.584 152.330258 
" clip-path="url(#pe14d020904)" style="fill: none; stroke: #3a3a3a; stroke-width: 5.625; stroke-linecap: square"/>
   </g>
   <g id="line2d_22">
    <path d="M 307.584 169.533494 
" clip-path="url(#pe14d020904)" style="fill: none; stroke: #3a3a3a; stroke-width: 1.5; stroke-linecap: square"/>
    <g clip-path="url(#pe14d020904)">
     <use xlink:href="#m385b98214c" x="307.584" y="169.533494" style="fill: #ffffff; stroke: #ffffff; stroke-width: 1.125"/>
    </g>
   </g>
   <g id="line2d_23">
    <path d="M 379.008 228.948107 
L 379.008 95.851661 
" clip-path="url(#pe14d020904)" style="fill: none; stroke: #3a3a3a; stroke-width: 1.875; stroke-linecap: square"/>
   </g>
   <g id="line2d_24">
    <path d="M 379.008 176.231052 
L 379.008 138.68202 
" clip-path="url(#pe14d020904)" style="fill: none; stroke: #3a3a3a; stroke-width: 5.625; stroke-linecap: square"/>
   </g>
   <g id="line2d_25">
    <path d="M 379.008 153.688391 
" clip-path="url(#pe14d020904)" style="fill: none; stroke: #3a3a3a; stroke-width: 1.5; stroke-linecap: square"/>
    <g clip-path="url(#pe14d020904)">
     <use xlink:href="#m385b98214c" x="379.008" y="153.688391" style="fill: #ffffff; stroke: #ffffff; stroke-width: 1.125"/>
    </g>
   </g>
   <g id="line2d_26">
    <path d="M 57.6 187.685684 
L 414.72 187.685684 
" clip-path="url(#pe14d020904)" style="fill: none; stroke-dasharray: 5.55,2.4; stroke-dashoffset: 0; stroke: #000000; stroke-width: 1.5"/>
   </g>
   <g id="patch_3">
    <path d="M 57.6 307.584 
L 57.6 41.472 
" style="fill: none; stroke: #000000; stroke-width: 0.8; stroke-linejoin: miter; stroke-linecap: square"/>
   </g>
   <g id="patch_4">
    <path d="M 57.6 307.584 
L 414.72 307.584 
" style="fill: none; stroke: #000000; stroke-width: 0.8; stroke-linejoin: miter; stroke-linecap: square"/>
   </g>
   <g id="text_13">
    <text style="font: 10px 'DejaVu Sans', 'Bitstream Vera Sans', 'Computer Modern Sans Serif', 'Lucida Grande', 'Verdana', 'Geneva', 'Lucid', 'Arial', 'Helvetica', 'Avant Garde', sans-serif" transform="translate(75.456 70.190988)">r = 0.45</text>
    <text style="font: 10px 'DejaVu Sans', 'Bitstream Vera Sans', 'Computer Modern Sans Serif', 'Lucida Grande', 'Verdana', 'Geneva', 'Lucid', 'Arial', 'Helvetica', 'Avant Garde', sans-serif" transform="translate(75.456 81.3888)">p = 1.48e-82</text>
   </g>
  </g>
 </g>
 <defs>
  <clipPath id="pe14d020904">
   <rect x="57.6" y="41.472" width="357.12" height="266.112"/>
  </clipPath>
 </defs>
</svg>
