<?xml version="1.0" encoding="utf-8" standalone="no"?>
<!DOCTYPE svg PUBLIC "-//W3C//DTD SVG 1.1//EN"
  "http://www.w3.org/Graphics/SVG/1.1/DTD/svg11.dtd">
<svg xmlns:xlink="http://www.w3.org/1999/xlink" width="576pt" height="360pt" viewBox="0 0 576 360" xmlns="http://www.w3.org/2000/svg" version="1.1">
 <metadata>
  <rdf:RDF xmlns:dc="http://purl.org/dc/elements/1.1/" xmlns:cc="http://creativecommons.org/ns#" xmlns:rdf="http://www.w3.org/1999/02/22-rdf-syntax-ns#">
   <cc:Work>
    <dc:type rdf:resource="http://purl.org/dc/dcmitype/StillImage"/>
    <dc:date>2024-10-16T14:38:05.216619</dc:date>
    <dc:format>image/svg+xml</dc:format>
    <dc:creator>
     <cc:Agent>
      <dc:title>Matplotlib v3.7.1, https://matplotlib.org/</dc:title>
     </cc:Agent>
    </dc:creator>
   </cc:Work>
  </rdf:RDF>
 </metadata>
 <defs>
  <style type="text/css">*{stroke-linejoin: round; stroke-linecap: butt}</style>
 </defs>
 <g id="figure_1">
  <g id="patch_1">
   <path d="M 0 360 
L 576 360 
L 576 0 
L 0 0 
z
" style="fill: #ffffff"/>
  </g>
  <g id="axes_1">
   <g id="patch_2">
    <path d="M 72 320.4 
L 518.4 320.4 
L 518.4 43.2 
L 72 43.2 
z
" style="fill: #ffffff"/>
   </g>
   <g id="PolyCollection_1">
    <defs>
     <path id="m2677731460" d="M 92.290909 -166.838435 
L 92.290909 -39.6 
L 94.330196 -39.6 
L 96.369484 -39.6 
L 98.408771 -39.6 
L 100.448058 -39.6 
L 102.487346 -39.6 
L 104.526633 -39.6 
L 106.565921 -39.6 
L 108.605208 -39.6 
L 110.644495 -39.6 
L 112.683783 -39.6 
L 114.72307 -39.6 
L 116.762357 -39.6 
L 118.801645 -39.6 
L 120.840932 -39.6 
L 122.880219 -39.6 
L 124.919507 -39.6 
L 126.958794 -39.6 
L 128.998081 -39.6 
L 131.037369 -39.6 
L 133.076656 -39.6 
L 135.115943 -39.6 
L 137.155231 -39.6 
L 139.194518 -39.6 
L 141.233805 -39.6 
L 143.273093 -39.6 
L 145.31238 -39.6 
L 147.351667 -39.6 
L 149.390955 -39.6 
L 151.430242 -39.6 
L 153.469529 -39.6 
L 155.508817 -39.6 
L 157.548104 -39.6 
L 159.587392 -39.6 
L 161.626679 -39.6 
L 163.665966 -39.6 
L 165.705254 -39.6 
L 167.744541 -39.6 
L 169.783828 -39.6 
L 171.823116 -39.6 
L 173.862403 -39.6 
L 175.90169 -39.6 
L 177.940978 -39.6 
L 179.980265 -39.6 
L 182.019552 -39.6 
L 184.05884 -39.6 
L 186.098127 -39.6 
L 188.137414 -39.6 
L 190.176702 -39.6 
L 192.215989 -39.6 
L 194.255276 -39.6 
L 196.294564 -39.6 
L 198.333851 -39.6 
L 200.373138 -39.6 
L 202.412426 -39.6 
L 204.451713 -39.6 
L 206.491 -39.6 
L 208.530288 -39.6 
L 210.569575 -39.6 
L 212.608862 -39.6 
L 214.64815 -39.6 
L 216.687437 -39.6 
L 218.726725 -39.6 
L 220.766012 -39.6 
L 222.805299 -39.6 
L 224.844587 -39.6 
L 226.883874 -39.6 
L 228.923161 -39.6 
L 230.962449 -39.6 
L 233.001736 -39.6 
L 235.041023 -39.6 
L 237.080311 -39.6 
L 239.119598 -39.6 
L 241.158885 -39.6 
L 243.198173 -39.6 
L 245.23746 -39.6 
L 247.276747 -39.6 
L 249.316035 -39.6 
L 251.355322 -39.6 
L 253.394609 -39.6 
L 255.433897 -39.6 
L 257.473184 -39.6 
L 259.512471 -39.6 
L 261.551759 -39.6 
L 263.591046 -39.6 
L 265.630333 -39.6 
L 267.669621 -39.6 
L 269.708908 -39.6 
L 271.748196 -39.6 
L 273.787483 -39.6 
L 275.82677 -39.6 
L 277.866058 -39.6 
L 279.905345 -39.6 
L 281.944632 -39.6 
L 283.98392 -39.6 
L 286.023207 -39.6 
L 288.062494 -39.6 
L 290.101782 -39.6 
L 292.141069 -39.6 
L 294.180356 -39.6 
L 296.219644 -39.6 
L 298.258931 -39.6 
L 300.298218 -39.6 
L 302.337506 -39.6 
L 304.376793 -39.6 
L 306.41608 -39.6 
L 308.455368 -39.6 
L 310.494655 -39.6 
L 312.533942 -39.6 
L 314.57323 -39.6 
L 316.612517 -39.6 
L 318.651804 -39.6 
L 320.691092 -39.6 
L 322.730379 -39.6 
L 324.769667 -39.6 
L 326.808954 -39.6 
L 328.848241 -39.6 
L 330.887529 -39.6 
L 332.926816 -39.6 
L 334.966103 -39.6 
L 337.005391 -39.6 
L 339.044678 -39.6 
L 341.083965 -39.6 
L 343.123253 -39.6 
L 345.16254 -39.6 
L 347.201827 -39.6 
L 349.241115 -39.6 
L 351.280402 -39.6 
L 353.319689 -39.6 
L 355.358977 -39.6 
L 357.398264 -39.6 
L 359.437551 -39.6 
L 361.476839 -39.6 
L 363.516126 -39.6 
L 365.555413 -39.6 
L 367.594701 -39.6 
L 369.633988 -39.6 
L 371.673275 -39.6 
L 373.712563 -39.6 
L 375.75185 -39.6 
L 377.791138 -39.6 
L 379.830425 -39.6 
L 381.869712 -39.6 
L 383.909 -39.6 
L 385.948287 -39.6 
L 387.987574 -39.6 
L 390.026862 -39.6 
L 392.066149 -39.6 
L 394.105436 -39.6 
L 396.144724 -39.6 
L 398.184011 -39.6 
L 400.223298 -39.6 
L 402.262586 -39.6 
L 404.301873 -39.6 
L 406.34116 -39.6 
L 408.380448 -39.6 
L 410.419735 -39.6 
L 412.459022 -39.6 
L 414.49831 -39.6 
L 416.537597 -39.6 
L 418.576884 -39.6 
L 420.616172 -39.6 
L 422.655459 -39.6 
L 424.694746 -39.6 
L 426.734034 -39.6 
L 428.773321 -39.6 
L 430.812608 -39.6 
L 432.851896 -39.6 
L 434.891183 -39.6 
L 436.930471 -39.6 
L 438.969758 -39.6 
L 441.009045 -39.6 
L 443.048333 -39.6 
L 445.08762 -39.6 
L 447.126907 -39.6 
L 449.166195 -39.6 
L 451.205482 -39.6 
L 453.244769 -39.6 
L 455.284057 -39.6 
L 457.323344 -39.6 
L 459.362631 -39.6 
L 461.401919 -39.6 
L 463.441206 -39.6 
L 465.480493 -39.6 
L 467.519781 -39.6 
L 469.559068 -39.6 
L 471.598355 -39.6 
L 473.637643 -39.6 
L 475.67693 -39.6 
L 477.716217 -39.6 
L 479.755505 -39.6 
L 481.794792 -39.6 
L 483.834079 -39.6 
L 485.873367 -39.6 
L 487.912654 -39.6 
L 489.951942 -39.6 
L 491.991229 -39.6 
L 494.030516 -39.6 
L 496.069804 -39.6 
L 498.109091 -39.6 
L 498.109091 -53.833459 
L 498.109091 -53.833459 
L 496.069804 -57.25599 
L 494.030516 -61.137494 
L 491.991229 -65.474779 
L 489.951942 -70.261431 
L 487.912654 -75.489788 
L 485.873367 -81.151333 
L 483.834079 -87.234998 
L 481.794792 -93.723469 
L 479.755505 -100.588125 
L 477.716217 -107.78375 
L 475.67693 -115.244362 
L 473.637643 -122.881379 
L 471.598355 -130.58492 
L 469.559068 -138.228409 
L 467.519781 -145.675994 
L 465.480493 -152.79174 
L 463.441206 -159.449242 
L 461.401919 -165.540315 
L 459.362631 -170.981615 
L 457.323344 -175.718509 
L 455.284057 -179.725979 
L 453.244769 -183.006811 
L 451.205482 -185.587655 
L 449.166195 -187.513736 
L 447.126907 -188.843019 
L 445.08762 -189.640561 
L 443.048333 -189.973575 
L 441.009045 -189.90756 
L 438.969758 -189.503612 
L 436.930471 -188.816868 
L 434.891183 -187.89591 
L 432.851896 -186.782851 
L 430.812608 -185.513836 
L 428.773321 -184.119694 
L 426.734034 -182.626554 
L 424.694746 -181.056305 
L 422.655459 -179.426897 
L 420.616172 -177.752533 
L 418.576884 -176.043852 
L 416.537597 -174.308213 
L 414.49831 -172.550176 
L 412.459022 -170.772183 
L 410.419735 -168.975449 
L 408.380448 -167.160931 
L 406.34116 -165.330281 
L 404.301873 -163.486627 
L 402.262586 -161.635068 
L 400.223298 -159.78279 
L 398.184011 -157.938792 
L 396.144724 -156.113236 
L 394.105436 -154.316521 
L 392.066149 -152.558209 
L 390.026862 -150.845955 
L 387.987574 -149.184618 
L 385.948287 -147.575688 
L 383.909 -146.017152 
L 381.869712 -144.50383 
L 379.830425 -143.028176 
L 377.791138 -141.581406 
L 375.75185 -140.154805 
L 373.712563 -138.740965 
L 371.673275 -137.334755 
L 369.633988 -135.933831 
L 367.594701 -134.538632 
L 365.555413 -133.151875 
L 363.516126 -131.777703 
L 361.476839 -130.420708 
L 359.437551 -129.085058 
L 357.398264 -127.773918 
L 355.358977 -126.489281 
L 353.319689 -125.232172 
L 351.280402 -124.003128 
L 349.241115 -122.802765 
L 347.201827 -121.632248 
L 345.16254 -120.493522 
L 343.123253 -119.389252 
L 341.083965 -118.32248 
L 339.044678 -117.29611 
L 337.005391 -116.312339 
L 334.966103 -115.372153 
L 332.926816 -114.475006 
L 330.887529 -113.6187 
L 328.848241 -112.799486 
L 326.808954 -112.01236 
L 324.769667 -111.251484 
L 322.730379 -110.510697 
L 320.691092 -109.784057 
L 318.651804 -109.06636 
L 316.612517 -108.353597 
L 314.57323 -107.643318 
L 312.533942 -106.934849 
L 310.494655 -106.229359 
L 308.455368 -105.529734 
L 306.41608 -104.840285 
L 304.376793 -104.166285 
L 302.337506 -103.513384 
L 300.298218 -102.886951 
L 298.258931 -102.291411 
L 296.219644 -101.729662 
L 294.180356 -101.202644 
L 292.141069 -100.709143 
L 290.101782 -100.245864 
L 288.062494 -99.807795 
L 286.023207 -99.388832 
L 283.98392 -98.982577 
L 281.944632 -98.5832 
L 279.905345 -98.186231 
L 277.866058 -97.789153 
L 275.82677 -97.391676 
L 273.787483 -96.995677 
L 271.748196 -96.604786 
L 269.708908 -96.223741 
L 267.669621 -95.857606 
L 265.630333 -95.51104 
L 263.591046 -95.187728 
L 261.551759 -94.890093 
L 259.512471 -94.619284 
L 257.473184 -94.375414 
L 255.433897 -94.157917 
L 253.394609 -93.965894 
L 251.355322 -93.798325 
L 249.316035 -93.654072 
L 247.276747 -93.531676 
L 245.23746 -93.429041 
L 243.198173 -93.343134 
L 241.158885 -93.26986 
L 239.119598 -93.204238 
L 237.080311 -93.140911 
L 235.041023 -93.074955 
L 233.001736 -93.00284 
L 230.962449 -92.923359 
L 228.923161 -92.838312 
L 226.883874 -92.752802 
L 224.844587 -92.675043 
L 222.805299 -92.615728 
L 220.766012 -92.587049 
L 218.726725 -92.601542 
L 216.687437 -92.67094 
L 214.64815 -92.805201 
L 212.608862 -93.01179 
L 210.569575 -93.295277 
L 208.530288 -93.657218 
L 206.491 -94.096265 
L 204.451713 -94.608438 
L 202.412426 -95.187504 
L 200.373138 -95.825425 
L 198.333851 -96.512857 
L 196.294564 -97.23971 
L 194.255276 -97.995754 
L 192.215989 -98.771288 
L 190.176702 -99.557826 
L 188.137414 -100.348783 
L 186.098127 -101.140089 
L 184.05884 -101.930672 
L 182.019552 -102.722737 
L 179.980265 -103.521806 
L 177.940978 -104.336467 
L 175.90169 -105.177888 
L 173.862403 -106.059153 
L 171.823116 -106.994547 
L 169.783828 -107.998972 
L 167.744541 -109.087655 
L 165.705254 -110.276303 
L 163.665966 -111.58181 
L 161.626679 -113.023523 
L 159.587392 -114.624981 
L 157.548104 -116.415958 
L 155.508817 -118.434583 
L 153.469529 -120.729269 
L 151.430242 -123.360207 
L 149.390955 -126.400227 
L 147.351667 -129.934834 
L 145.31238 -134.06131 
L 143.273093 -138.886669 
L 141.233805 -144.524258 
L 139.194518 -151.088582 
L 137.155231 -158.687891 
L 135.115943 -167.413964 
L 133.076656 -177.328661 
L 131.037369 -188.447178 
L 128.998081 -200.718541 
L 126.958794 -214.004833 
L 124.919507 -228.061629 
L 122.880219 -242.523175 
L 120.840932 -256.896472 
L 118.801645 -270.568491 
L 116.762357 -282.829869 
L 114.72307 -292.916614 
L 112.683783 -300.068556 
L 110.644495 -303.6 
L 108.605208 -302.974774 
L 106.565921 -297.875487 
L 104.526633 -288.255936 
L 102.487346 -274.366878 
L 100.448058 -256.748729 
L 98.408771 -236.189856 
L 96.369484 -213.654915 
L 94.330196 -190.192934 
L 92.290909 -166.838435 
z
" style="stroke: #808080; stroke-width: 0.8"/>
    </defs>
    <g clip-path="url(#pf1ce6e8030)">
     <use xlink:href="#m2677731460" x="0" y="360" style="fill: #808080; fill-opacity: 0.25; stroke: #808080; stroke-width: 0.8"/>
    </g>
   </g>
   <g id="PolyCollection_2">
    <defs>
     <path id="m6bbafd4234" d="M 92.290909 -83.125368 
L 92.290909 -39.6 
L 94.330196 -39.6 
L 96.369484 -39.6 
L 98.408771 -39.6 
L 100.448058 -39.6 
L 102.487346 -39.6 
L 104.526633 -39.6 
L 106.565921 -39.6 
L 108.605208 -39.6 
L 110.644495 -39.6 
L 112.683783 -39.6 
L 114.72307 -39.6 
L 116.762357 -39.6 
L 118.801645 -39.6 
L 120.840932 -39.6 
L 122.880219 -39.6 
L 124.919507 -39.6 
L 126.958794 -39.6 
L 128.998081 -39.6 
L 131.037369 -39.6 
L 133.076656 -39.6 
L 135.115943 -39.6 
L 137.155231 -39.6 
L 139.194518 -39.6 
L 141.233805 -39.6 
L 143.273093 -39.6 
L 145.31238 -39.6 
L 147.351667 -39.6 
L 149.390955 -39.6 
L 151.430242 -39.6 
L 153.469529 -39.6 
L 155.508817 -39.6 
L 157.548104 -39.6 
L 159.587392 -39.6 
L 161.626679 -39.6 
L 163.665966 -39.6 
L 165.705254 -39.6 
L 167.744541 -39.6 
L 169.783828 -39.6 
L 171.823116 -39.6 
L 173.862403 -39.6 
L 175.90169 -39.6 
L 177.940978 -39.6 
L 179.980265 -39.6 
L 182.019552 -39.6 
L 184.05884 -39.6 
L 186.098127 -39.6 
L 188.137414 -39.6 
L 190.176702 -39.6 
L 192.215989 -39.6 
L 194.255276 -39.6 
L 196.294564 -39.6 
L 198.333851 -39.6 
L 200.373138 -39.6 
L 202.412426 -39.6 
L 204.451713 -39.6 
L 206.491 -39.6 
L 208.530288 -39.6 
L 210.569575 -39.6 
L 212.608862 -39.6 
L 214.64815 -39.6 
L 216.687437 -39.6 
L 218.726725 -39.6 
L 220.766012 -39.6 
L 222.805299 -39.6 
L 224.844587 -39.6 
L 226.883874 -39.6 
L 228.923161 -39.6 
L 230.962449 -39.6 
L 233.001736 -39.6 
L 235.041023 -39.6 
L 237.080311 -39.6 
L 239.119598 -39.6 
L 241.158885 -39.6 
L 243.198173 -39.6 
L 245.23746 -39.6 
L 247.276747 -39.6 
L 249.316035 -39.6 
L 251.355322 -39.6 
L 253.394609 -39.6 
L 255.433897 -39.6 
L 257.473184 -39.6 
L 259.512471 -39.6 
L 261.551759 -39.6 
L 263.591046 -39.6 
L 265.630333 -39.6 
L 267.669621 -39.6 
L 269.708908 -39.6 
L 271.748196 -39.6 
L 273.787483 -39.6 
L 275.82677 -39.6 
L 277.866058 -39.6 
L 279.905345 -39.6 
L 281.944632 -39.6 
L 283.98392 -39.6 
L 286.023207 -39.6 
L 288.062494 -39.6 
L 290.101782 -39.6 
L 292.141069 -39.6 
L 294.180356 -39.6 
L 296.219644 -39.6 
L 298.258931 -39.6 
L 300.298218 -39.6 
L 302.337506 -39.6 
L 304.376793 -39.6 
L 306.41608 -39.6 
L 308.455368 -39.6 
L 310.494655 -39.6 
L 312.533942 -39.6 
L 314.57323 -39.6 
L 316.612517 -39.6 
L 318.651804 -39.6 
L 320.691092 -39.6 
L 322.730379 -39.6 
L 324.769667 -39.6 
L 326.808954 -39.6 
L 328.848241 -39.6 
L 330.887529 -39.6 
L 332.926816 -39.6 
L 334.966103 -39.6 
L 337.005391 -39.6 
L 339.044678 -39.6 
L 341.083965 -39.6 
L 343.123253 -39.6 
L 345.16254 -39.6 
L 347.201827 -39.6 
L 349.241115 -39.6 
L 351.280402 -39.6 
L 353.319689 -39.6 
L 355.358977 -39.6 
L 357.398264 -39.6 
L 359.437551 -39.6 
L 361.476839 -39.6 
L 363.516126 -39.6 
L 365.555413 -39.6 
L 367.594701 -39.6 
L 369.633988 -39.6 
L 371.673275 -39.6 
L 373.712563 -39.6 
L 375.75185 -39.6 
L 377.791138 -39.6 
L 379.830425 -39.6 
L 381.869712 -39.6 
L 383.909 -39.6 
L 385.948287 -39.6 
L 387.987574 -39.6 
L 390.026862 -39.6 
L 392.066149 -39.6 
L 394.105436 -39.6 
L 396.144724 -39.6 
L 398.184011 -39.6 
L 400.223298 -39.6 
L 402.262586 -39.6 
L 404.301873 -39.6 
L 406.34116 -39.6 
L 408.380448 -39.6 
L 410.419735 -39.6 
L 412.459022 -39.6 
L 414.49831 -39.6 
L 416.537597 -39.6 
L 418.576884 -39.6 
L 420.616172 -39.6 
L 422.655459 -39.6 
L 424.694746 -39.6 
L 426.734034 -39.6 
L 428.773321 -39.6 
L 430.812608 -39.6 
L 432.851896 -39.6 
L 434.891183 -39.6 
L 436.930471 -39.6 
L 438.969758 -39.6 
L 441.009045 -39.6 
L 443.048333 -39.6 
L 445.08762 -39.6 
L 447.126907 -39.6 
L 449.166195 -39.6 
L 451.205482 -39.6 
L 453.244769 -39.6 
L 455.284057 -39.6 
L 457.323344 -39.6 
L 459.362631 -39.6 
L 461.401919 -39.6 
L 463.441206 -39.6 
L 465.480493 -39.6 
L 467.519781 -39.6 
L 469.559068 -39.6 
L 471.598355 -39.6 
L 473.637643 -39.6 
L 475.67693 -39.6 
L 477.716217 -39.6 
L 479.755505 -39.6 
L 481.794792 -39.6 
L 483.834079 -39.6 
L 485.873367 -39.6 
L 487.912654 -39.6 
L 489.951942 -39.6 
L 491.991229 -39.6 
L 494.030516 -39.6 
L 496.069804 -39.6 
L 498.109091 -39.6 
L 498.109091 -100.400399 
L 498.109091 -100.400399 
L 496.069804 -103.865676 
L 494.030516 -107.347205 
L 491.991229 -110.829507 
L 489.951942 -114.296795 
L 487.912654 -117.733153 
L 485.873367 -121.122715 
L 483.834079 -124.449845 
L 481.794792 -127.699313 
L 479.755505 -130.856468 
L 477.716217 -133.907401 
L 475.67693 -136.839097 
L 473.637643 -139.639569 
L 471.598355 -142.297977 
L 469.559068 -144.804732 
L 467.519781 -147.151572 
L 465.480493 -149.331624 
L 463.441206 -151.33944 
L 461.401919 -153.17101 
L 459.362631 -154.823762 
L 457.323344 -156.296532 
L 455.284057 -157.589522 
L 453.244769 -158.704236 
L 451.205482 -159.643408 
L 449.166195 -160.410911 
L 447.126907 -161.011659 
L 445.08762 -161.451504 
L 443.048333 -161.737121 
L 441.009045 -161.875899 
L 438.969758 -161.875826 
L 436.930471 -161.74538 
L 434.891183 -161.49342 
L 432.851896 -161.12909 
L 430.812608 -160.661717 
L 428.773321 -160.100735 
L 426.734034 -159.455597 
L 424.694746 -158.735716 
L 422.655459 -157.9504 
L 420.616172 -157.1088 
L 418.576884 -156.219871 
L 416.537597 -155.292335 
L 414.49831 -154.33465 
L 412.459022 -153.354989 
L 410.419735 -152.36122 
L 408.380448 -151.360892 
L 406.34116 -150.36122 
L 404.301873 -149.369078 
L 402.262586 -148.390985 
L 400.223298 -147.433097 
L 398.184011 -146.501201 
L 396.144724 -145.600697 
L 394.105436 -144.736595 
L 392.066149 -143.913499 
L 390.026862 -143.135596 
L 387.987574 -142.406643 
L 385.948287 -141.729956 
L 383.909 -141.108396 
L 381.869712 -140.544363 
L 379.830425 -140.03978 
L 377.791138 -139.596093 
L 375.75185 -139.214261 
L 373.712563 -138.894759 
L 371.673275 -138.637579 
L 369.633988 -138.442236 
L 367.594701 -138.30778 
L 365.555413 -138.232811 
L 363.516126 -138.215497 
L 361.476839 -138.2536 
L 359.437551 -138.344503 
L 357.398264 -138.485243 
L 355.358977 -138.672545 
L 353.319689 -138.902866 
L 351.280402 -139.17243 
L 349.241115 -139.477278 
L 347.201827 -139.813313 
L 345.16254 -140.176345 
L 343.123253 -140.562141 
L 341.083965 -140.96647 
L 339.044678 -141.385152 
L 337.005391 -141.814104 
L 334.966103 -142.24938 
L 332.926816 -142.687215 
L 330.887529 -143.124058 
L 328.848241 -143.556613 
L 326.808954 -143.981859 
L 324.769667 -144.397081 
L 322.730379 -144.799885 
L 320.691092 -145.188214 
L 318.651804 -145.560353 
L 316.612517 -145.914931 
L 314.57323 -146.250915 
L 312.533942 -146.567598 
L 310.494655 -146.864577 
L 308.455368 -147.141733 
L 306.41608 -147.399196 
L 304.376793 -147.637309 
L 302.337506 -147.856586 
L 300.298218 -148.057662 
L 298.258931 -148.241248 
L 296.219644 -148.408073 
L 294.180356 -148.558832 
L 292.141069 -148.69413 
L 290.101782 -148.814429 
L 288.062494 -148.919993 
L 286.023207 -149.010846 
L 283.98392 -149.08672 
L 281.944632 -149.147027 
L 279.905345 -149.190825 
L 277.866058 -149.216798 
L 275.82677 -149.223246 
L 273.787483 -149.208081 
L 271.748196 -149.168844 
L 269.708908 -149.102718 
L 267.669621 -149.006565 
L 265.630333 -148.876964 
L 263.591046 -148.710269 
L 261.551759 -148.502666 
L 259.512471 -148.250242 
L 257.473184 -147.949059 
L 255.433897 -147.59524 
L 253.394609 -147.185041 
L 251.355322 -146.714943 
L 249.316035 -146.181731 
L 247.276747 -145.582571 
L 245.23746 -144.915087 
L 243.198173 -144.177428 
L 241.158885 -143.368322 
L 239.119598 -142.487135 
L 237.080311 -141.5339 
L 235.041023 -140.509349 
L 233.001736 -139.414925 
L 230.962449 -138.252789 
L 228.923161 -137.025806 
L 226.883874 -135.737523 
L 224.844587 -134.392145 
L 222.805299 -132.994482 
L 220.766012 -131.549908 
L 218.726725 -130.064296 
L 216.687437 -128.543959 
L 214.64815 -126.995581 
L 212.608862 -125.426143 
L 210.569575 -123.842852 
L 208.530288 -122.253073 
L 206.491 -120.664249 
L 204.451713 -119.083837 
L 202.412426 -117.519243 
L 200.373138 -115.977753 
L 198.333851 -114.466478 
L 196.294564 -112.992299 
L 194.255276 -111.561812 
L 192.215989 -110.181285 
L 190.176702 -108.856609 
L 188.137414 -107.593261 
L 186.098127 -106.396259 
L 184.05884 -105.27013 
L 182.019552 -104.218872 
L 179.980265 -103.245917 
L 177.940978 -102.354099 
L 175.90169 -101.545618 
L 173.862403 -100.822006 
L 171.823116 -100.184094 
L 169.783828 -99.631981 
L 167.744541 -99.165004 
L 165.705254 -98.78171 
L 163.665966 -98.479833 
L 161.626679 -98.256274 
L 159.587392 -98.107093 
L 157.548104 -98.027501 
L 155.508817 -98.011869 
L 153.469529 -98.053739 
L 151.430242 -98.145856 
L 149.390955 -98.280207 
L 147.351667 -98.448076 
L 145.31238 -98.640109 
L 143.273093 -98.846402 
L 141.233805 -99.056594 
L 139.194518 -99.259977 
L 137.155231 -99.445623 
L 135.115943 -99.602512 
L 133.076656 -99.71968 
L 131.037369 -99.786363 
L 128.998081 -99.792152 
L 126.958794 -99.727151 
L 124.919507 -99.58212 
L 122.880219 -99.348632 
L 120.840932 -99.019202 
L 118.801645 -98.587419 
L 116.762357 -98.048052 
L 114.72307 -97.39715 
L 112.683783 -96.632108 
L 110.644495 -95.751723 
L 108.605208 -94.756218 
L 106.565921 -93.647247 
L 104.526633 -92.427871 
L 102.487346 -91.102514 
L 100.448058 -89.676888 
L 98.408771 -88.157903 
L 96.369484 -86.553555 
L 94.330196 -84.872792 
L 92.290909 -83.125368 
z
" style="stroke: #800000; stroke-width: 0.8"/>
    </defs>
    <g clip-path="url(#pf1ce6e8030)">
     <use xlink:href="#m6bbafd4234" x="0" y="360" style="fill: #800000; fill-opacity: 0.25; stroke: #800000; stroke-width: 0.8"/>
    </g>
   </g>
   <g id="PolyCollection_3">
    <defs>
     <path id="mefd0ebf9ee" d="M 92.290909 -74.174532 
L 92.290909 -39.6 
L 94.330196 -39.6 
L 96.369484 -39.6 
L 98.408771 -39.6 
L 100.448058 -39.6 
L 102.487346 -39.6 
L 104.526633 -39.6 
L 106.565921 -39.6 
L 108.605208 -39.6 
L 110.644495 -39.6 
L 112.683783 -39.6 
L 114.72307 -39.6 
L 116.762357 -39.6 
L 118.801645 -39.6 
L 120.840932 -39.6 
L 122.880219 -39.6 
L 124.919507 -39.6 
L 126.958794 -39.6 
L 128.998081 -39.6 
L 131.037369 -39.6 
L 133.076656 -39.6 
L 135.115943 -39.6 
L 137.155231 -39.6 
L 139.194518 -39.6 
L 141.233805 -39.6 
L 143.273093 -39.6 
L 145.31238 -39.6 
L 147.351667 -39.6 
L 149.390955 -39.6 
L 151.430242 -39.6 
L 153.469529 -39.6 
L 155.508817 -39.6 
L 157.548104 -39.6 
L 159.587392 -39.6 
L 161.626679 -39.6 
L 163.665966 -39.6 
L 165.705254 -39.6 
L 167.744541 -39.6 
L 169.783828 -39.6 
L 171.823116 -39.6 
L 173.862403 -39.6 
L 175.90169 -39.6 
L 177.940978 -39.6 
L 179.980265 -39.6 
L 182.019552 -39.6 
L 184.05884 -39.6 
L 186.098127 -39.6 
L 188.137414 -39.6 
L 190.176702 -39.6 
L 192.215989 -39.6 
L 194.255276 -39.6 
L 196.294564 -39.6 
L 198.333851 -39.6 
L 200.373138 -39.6 
L 202.412426 -39.6 
L 204.451713 -39.6 
L 206.491 -39.6 
L 208.530288 -39.6 
L 210.569575 -39.6 
L 212.608862 -39.6 
L 214.64815 -39.6 
L 216.687437 -39.6 
L 218.726725 -39.6 
L 220.766012 -39.6 
L 222.805299 -39.6 
L 224.844587 -39.6 
L 226.883874 -39.6 
L 228.923161 -39.6 
L 230.962449 -39.6 
L 233.001736 -39.6 
L 235.041023 -39.6 
L 237.080311 -39.6 
L 239.119598 -39.6 
L 241.158885 -39.6 
L 243.198173 -39.6 
L 245.23746 -39.6 
L 247.276747 -39.6 
L 249.316035 -39.6 
L 251.355322 -39.6 
L 253.394609 -39.6 
L 255.433897 -39.6 
L 257.473184 -39.6 
L 259.512471 -39.6 
L 261.551759 -39.6 
L 263.591046 -39.6 
L 265.630333 -39.6 
L 267.669621 -39.6 
L 269.708908 -39.6 
L 271.748196 -39.6 
L 273.787483 -39.6 
L 275.82677 -39.6 
L 277.866058 -39.6 
L 279.905345 -39.6 
L 281.944632 -39.6 
L 283.98392 -39.6 
L 286.023207 -39.6 
L 288.062494 -39.6 
L 290.101782 -39.6 
L 292.141069 -39.6 
L 294.180356 -39.6 
L 296.219644 -39.6 
L 298.258931 -39.6 
L 300.298218 -39.6 
L 302.337506 -39.6 
L 304.376793 -39.6 
L 306.41608 -39.6 
L 308.455368 -39.6 
L 310.494655 -39.6 
L 312.533942 -39.6 
L 314.57323 -39.6 
L 316.612517 -39.6 
L 318.651804 -39.6 
L 320.691092 -39.6 
L 322.730379 -39.6 
L 324.769667 -39.6 
L 326.808954 -39.6 
L 328.848241 -39.6 
L 330.887529 -39.6 
L 332.926816 -39.6 
L 334.966103 -39.6 
L 337.005391 -39.6 
L 339.044678 -39.6 
L 341.083965 -39.6 
L 343.123253 -39.6 
L 345.16254 -39.6 
L 347.201827 -39.6 
L 349.241115 -39.6 
L 351.280402 -39.6 
L 353.319689 -39.6 
L 355.358977 -39.6 
L 357.398264 -39.6 
L 359.437551 -39.6 
L 361.476839 -39.6 
L 363.516126 -39.6 
L 365.555413 -39.6 
L 367.594701 -39.6 
L 369.633988 -39.6 
L 371.673275 -39.6 
L 373.712563 -39.6 
L 375.75185 -39.6 
L 377.791138 -39.6 
L 379.830425 -39.6 
L 381.869712 -39.6 
L 383.909 -39.6 
L 385.948287 -39.6 
L 387.987574 -39.6 
L 390.026862 -39.6 
L 392.066149 -39.6 
L 394.105436 -39.6 
L 396.144724 -39.6 
L 398.184011 -39.6 
L 400.223298 -39.6 
L 402.262586 -39.6 
L 404.301873 -39.6 
L 406.34116 -39.6 
L 408.380448 -39.6 
L 410.419735 -39.6 
L 412.459022 -39.6 
L 414.49831 -39.6 
L 416.537597 -39.6 
L 418.576884 -39.6 
L 420.616172 -39.6 
L 422.655459 -39.6 
L 424.694746 -39.6 
L 426.734034 -39.6 
L 428.773321 -39.6 
L 430.812608 -39.6 
L 432.851896 -39.6 
L 434.891183 -39.6 
L 436.930471 -39.6 
L 438.969758 -39.6 
L 441.009045 -39.6 
L 443.048333 -39.6 
L 445.08762 -39.6 
L 447.126907 -39.6 
L 449.166195 -39.6 
L 451.205482 -39.6 
L 453.244769 -39.6 
L 455.284057 -39.6 
L 457.323344 -39.6 
L 459.362631 -39.6 
L 461.401919 -39.6 
L 463.441206 -39.6 
L 465.480493 -39.6 
L 467.519781 -39.6 
L 469.559068 -39.6 
L 471.598355 -39.6 
L 473.637643 -39.6 
L 475.67693 -39.6 
L 477.716217 -39.6 
L 479.755505 -39.6 
L 481.794792 -39.6 
L 483.834079 -39.6 
L 485.873367 -39.6 
L 487.912654 -39.6 
L 489.951942 -39.6 
L 491.991229 -39.6 
L 494.030516 -39.6 
L 496.069804 -39.6 
L 498.109091 -39.6 
L 498.109091 -115.485604 
L 498.109091 -115.485604 
L 496.069804 -120.896244 
L 494.030516 -126.447269 
L 491.991229 -132.119125 
L 489.951942 -137.890576 
L 487.912654 -143.738885 
L 485.873367 -149.640014 
L 483.834079 -155.568853 
L 481.794792 -161.499469 
L 479.755505 -167.405372 
L 477.716217 -173.259789 
L 475.67693 -179.035958 
L 473.637643 -184.70741 
L 471.598355 -190.248265 
L 469.559068 -195.633509 
L 467.519781 -200.83927 
L 465.480493 -205.843069 
L 463.441206 -210.624059 
L 461.401919 -215.163231 
L 459.362631 -219.443602 
L 457.323344 -223.450363 
L 455.284057 -227.170996 
L 453.244769 -230.595363 
L 451.205482 -233.715747 
L 449.166195 -236.526867 
L 447.126907 -239.025852 
L 445.08762 -241.212179 
L 443.048333 -243.087585 
L 441.009045 -244.655942 
L 438.969758 -245.92311 
L 436.930471 -246.896759 
L 434.891183 -247.586184 
L 432.851896 -248.002089 
L 430.812608 -248.156375 
L 428.773321 -248.06191 
L 426.734034 -247.732305 
L 424.694746 -247.181688 
L 422.655459 -246.424483 
L 420.616172 -245.475207 
L 418.576884 -244.348269 
L 416.537597 -243.057798 
L 414.49831 -241.617477 
L 412.459022 -240.04041 
L 410.419735 -238.339001 
L 408.380448 -236.524862 
L 406.34116 -234.608741 
L 404.301873 -232.600474 
L 402.262586 -230.50896 
L 400.223298 -228.342153 
L 398.184011 -226.107075 
L 396.144724 -223.809853 
L 394.105436 -221.455757 
L 392.066149 -219.049268 
L 390.026862 -216.594144 
L 387.987574 -214.0935 
L 385.948287 -211.549896 
L 383.909 -208.965422 
L 381.869712 -206.341795 
L 379.830425 -203.680449 
L 377.791138 -200.982623 
L 375.75185 -198.249446 
L 373.712563 -195.482023 
L 371.673275 -192.681506 
L 369.633988 -189.849166 
L 367.594701 -186.986448 
L 365.555413 -184.095025 
L 363.516126 -181.176845 
L 361.476839 -178.234158 
L 359.437551 -175.269544 
L 357.398264 -172.285929 
L 355.358977 -169.28659 
L 353.319689 -166.275155 
L 351.280402 -163.25559 
L 349.241115 -160.232186 
L 347.201827 -157.209526 
L 345.16254 -154.192465 
L 343.123253 -151.186083 
L 341.083965 -148.19565 
L 339.044678 -145.226577 
L 337.005391 -142.284366 
L 334.966103 -139.374565 
L 332.926816 -136.502708 
L 330.887529 -133.674264 
L 328.848241 -130.894587 
L 326.808954 -128.168861 
L 324.769667 -125.50205 
L 322.730379 -122.898853 
L 320.691092 -120.363656 
L 318.651804 -117.900498 
L 316.612517 -115.513028 
L 314.57323 -113.20448 
L 312.533942 -110.977647 
L 310.494655 -108.834855 
L 308.455368 -106.777957 
L 306.41608 -104.808318 
L 304.376793 -102.926815 
L 302.337506 -101.133838 
L 300.298218 -99.429298 
L 298.258931 -97.812639 
L 296.219644 -96.282858 
L 294.180356 -94.838524 
L 292.141069 -93.477803 
L 290.101782 -92.198491 
L 288.062494 -90.998042 
L 286.023207 -89.873604 
L 283.98392 -88.822058 
L 281.944632 -87.840051 
L 279.905345 -86.924039 
L 277.866058 -86.070327 
L 275.82677 -85.275107 
L 273.787483 -84.5345 
L 271.748196 -83.844592 
L 269.708908 -83.201478 
L 267.669621 -82.601295 
L 265.630333 -82.040258 
L 263.591046 -81.514697 
L 261.551759 -81.021086 
L 259.512471 -80.556073 
L 257.473184 -80.116509 
L 255.433897 -79.699466 
L 253.394609 -79.302265 
L 251.355322 -78.922489 
L 249.316035 -78.557998 
L 247.276747 -78.206936 
L 245.23746 -77.867743 
L 243.198173 -77.539149 
L 241.158885 -77.22018 
L 239.119598 -76.910146 
L 237.080311 -76.608634 
L 235.041023 -76.315491 
L 233.001736 -76.03081 
L 230.962449 -75.754907 
L 228.923161 -75.488299 
L 226.883874 -75.231674 
L 224.844587 -74.985871 
L 222.805299 -74.751842 
L 220.766012 -74.530627 
L 218.726725 -74.323325 
L 216.687437 -74.131064 
L 214.64815 -73.954973 
L 212.608862 -73.796157 
L 210.569575 -73.655678 
L 208.530288 -73.53453 
L 206.491 -73.433629 
L 204.451713 -73.353799 
L 202.412426 -73.295762 
L 200.373138 -73.260143 
L 198.333851 -73.247462 
L 196.294564 -73.258144 
L 194.255276 -73.292524 
L 192.215989 -73.350861 
L 190.176702 -73.433344 
L 188.137414 -73.540111 
L 186.098127 -73.671257 
L 184.05884 -73.826848 
L 182.019552 -74.006928 
L 179.980265 -74.211523 
L 177.940978 -74.440647 
L 175.90169 -74.694287 
L 173.862403 -74.972399 
L 171.823116 -75.27489 
L 169.783828 -75.601584 
L 167.744541 -75.9522 
L 165.705254 -76.326303 
L 163.665966 -76.723264 
L 161.626679 -77.14221 
L 159.587392 -77.581963 
L 157.548104 -78.040996 
L 155.508817 -78.517364 
L 153.469529 -79.008666 
L 151.430242 -79.511983 
L 149.390955 -80.023853 
L 147.351667 -80.540231 
L 145.31238 -81.056476 
L 143.273093 -81.567352 
L 141.233805 -82.06704 
L 139.194518 -82.549173 
L 137.155231 -83.006887 
L 135.115943 -83.432895 
L 133.076656 -83.819573 
L 131.037369 -84.159072 
L 128.998081 -84.443443 
L 126.958794 -84.664769 
L 124.919507 -84.815318 
L 122.880219 -84.887697 
L 120.840932 -84.875007 
L 118.801645 -84.771 
L 116.762357 -84.570229 
L 114.72307 -84.26819 
L 112.683783 -83.861438 
L 110.644495 -83.347701 
L 108.605208 -82.72596 
L 106.565921 -81.996503 
L 104.526633 -81.160962 
L 102.487346 -80.222309 
L 100.448058 -79.184831 
L 98.408771 -78.054074 
L 96.369484 -76.836758 
L 94.330196 -75.540671 
L 92.290909 -74.174532 
z
" style="stroke: #4682b4; stroke-width: 0.8"/>
    </defs>
    <g clip-path="url(#pf1ce6e8030)">
     <use xlink:href="#mefd0ebf9ee" x="0" y="360" style="fill: #4682b4; fill-opacity: 0.25; stroke: #4682b4; stroke-width: 0.8"/>
    </g>
   </g>
   <g id="matplotlib.axis_1">
    <g id="xtick_1">
     <g id="line2d_1">
      <defs>
       <path id="m5e4e051e7b" d="M 0 0 
L 0 4.8 
" style="stroke: #000000"/>
      </defs>
      <g>
       <use xlink:href="#m5e4e051e7b" x="92.290909" y="320.4" style="stroke: #000000"/>
      </g>
     </g>
     <g id="text_1">
      <text style="font: 8.8px 'DejaVu Sans', 'Bitstream Vera Sans', 'Computer Modern Sans Serif', 'Lucida Grande', 'Verdana', 'Geneva', 'Lucid', 'Arial', 'Helvetica', 'Avant Garde', sans-serif; text-anchor: middle" x="92.290909" y="335.386625" transform="rotate(-0 92.290909 335.386625)">0.0</text>
     </g>
    </g>
    <g id="xtick_2">
     <g id="line2d_2">
      <g>
       <use xlink:href="#m5e4e051e7b" x="173.454545" y="320.4" style="stroke: #000000"/>
      </g>
     </g>
     <g id="text_2">
      <text style="font: 8.8px 'DejaVu Sans', 'Bitstream Vera Sans', 'Computer Modern Sans Serif', 'Lucida Grande', 'Verdana', 'Geneva', 'Lucid', 'Arial', 'Helvetica', 'Avant Garde', sans-serif; text-anchor: middle" x="173.454545" y="335.386625" transform="rotate(-0 173.454545 335.386625)">0.2</text>
     </g>
    </g>
    <g id="xtick_3">
     <g id="line2d_3">
      <g>
       <use xlink:href="#m5e4e051e7b" x="254.618182" y="320.4" style="stroke: #000000"/>
      </g>
     </g>
     <g id="text_3">
      <text style="font: 8.8px 'DejaVu Sans', 'Bitstream Vera Sans', 'Computer Modern Sans Serif', 'Lucida Grande', 'Verdana', 'Geneva', 'Lucid', 'Arial', 'Helvetica', 'Avant Garde', sans-serif; text-anchor: middle" x="254.618182" y="335.386625" transform="rotate(-0 254.618182 335.386625)">0.4</text>
     </g>
    </g>
    <g id="xtick_4">
     <g id="line2d_4">
      <g>
       <use xlink:href="#m5e4e051e7b" x="335.781818" y="320.4" style="stroke: #000000"/>
      </g>
     </g>
     <g id="text_4">
      <text style="font: 8.8px 'DejaVu Sans', 'Bitstream Vera Sans', 'Computer Modern Sans Serif', 'Lucida Grande', 'Verdana', 'Geneva', 'Lucid', 'Arial', 'Helvetica', 'Avant Garde', sans-serif; text-anchor: middle" x="335.781818" y="335.386625" transform="rotate(-0 335.781818 335.386625)">0.6</text>
     </g>
    </g>
    <g id="xtick_5">
     <g id="line2d_5">
      <g>
       <use xlink:href="#m5e4e051e7b" x="416.945455" y="320.4" style="stroke: #000000"/>
      </g>
     </g>
     <g id="text_5">
      <text style="font: 8.8px 'DejaVu Sans', 'Bitstream Vera Sans', 'Computer Modern Sans Serif', 'Lucida Grande', 'Verdana', 'Geneva', 'Lucid', 'Arial', 'Helvetica', 'Avant Garde', sans-serif; text-anchor: middle" x="416.945455" y="335.386625" transform="rotate(-0 416.945455 335.386625)">0.8</text>
     </g>
    </g>
    <g id="xtick_6">
     <g id="line2d_6">
      <g>
       <use xlink:href="#m5e4e051e7b" x="498.109091" y="320.4" style="stroke: #000000"/>
      </g>
     </g>
     <g id="text_6">
      <text style="font: 8.8px 'DejaVu Sans', 'Bitstream Vera Sans', 'Computer Modern Sans Serif', 'Lucida Grande', 'Verdana', 'Geneva', 'Lucid', 'Arial', 'Helvetica', 'Avant Garde', sans-serif; text-anchor: middle" x="498.109091" y="335.386625" transform="rotate(-0 498.109091 335.386625)">1.0</text>
     </g>
    </g>
    <g id="text_7">
     <text style="font: 9.6px 'DejaVu Sans', 'Bitstream Vera Sans', 'Computer Modern Sans Serif', 'Lucida Grande', 'Verdana', 'Geneva', 'Lucid', 'Arial', 'Helvetica', 'Avant Garde', sans-serif; text-anchor: middle" x="295.2" y="348.51125" transform="rotate(-0 295.2 348.51125)">Methylation Fraction</text>
    </g>
   </g>
   <g id="matplotlib.axis_2">
    <g id="ytick_1">
     <g id="line2d_7">
      <defs>
       <path id="m5d94629b2b" d="M 0 0 
L -4.8 0 
" style="stroke: #000000"/>
      </defs>
      <g>
       <use xlink:href="#m5d94629b2b" x="72" y="320.4" style="stroke: #000000"/>
      </g>
     </g>
     <g id="text_8">
      <text style="font: 8.8px 'DejaVu Sans', 'Bitstream Vera Sans', 'Computer Modern Sans Serif', 'Lucida Grande', 'Verdana', 'Geneva', 'Lucid', 'Arial', 'Helvetica', 'Avant Garde', sans-serif; text-anchor: end" x="63.7" y="323.743313" transform="rotate(-0 63.7 323.743313)">0.0</text>
     </g>
    </g>
    <g id="ytick_2">
     <g id="line2d_8">
      <g>
       <use xlink:href="#m5d94629b2b" x="72" y="271.083331" style="stroke: #000000"/>
      </g>
     </g>
     <g id="text_9">
      <text style="font: 8.8px 'DejaVu Sans', 'Bitstream Vera Sans', 'Computer Modern Sans Serif', 'Lucida Grande', 'Verdana', 'Geneva', 'Lucid', 'Arial', 'Helvetica', 'Avant Garde', sans-serif; text-anchor: end" x="63.7" y="274.426644" transform="rotate(-0 63.7 274.426644)">0.5</text>
     </g>
    </g>
    <g id="ytick_3">
     <g id="line2d_9">
      <g>
       <use xlink:href="#m5d94629b2b" x="72" y="221.766663" style="stroke: #000000"/>
      </g>
     </g>
     <g id="text_10">
      <text style="font: 8.8px 'DejaVu Sans', 'Bitstream Vera Sans', 'Computer Modern Sans Serif', 'Lucida Grande', 'Verdana', 'Geneva', 'Lucid', 'Arial', 'Helvetica', 'Avant Garde', sans-serif; text-anchor: end" x="63.7" y="225.109975" transform="rotate(-0 63.7 225.109975)">1.0</text>
     </g>
    </g>
    <g id="ytick_4">
     <g id="line2d_10">
      <g>
       <use xlink:href="#m5d94629b2b" x="72" y="172.449994" style="stroke: #000000"/>
      </g>
     </g>
     <g id="text_11">
      <text style="font: 8.8px 'DejaVu Sans', 'Bitstream Vera Sans', 'Computer Modern Sans Serif', 'Lucida Grande', 'Verdana', 'Geneva', 'Lucid', 'Arial', 'Helvetica', 'Avant Garde', sans-serif; text-anchor: end" x="63.7" y="175.793306" transform="rotate(-0 63.7 175.793306)">1.5</text>
     </g>
    </g>
    <g id="ytick_5">
     <g id="line2d_11">
      <g>
       <use xlink:href="#m5d94629b2b" x="72" y="123.133325" style="stroke: #000000"/>
      </g>
     </g>
     <g id="text_12">
      <text style="font: 8.8px 'DejaVu Sans', 'Bitstream Vera Sans', 'Computer Modern Sans Serif', 'Lucida Grande', 'Verdana', 'Geneva', 'Lucid', 'Arial', 'Helvetica', 'Avant Garde', sans-serif; text-anchor: end" x="63.7" y="126.476638" transform="rotate(-0 63.7 126.476638)">2.0</text>
     </g>
    </g>
    <g id="ytick_6">
     <g id="line2d_12">
      <g>
       <use xlink:href="#m5d94629b2b" x="72" y="73.816656" style="stroke: #000000"/>
      </g>
     </g>
     <g id="text_13">
      <text style="font: 8.8px 'DejaVu Sans', 'Bitstream Vera Sans', 'Computer Modern Sans Serif', 'Lucida Grande', 'Verdana', 'Geneva', 'Lucid', 'Arial', 'Helvetica', 'Avant Garde', sans-serif; text-anchor: end" x="63.7" y="77.159969" transform="rotate(-0 63.7 77.159969)">2.5</text>
     </g>
    </g>
    <g id="text_14">
     <text style="font: 9.6px 'DejaVu Sans', 'Bitstream Vera Sans', 'Computer Modern Sans Serif', 'Lucida Grande', 'Verdana', 'Geneva', 'Lucid', 'Arial', 'Helvetica', 'Avant Garde', sans-serif; text-anchor: middle" x="43.70875" y="181.8" transform="rotate(-90 43.70875 181.8)">Density</text>
    </g>
   </g>
   <g id="patch_3">
    <path d="M 72 320.4 
L 72 43.2 
" style="fill: none; stroke: #000000; stroke-linejoin: miter; stroke-linecap: square"/>
   </g>
   <g id="patch_4">
    <path d="M 518.4 320.4 
L 518.4 43.2 
" style="fill: none; stroke: #000000; stroke-linejoin: miter; stroke-linecap: square"/>
   </g>
   <g id="patch_5">
    <path d="M 72 320.4 
L 518.4 320.4 
" style="fill: none; stroke: #000000; stroke-linejoin: miter; stroke-linecap: square"/>
   </g>
   <g id="patch_6">
    <path d="M 72 43.2 
L 518.4 43.2 
" style="fill: none; stroke: #000000; stroke-linejoin: miter; stroke-linecap: square"/>
   </g>
  </g>
 </g>
 <defs>
  <clipPath id="pf1ce6e8030">
   <rect x="72" y="43.2" width="446.4" height="277.2"/>
  </clipPath>
 </defs>
</svg>
