<?xml version="1.0" encoding="utf-8" standalone="no"?>
<!DOCTYPE svg PUBLIC "-//W3C//DTD SVG 1.1//EN"
  "http://www.w3.org/Graphics/SVG/1.1/DTD/svg11.dtd">
<svg xmlns:xlink="http://www.w3.org/1999/xlink" width="576pt" height="360pt" viewBox="0 0 576 360" xmlns="http://www.w3.org/2000/svg" version="1.1">
 <metadata>
  <rdf:RDF xmlns:dc="http://purl.org/dc/elements/1.1/" xmlns:cc="http://creativecommons.org/ns#" xmlns:rdf="http://www.w3.org/1999/02/22-rdf-syntax-ns#">
   <cc:Work>
    <dc:type rdf:resource="http://purl.org/dc/dcmitype/StillImage"/>
    <dc:date>2024-10-16T14:38:05.604851</dc:date>
    <dc:format>image/svg+xml</dc:format>
    <dc:creator>
     <cc:Agent>
      <dc:title>Matplotlib v3.7.1, https://matplotlib.org/</dc:title>
     </cc:Agent>
    </dc:creator>
   </cc:Work>
  </rdf:RDF>
 </metadata>
 <defs>
  <style type="text/css">*{stroke-linejoin: round; stroke-linecap: butt}</style>
 </defs>
 <g id="figure_1">
  <g id="patch_1">
   <path d="M 0 360 
L 576 360 
L 576 0 
L 0 0 
z
" style="fill: #ffffff"/>
  </g>
  <g id="axes_1">
   <g id="patch_2">
    <path d="M 72 320.4 
L 518.4 320.4 
L 518.4 43.2 
L 72 43.2 
z
" style="fill: #ffffff"/>
   </g>
   <g id="PolyCollection_1">
    <defs>
     <path id="m517cc600f6" d="M 116.736642 -74.772528 
L 116.543358 -74.772528 
L 116.510786 -77.089977 
L 116.489 -79.407426 
L 116.481405 -81.724876 
L 116.476212 -84.042325 
L 116.451318 -86.359774 
L 116.394652 -88.677223 
L 116.318708 -90.994673 
L 116.251131 -93.312122 
L 116.210803 -95.629571 
L 116.194851 -97.94702 
L 116.188257 -100.264469 
L 116.180997 -102.581919 
L 116.170031 -104.899368 
L 116.14624 -107.216817 
L 116.088616 -109.534266 
L 115.976879 -111.851715 
L 115.808933 -114.169165 
L 115.606028 -116.486614 
L 115.401014 -118.804063 
L 115.215792 -121.121512 
L 115.040101 -123.438962 
L 114.825414 -125.756411 
L 114.505396 -128.07386 
L 114.03943 -130.391309 
L 113.442335 -132.708758 
L 112.760107 -135.026208 
L 112.017754 -137.343657 
L 111.212676 -139.661106 
L 110.360276 -141.978555 
L 109.511447 -144.296004 
L 108.701688 -146.613454 
L 107.904671 -148.930903 
L 107.06756 -151.248352 
L 106.179872 -153.565801 
L 105.270433 -155.88325 
L 104.347701 -158.2007 
L 103.38353 -160.518149 
L 102.318149 -162.835598 
L 100.992137 -165.153047 
L 99.075225 -167.470497 
L 96.165624 -169.787946 
L 92.102718 -172.105395 
L 87.351914 -174.422844 
L 83.132794 -176.740293 
L 80.928 -179.057743 
L 81.546357 -181.375192 
L 84.592236 -183.692641 
L 88.886859 -186.01009 
L 93.326486 -188.327539 
L 97.331995 -190.644989 
L 100.740901 -192.962438 
L 103.566272 -195.279887 
L 105.888773 -197.597336 
L 107.809073 -199.914785 
L 109.38934 -202.232235 
L 110.648384 -204.549684 
L 111.623007 -206.867133 
L 112.398539 -209.184582 
L 113.066314 -211.502032 
L 113.674394 -213.819481 
L 114.222903 -216.13693 
L 114.687242 -218.454379 
L 115.044907 -220.771828 
L 115.29547 -223.089278 
L 115.459783 -225.406727 
L 115.560913 -227.724176 
L 115.614933 -230.041625 
L 115.642505 -232.359074 
L 115.675971 -234.676524 
L 115.743885 -236.993973 
L 115.850264 -239.311422 
L 115.972471 -241.628871 
L 116.078595 -243.946321 
L 116.14782 -246.26377 
L 116.181065 -248.581219 
L 116.200512 -250.898668 
L 116.237332 -253.216117 
L 116.30932 -255.533567 
L 116.40522 -257.851016 
L 116.492716 -260.168465 
L 116.541953 -262.485914 
L 116.542572 -264.803363 
L 116.506135 -267.120813 
L 116.458896 -269.438262 
L 116.428042 -271.755711 
L 116.426553 -274.07316 
L 116.449116 -276.390609 
L 116.482728 -278.708059 
L 116.517766 -281.025508 
L 116.548424 -283.342957 
L 116.570112 -285.660406 
L 116.582201 -287.977856 
L 116.589889 -290.295305 
L 116.598639 -292.612754 
L 116.607785 -294.930203 
L 116.612021 -297.247652 
L 116.608539 -299.565102 
L 116.601294 -301.882551 
L 116.598014 -304.2 
L 116.681986 -304.2 
L 116.681986 -304.2 
L 116.678706 -301.882551 
L 116.671461 -299.565102 
L 116.667979 -297.247652 
L 116.672215 -294.930203 
L 116.681361 -292.612754 
L 116.690111 -290.295305 
L 116.697799 -287.977856 
L 116.709888 -285.660406 
L 116.731576 -283.342957 
L 116.762234 -281.025508 
L 116.797272 -278.708059 
L 116.830884 -276.390609 
L 116.853447 -274.07316 
L 116.851958 -271.755711 
L 116.821104 -269.438262 
L 116.773865 -267.120813 
L 116.737428 -264.803363 
L 116.738047 -262.485914 
L 116.787284 -260.168465 
L 116.87478 -257.851016 
L 116.97068 -255.533567 
L 117.042668 -253.216117 
L 117.079488 -250.898668 
L 117.098935 -248.581219 
L 117.13218 -246.26377 
L 117.201405 -243.946321 
L 117.307529 -241.628871 
L 117.429736 -239.311422 
L 117.536115 -236.993973 
L 117.604029 -234.676524 
L 117.637495 -232.359074 
L 117.665067 -230.041625 
L 117.719087 -227.724176 
L 117.820217 -225.406727 
L 117.98453 -223.089278 
L 118.235093 -220.771828 
L 118.592758 -218.454379 
L 119.057097 -216.13693 
L 119.605606 -213.819481 
L 120.213686 -211.502032 
L 120.881461 -209.184582 
L 121.656993 -206.867133 
L 122.631616 -204.549684 
L 123.89066 -202.232235 
L 125.470927 -199.914785 
L 127.391227 -197.597336 
L 129.713728 -195.279887 
L 132.539099 -192.962438 
L 135.948005 -190.644989 
L 139.953514 -188.327539 
L 144.393141 -186.01009 
L 148.687764 -183.692641 
L 151.733643 -181.375192 
L 152.352 -179.057743 
L 150.147206 -176.740293 
L 145.928086 -174.422844 
L 141.177282 -172.105395 
L 137.114376 -169.787946 
L 134.204775 -167.470497 
L 132.287863 -165.153047 
L 130.961851 -162.835598 
L 129.89647 -160.518149 
L 128.932299 -158.2007 
L 128.009567 -155.88325 
L 127.100128 -153.565801 
L 126.21244 -151.248352 
L 125.375329 -148.930903 
L 124.578312 -146.613454 
L 123.768553 -144.296004 
L 122.919724 -141.978555 
L 122.067324 -139.661106 
L 121.262246 -137.343657 
L 120.519893 -135.026208 
L 119.837665 -132.708758 
L 119.24057 -130.391309 
L 118.774604 -128.07386 
L 118.454586 -125.756411 
L 118.239899 -123.438962 
L 118.064208 -121.121512 
L 117.878986 -118.804063 
L 117.673972 -116.486614 
L 117.471067 -114.169165 
L 117.303121 -111.851715 
L 117.191384 -109.534266 
L 117.13376 -107.216817 
L 117.109969 -104.899368 
L 117.099003 -102.581919 
L 117.091743 -100.264469 
L 117.085149 -97.94702 
L 117.069197 -95.629571 
L 117.028869 -93.312122 
L 116.961292 -90.994673 
L 116.885348 -88.677223 
L 116.828682 -86.359774 
L 116.803788 -84.042325 
L 116.798595 -81.724876 
L 116.791 -79.407426 
L 116.769214 -77.089977 
L 116.736642 -74.772528 
z
" style="stroke: #3a3a3a"/>
    </defs>
    <g clip-path="url(#p496e8264ef)">
     <use xlink:href="#m517cc600f6" x="0" y="360" style="fill: #f6d7ca; stroke: #3a3a3a"/>
    </g>
   </g>
   <g id="PolyCollection_2">
    <defs>
     <path id="meb72b02b44" d="M 205.964856 -57.987648 
L 205.875144 -57.987648 
L 205.87198 -60.328301 
L 205.873953 -62.668954 
L 205.876807 -65.009607 
L 205.873903 -67.35026 
L 205.859653 -69.690914 
L 205.832626 -72.031567 
L 205.796033 -74.37222 
L 205.754918 -76.712873 
L 205.712043 -79.053526 
L 205.665833 -81.39418 
L 205.611441 -83.734833 
L 205.542472 -86.075486 
L 205.451219 -88.416139 
L 205.32914 -90.756792 
L 205.169745 -93.097446 
L 204.971046 -95.438099 
L 204.732802 -97.778752 
L 204.450648 -100.119405 
L 204.115376 -102.460058 
L 203.720189 -104.800712 
L 203.268641 -107.141365 
L 202.775521 -109.482018 
L 202.261689 -111.822671 
L 201.748611 -114.163324 
L 201.254921 -116.503978 
L 200.793885 -118.844631 
L 200.371705 -121.185284 
L 199.987207 -123.525937 
L 199.631028 -125.86659 
L 199.282073 -128.207243 
L 198.903865 -130.547897 
L 198.44929 -132.88855 
L 197.88187 -135.229203 
L 197.209314 -137.569856 
L 196.504825 -139.910509 
L 195.886153 -142.251163 
L 195.451978 -144.591816 
L 195.219435 -146.932469 
L 195.115904 -149.273122 
L 195.033575 -151.613775 
L 194.897541 -153.954429 
L 194.686206 -156.295082 
L 194.390681 -158.635735 
L 193.958605 -160.976388 
L 193.275689 -163.317041 
L 192.19246 -165.657695 
L 190.569901 -167.998348 
L 188.342271 -170.339001 
L 185.621266 -172.679654 
L 182.802611 -175.020307 
L 180.53871 -177.360961 
L 179.49124 -179.701614 
L 179.996507 -182.042267 
L 181.905388 -184.38292 
L 184.709853 -186.723573 
L 187.818412 -189.064227 
L 190.77518 -191.40488 
L 193.336074 -193.745533 
L 195.436212 -196.086186 
L 197.116271 -198.426839 
L 198.457504 -200.767493 
L 199.54457 -203.108146 
L 200.449342 -205.448799 
L 201.223196 -207.789452 
L 201.896302 -210.130105 
L 202.485849 -212.470759 
L 203.005313 -214.811412 
L 203.465157 -217.152065 
L 203.868087 -219.492718 
L 204.20964 -221.833371 
L 204.486392 -224.174025 
L 204.702851 -226.514678 
L 204.869398 -228.855331 
L 204.995038 -231.195984 
L 205.085226 -233.536637 
L 205.14755 -235.877291 
L 205.195835 -238.217944 
L 205.244007 -240.558597 
L 205.295536 -242.89925 
L 205.342305 -245.239903 
L 205.375849 -247.580556 
L 205.398509 -249.92121 
L 205.422675 -252.261863 
L 205.46047 -254.602516 
L 205.515026 -256.943169 
L 205.579927 -259.283822 
L 205.644527 -261.624476 
L 205.69963 -263.965129 
L 205.740335 -266.305782 
L 205.766048 -268.646435 
L 205.779235 -270.987088 
L 205.784148 -273.327742 
L 205.785513 -275.668395 
L 205.78709 -278.009048 
L 205.790971 -280.349701 
L 205.798248 -282.690354 
L 205.809929 -285.031008 
L 205.826592 -287.371661 
L 205.847206 -289.712314 
L 205.992794 -289.712314 
L 205.992794 -289.712314 
L 206.013408 -287.371661 
L 206.030071 -285.031008 
L 206.041752 -282.690354 
L 206.049029 -280.349701 
L 206.05291 -278.009048 
L 206.054487 -275.668395 
L 206.055852 -273.327742 
L 206.060765 -270.987088 
L 206.073952 -268.646435 
L 206.099665 -266.305782 
L 206.14037 -263.965129 
L 206.195473 -261.624476 
L 206.260073 -259.283822 
L 206.324974 -256.943169 
L 206.37953 -254.602516 
L 206.417325 -252.261863 
L 206.441491 -249.92121 
L 206.464151 -247.580556 
L 206.497695 -245.239903 
L 206.544464 -242.89925 
L 206.595993 -240.558597 
L 206.644165 -238.217944 
L 206.69245 -235.877291 
L 206.754774 -233.536637 
L 206.844962 -231.195984 
L 206.970602 -228.855331 
L 207.137149 -226.514678 
L 207.353608 -224.174025 
L 207.63036 -221.833371 
L 207.971913 -219.492718 
L 208.374843 -217.152065 
L 208.834687 -214.811412 
L 209.354151 -212.470759 
L 209.943698 -210.130105 
L 210.616804 -207.789452 
L 211.390658 -205.448799 
L 212.29543 -203.108146 
L 213.382496 -200.767493 
L 214.723729 -198.426839 
L 216.403788 -196.086186 
L 218.503926 -193.745533 
L 221.06482 -191.40488 
L 224.021588 -189.064227 
L 227.130147 -186.723573 
L 229.934612 -184.38292 
L 231.843493 -182.042267 
L 232.34876 -179.701614 
L 231.30129 -177.360961 
L 229.037389 -175.020307 
L 226.218734 -172.679654 
L 223.497729 -170.339001 
L 221.270099 -167.998348 
L 219.64754 -165.657695 
L 218.564311 -163.317041 
L 217.881395 -160.976388 
L 217.449319 -158.635735 
L 217.153794 -156.295082 
L 216.942459 -153.954429 
L 216.806425 -151.613775 
L 216.724096 -149.273122 
L 216.620565 -146.932469 
L 216.388022 -144.591816 
L 215.953847 -142.251163 
L 215.335175 -139.910509 
L 214.630686 -137.569856 
L 213.95813 -135.229203 
L 213.39071 -132.88855 
L 212.936135 -130.547897 
L 212.557927 -128.207243 
L 212.208972 -125.86659 
L 211.852793 -123.525937 
L 211.468295 -121.185284 
L 211.046115 -118.844631 
L 210.585079 -116.503978 
L 210.091389 -114.163324 
L 209.578311 -111.822671 
L 209.064479 -109.482018 
L 208.571359 -107.141365 
L 208.119811 -104.800712 
L 207.724624 -102.460058 
L 207.389352 -100.119405 
L 207.107198 -97.778752 
L 206.868954 -95.438099 
L 206.670255 -93.097446 
L 206.51086 -90.756792 
L 206.388781 -88.416139 
L 206.297528 -86.075486 
L 206.228559 -83.734833 
L 206.174167 -81.39418 
L 206.127957 -79.053526 
L 206.085082 -76.712873 
L 206.043967 -74.37222 
L 206.007374 -72.031567 
L 205.980347 -69.690914 
L 205.966097 -67.35026 
L 205.963193 -65.009607 
L 205.966047 -62.668954 
L 205.96802 -60.328301 
L 205.964856 -57.987648 
z
" style="stroke: #3a3a3a"/>
    </defs>
    <g clip-path="url(#p496e8264ef)">
     <use xlink:href="#meb72b02b44" x="0" y="360" style="fill: #eda791; stroke: #3a3a3a"/>
    </g>
   </g>
   <g id="PolyCollection_3">
    <defs>
     <path id="mda3babeac8" d="M 295.276166 -52.2 
L 295.123834 -52.2 
L 295.108377 -54.613389 
L 295.092741 -57.026778 
L 295.076841 -59.440167 
L 295.060635 -61.853557 
L 295.043814 -64.266946 
L 295.025317 -66.680335 
L 295.003105 -69.093724 
L 294.974407 -71.507113 
L 294.93622 -73.920502 
L 294.885736 -76.333891 
L 294.820643 -78.747281 
L 294.739334 -81.16067 
L 294.640799 -83.574059 
L 294.523631 -85.987448 
L 294.383814 -88.400837 
L 294.212022 -90.814226 
L 293.992472 -93.227615 
L 293.705575 -95.641005 
L 293.334854 -98.054394 
L 292.875465 -100.467783 
L 292.339299 -102.881172 
L 291.752455 -105.294561 
L 291.145136 -107.70795 
L 290.539249 -110.12134 
L 289.941341 -112.534729 
L 289.345807 -114.948118 
L 288.746913 -117.361507 
L 288.151915 -119.774896 
L 287.585682 -122.188285 
L 287.082035 -124.601674 
L 286.666335 -127.015064 
L 286.341189 -129.428453 
L 286.086076 -131.841842 
L 285.87176 -134.255231 
L 285.679003 -136.66862 
L 285.507817 -139.082009 
L 285.371147 -141.495398 
L 285.279138 -143.908788 
L 285.226685 -146.322177 
L 285.192598 -148.735566 
L 285.147785 -151.148955 
L 285.062006 -153.562344 
L 284.900549 -155.975733 
L 284.611792 -158.389122 
L 284.116479 -160.802512 
L 283.313174 -163.215901 
L 282.10968 -165.62929 
L 280.477493 -168.042679 
L 278.508908 -170.456068 
L 276.442985 -172.869457 
L 274.631101 -175.282846 
L 273.441266 -177.696236 
L 273.138621 -180.109625 
L 273.79899 -182.523014 
L 275.295661 -184.936403 
L 277.358286 -187.349792 
L 279.667759 -189.763181 
L 281.943157 -192.176571 
L 283.993255 -194.58996 
L 285.727925 -197.003349 
L 287.140308 -199.416738 
L 288.275607 -201.830127 
L 289.19983 -204.243516 
L 289.975979 -206.656905 
L 290.649934 -209.070295 
L 291.245638 -211.483684 
L 291.768417 -213.897073 
L 292.214176 -216.310462 
L 292.580467 -218.723851 
L 292.874438 -221.13724 
L 293.114138 -223.550629 
L 293.323101 -225.964019 
L 293.521614 -228.377408 
L 293.719576 -230.790797 
L 293.91458 -233.204186 
L 294.095826 -235.617575 
L 294.251371 -238.030964 
L 294.374794 -240.444353 
L 294.46808 -242.857743 
L 294.539866 -245.271132 
L 294.600695 -247.684521 
L 294.658263 -250.09791 
L 294.715098 -252.511299 
L 294.769344 -254.924688 
L 294.817558 -257.338077 
L 294.857683 -259.751467 
L 294.890654 -262.164856 
L 294.920008 -264.578245 
L 294.949862 -266.991634 
L 294.982488 -269.405023 
L 295.016938 -271.818412 
L 295.049586 -274.231802 
L 295.076216 -276.645191 
L 295.094335 -279.05858 
L 295.104342 -281.471969 
L 295.1091 -283.885358 
L 295.112443 -286.298747 
L 295.117608 -288.712136 
L 295.126249 -291.125526 
L 295.273751 -291.125526 
L 295.273751 -291.125526 
L 295.282392 -288.712136 
L 295.287557 -286.298747 
L 295.2909 -283.885358 
L 295.295658 -281.471969 
L 295.305665 -279.05858 
L 295.323784 -276.645191 
L 295.350414 -274.231802 
L 295.383062 -271.818412 
L 295.417512 -269.405023 
L 295.450138 -266.991634 
L 295.479992 -264.578245 
L 295.509346 -262.164856 
L 295.542317 -259.751467 
L 295.582442 -257.338077 
L 295.630656 -254.924688 
L 295.684902 -252.511299 
L 295.741737 -250.09791 
L 295.799305 -247.684521 
L 295.860134 -245.271132 
L 295.93192 -242.857743 
L 296.025206 -240.444353 
L 296.148629 -238.030964 
L 296.304174 -235.617575 
L 296.48542 -233.204186 
L 296.680424 -230.790797 
L 296.878386 -228.377408 
L 297.076899 -225.964019 
L 297.285862 -223.550629 
L 297.525562 -221.13724 
L 297.819533 -218.723851 
L 298.185824 -216.310462 
L 298.631583 -213.897073 
L 299.154362 -211.483684 
L 299.750066 -209.070295 
L 300.424021 -206.656905 
L 301.20017 -204.243516 
L 302.124393 -201.830127 
L 303.259692 -199.416738 
L 304.672075 -197.003349 
L 306.406745 -194.58996 
L 308.456843 -192.176571 
L 310.732241 -189.763181 
L 313.041714 -187.349792 
L 315.104339 -184.936403 
L 316.60101 -182.523014 
L 317.261379 -180.109625 
L 316.958734 -177.696236 
L 315.768899 -175.282846 
L 313.957015 -172.869457 
L 311.891092 -170.456068 
L 309.922507 -168.042679 
L 308.29032 -165.62929 
L 307.086826 -163.215901 
L 306.283521 -160.802512 
L 305.788208 -158.389122 
L 305.499451 -155.975733 
L 305.337994 -153.562344 
L 305.252215 -151.148955 
L 305.207402 -148.735566 
L 305.173315 -146.322177 
L 305.120862 -143.908788 
L 305.028853 -141.495398 
L 304.892183 -139.082009 
L 304.720997 -136.66862 
L 304.52824 -134.255231 
L 304.313924 -131.841842 
L 304.058811 -129.428453 
L 303.733665 -127.015064 
L 303.317965 -124.601674 
L 302.814318 -122.188285 
L 302.248085 -119.774896 
L 301.653087 -117.361507 
L 301.054193 -114.948118 
L 300.458659 -112.534729 
L 299.860751 -110.12134 
L 299.254864 -107.70795 
L 298.647545 -105.294561 
L 298.060701 -102.881172 
L 297.524535 -100.467783 
L 297.065146 -98.054394 
L 296.694425 -95.641005 
L 296.407528 -93.227615 
L 296.187978 -90.814226 
L 296.016186 -88.400837 
L 295.876369 -85.987448 
L 295.759201 -83.574059 
L 295.660666 -81.16067 
L 295.579357 -78.747281 
L 295.514264 -76.333891 
L 295.46378 -73.920502 
L 295.425593 -71.507113 
L 295.396895 -69.093724 
L 295.374683 -66.680335 
L 295.356186 -64.266946 
L 295.339365 -61.853557 
L 295.323159 -59.440167 
L 295.307259 -57.026778 
L 295.291623 -54.613389 
L 295.276166 -52.2 
z
" style="stroke: #3a3a3a"/>
    </defs>
    <g clip-path="url(#p496e8264ef)">
     <use xlink:href="#mda3babeac8" x="0" y="360" style="fill: #e57760; stroke: #3a3a3a"/>
    </g>
   </g>
   <g id="PolyCollection_4">
    <defs>
     <path id="m4583451bad" d="M 385.816133 -68.738413 
L 383.143867 -68.738413 
L 382.87973 -70.893504 
L 382.583567 -73.048595 
L 382.256288 -75.203687 
L 381.899964 -77.358778 
L 381.51786 -79.513869 
L 381.114381 -81.66896 
L 380.694939 -83.824051 
L 380.26575 -85.979142 
L 379.833569 -88.134234 
L 379.405382 -90.289325 
L 378.988092 -92.444416 
L 378.588201 -94.599507 
L 378.211531 -96.754598 
L 377.862991 -98.909689 
L 377.546418 -101.064781 
L 377.264496 -103.219872 
L 377.018771 -105.374963 
L 376.80975 -107.530054 
L 376.637073 -109.685145 
L 376.499737 -111.840237 
L 376.396335 -113.995328 
L 376.325254 -116.150419 
L 376.284815 -118.30551 
L 376.273293 -120.460601 
L 376.288829 -122.615692 
L 376.329218 -124.770784 
L 376.391617 -126.925875 
L 376.472232 -129.080966 
L 376.566028 -131.236057 
L 376.666539 -133.391148 
L 376.765823 -135.546239 
L 376.854588 -137.701331 
L 376.922496 -139.856422 
L 376.958617 -142.011513 
L 376.952013 -144.166604 
L 376.892401 -146.321695 
L 376.770857 -148.476786 
L 376.580537 -150.631878 
L 376.317371 -152.786969 
L 375.9807 -154.94206 
L 375.573813 -157.097151 
L 375.104317 -159.252242 
L 374.584277 -161.407333 
L 374.030053 -163.562425 
L 373.461767 -165.717516 
L 372.902396 -167.872607 
L 372.376506 -170.027698 
L 371.908727 -172.182789 
L 371.522101 -174.33788 
L 371.236481 -176.492972 
L 371.067177 -178.648063 
L 371.023992 -180.803154 
L 371.110758 -182.958245 
L 371.325416 -185.113336 
L 371.660578 -187.268427 
L 372.104476 -189.423519 
L 372.642135 -191.57861 
L 373.25662 -193.733701 
L 373.930195 -195.888792 
L 374.645301 -198.043883 
L 375.385297 -200.198974 
L 376.134944 -202.354066 
L 376.880688 -204.509157 
L 377.610767 -206.664248 
L 378.315229 -208.819339 
L 378.985877 -210.97443 
L 379.6162 -213.129522 
L 380.20128 -215.284613 
L 380.737691 -217.439704 
L 381.223378 -219.594795 
L 381.657521 -221.749886 
L 382.040392 -223.904977 
L 382.3732 -226.060069 
L 382.657954 -228.21516 
L 382.897356 -230.370251 
L 383.094702 -232.525342 
L 383.253825 -234.680433 
L 383.379031 -236.835524 
L 383.475025 -238.990616 
L 383.54681 -241.145707 
L 383.599537 -243.300798 
L 383.63831 -245.455889 
L 383.667958 -247.61098 
L 383.692794 -249.766071 
L 383.716393 -251.921163 
L 383.741433 -254.076254 
L 383.769606 -256.231345 
L 383.801637 -258.386436 
L 383.83739 -260.541527 
L 383.876068 -262.696618 
L 383.916456 -264.85171 
L 383.957187 -267.006801 
L 383.996977 -269.161892 
L 384.034819 -271.316983 
L 384.070089 -273.472074 
L 384.102578 -275.627165 
L 384.132446 -277.782257 
L 384.160125 -279.937348 
L 384.186189 -282.092439 
L 384.773811 -282.092439 
L 384.773811 -282.092439 
L 384.799875 -279.937348 
L 384.827554 -277.782257 
L 384.857422 -275.627165 
L 384.889911 -273.472074 
L 384.925181 -271.316983 
L 384.963023 -269.161892 
L 385.002813 -267.006801 
L 385.043544 -264.85171 
L 385.083932 -262.696618 
L 385.12261 -260.541527 
L 385.158363 -258.386436 
L 385.190394 -256.231345 
L 385.218567 -254.076254 
L 385.243607 -251.921163 
L 385.267206 -249.766071 
L 385.292042 -247.61098 
L 385.32169 -245.455889 
L 385.360463 -243.300798 
L 385.41319 -241.145707 
L 385.484975 -238.990616 
L 385.580969 -236.835524 
L 385.706175 -234.680433 
L 385.865298 -232.525342 
L 386.062644 -230.370251 
L 386.302046 -228.21516 
L 386.5868 -226.060069 
L 386.919608 -223.904977 
L 387.302479 -221.749886 
L 387.736622 -219.594795 
L 388.222309 -217.439704 
L 388.75872 -215.284613 
L 389.3438 -213.129522 
L 389.974123 -210.97443 
L 390.644771 -208.819339 
L 391.349233 -206.664248 
L 392.079312 -204.509157 
L 392.825056 -202.354066 
L 393.574703 -200.198974 
L 394.314699 -198.043883 
L 395.029805 -195.888792 
L 395.70338 -193.733701 
L 396.317865 -191.57861 
L 396.855524 -189.423519 
L 397.299422 -187.268427 
L 397.634584 -185.113336 
L 397.849242 -182.958245 
L 397.936008 -180.803154 
L 397.892823 -178.648063 
L 397.723519 -176.492972 
L 397.437899 -174.33788 
L 397.051273 -172.182789 
L 396.583494 -170.027698 
L 396.057604 -167.872607 
L 395.498233 -165.717516 
L 394.929947 -163.562425 
L 394.375723 -161.407333 
L 393.855683 -159.252242 
L 393.386187 -157.097151 
L 392.9793 -154.94206 
L 392.642629 -152.786969 
L 392.379463 -150.631878 
L 392.189143 -148.476786 
L 392.067599 -146.321695 
L 392.007987 -144.166604 
L 392.001383 -142.011513 
L 392.037504 -139.856422 
L 392.105412 -137.701331 
L 392.194177 -135.546239 
L 392.293461 -133.391148 
L 392.393972 -131.236057 
L 392.487768 -129.080966 
L 392.568383 -126.925875 
L 392.630782 -124.770784 
L 392.671171 -122.615692 
L 392.686707 -120.460601 
L 392.675185 -118.30551 
L 392.634746 -116.150419 
L 392.563665 -113.995328 
L 392.460263 -111.840237 
L 392.322927 -109.685145 
L 392.15025 -107.530054 
L 391.941229 -105.374963 
L 391.695504 -103.219872 
L 391.413582 -101.064781 
L 391.097009 -98.909689 
L 390.748469 -96.754598 
L 390.371799 -94.599507 
L 389.971908 -92.444416 
L 389.554618 -90.289325 
L 389.126431 -88.134234 
L 388.69425 -85.979142 
L 388.265061 -83.824051 
L 387.845619 -81.66896 
L 387.44214 -79.513869 
L 387.060036 -77.358778 
L 386.703712 -75.203687 
L 386.376433 -73.048595 
L 386.08027 -70.893504 
L 385.816133 -68.738413 
z
" style="stroke: #3a3a3a"/>
    </defs>
    <g clip-path="url(#p496e8264ef)">
     <use xlink:href="#m4583451bad" x="0" y="360" style="fill: #cb453e; stroke: #3a3a3a"/>
    </g>
   </g>
   <g id="PolyCollection_5">
    <defs>
     <path id="m8804a42105" d="M 475.771536 -53.909767 
L 471.748464 -53.909767 
L 471.585601 -55.976338 
L 471.415195 -58.042909 
L 471.236445 -60.10948 
L 471.048456 -62.176051 
L 470.850306 -64.242622 
L 470.641127 -66.309193 
L 470.420196 -68.375764 
L 470.187034 -70.442335 
L 469.941509 -72.508907 
L 469.683927 -74.575478 
L 469.41512 -76.642049 
L 469.136504 -78.70862 
L 468.850122 -80.775191 
L 468.558648 -82.841762 
L 468.265363 -84.908333 
L 467.974088 -86.974904 
L 467.689092 -89.041475 
L 467.414956 -91.108046 
L 467.156413 -93.174617 
L 466.918171 -95.241188 
L 466.704717 -97.307759 
L 466.520117 -99.37433 
L 466.367831 -101.440901 
L 466.250529 -103.507472 
L 466.169949 -105.574043 
L 466.126782 -107.640615 
L 466.120596 -109.707186 
L 466.149806 -111.773757 
L 466.211701 -113.840328 
L 466.302501 -115.906899 
L 466.417479 -117.97347 
L 466.551106 -120.040041 
L 466.697239 -122.106612 
L 466.849331 -124.173183 
L 467.000661 -126.239754 
L 467.144562 -128.306325 
L 467.274652 -130.372896 
L 467.385055 -132.439467 
L 467.470589 -134.506038 
L 467.52694 -136.572609 
L 467.55079 -138.63918 
L 467.539913 -140.705751 
L 467.493229 -142.772323 
L 467.410816 -144.838894 
L 467.293881 -146.905465 
L 467.144693 -148.972036 
L 466.966484 -151.038607 
L 466.76332 -153.105178 
L 466.539949 -155.171749 
L 466.301636 -157.23832 
L 466.05399 -159.304891 
L 465.802784 -161.371462 
L 465.553794 -163.438033 
L 465.312634 -165.504604 
L 465.084629 -167.571175 
L 464.874686 -169.637746 
L 464.687214 -171.704317 
L 464.526049 -173.770888 
L 464.394416 -175.837459 
L 464.29491 -177.904031 
L 464.229497 -179.970602 
L 464.199532 -182.037173 
L 464.205786 -184.103744 
L 464.248488 -186.170315 
L 464.327362 -188.236886 
L 464.441672 -190.303457 
L 464.590261 -192.370028 
L 464.771593 -194.436599 
L 464.98378 -196.50317 
L 465.224622 -198.569741 
L 465.491634 -200.636312 
L 465.782077 -202.702883 
L 466.092993 -204.769454 
L 466.421239 -206.836025 
L 466.763529 -208.902596 
L 467.116484 -210.969167 
L 467.476681 -213.035739 
L 467.840708 -215.10231 
L 468.20523 -217.168881 
L 468.567041 -219.235452 
L 468.92313 -221.302023 
L 469.270732 -223.368594 
L 469.607377 -225.435165 
L 469.930931 -227.501736 
L 470.239622 -229.568307 
L 470.532062 -231.634878 
L 470.807251 -233.701449 
L 471.064568 -235.76802 
L 471.303757 -237.834591 
L 471.524898 -239.901162 
L 471.728369 -241.967733 
L 471.914805 -244.034304 
L 472.08505 -246.100875 
L 472.240108 -248.167447 
L 472.381092 -250.234018 
L 472.509177 -252.300589 
L 472.625557 -254.36716 
L 472.731404 -256.433731 
L 472.827837 -258.500302 
L 474.692163 -258.500302 
L 474.692163 -258.500302 
L 474.788596 -256.433731 
L 474.894443 -254.36716 
L 475.010823 -252.300589 
L 475.138908 -250.234018 
L 475.279892 -248.167447 
L 475.43495 -246.100875 
L 475.605195 -244.034304 
L 475.791631 -241.967733 
L 475.995102 -239.901162 
L 476.216243 -237.834591 
L 476.455432 -235.76802 
L 476.712749 -233.701449 
L 476.987938 -231.634878 
L 477.280378 -229.568307 
L 477.589069 -227.501736 
L 477.912623 -225.435165 
L 478.249268 -223.368594 
L 478.59687 -221.302023 
L 478.952959 -219.235452 
L 479.31477 -217.168881 
L 479.679292 -215.10231 
L 480.043319 -213.035739 
L 480.403516 -210.969167 
L 480.756471 -208.902596 
L 481.098761 -206.836025 
L 481.427007 -204.769454 
L 481.737923 -202.702883 
L 482.028366 -200.636312 
L 482.295378 -198.569741 
L 482.53622 -196.50317 
L 482.748407 -194.436599 
L 482.929739 -192.370028 
L 483.078328 -190.303457 
L 483.192638 -188.236886 
L 483.271512 -186.170315 
L 483.314214 -184.103744 
L 483.320468 -182.037173 
L 483.290503 -179.970602 
L 483.22509 -177.904031 
L 483.125584 -175.837459 
L 482.993951 -173.770888 
L 482.832786 -171.704317 
L 482.645314 -169.637746 
L 482.435371 -167.571175 
L 482.207366 -165.504604 
L 481.966206 -163.438033 
L 481.717216 -161.371462 
L 481.46601 -159.304891 
L 481.218364 -157.23832 
L 480.980051 -155.171749 
L 480.75668 -153.105178 
L 480.553516 -151.038607 
L 480.375307 -148.972036 
L 480.226119 -146.905465 
L 480.109184 -144.838894 
L 480.026771 -142.772323 
L 479.980087 -140.705751 
L 479.96921 -138.63918 
L 479.99306 -136.572609 
L 480.049411 -134.506038 
L 480.134945 -132.439467 
L 480.245348 -130.372896 
L 480.375438 -128.306325 
L 480.519339 -126.239754 
L 480.670669 -124.173183 
L 480.822761 -122.106612 
L 480.968894 -120.040041 
L 481.102521 -117.97347 
L 481.217499 -115.906899 
L 481.308299 -113.840328 
L 481.370194 -111.773757 
L 481.399404 -109.707186 
L 481.393218 -107.640615 
L 481.350051 -105.574043 
L 481.269471 -103.507472 
L 481.152169 -101.440901 
L 480.999883 -99.37433 
L 480.815283 -97.307759 
L 480.601829 -95.241188 
L 480.363587 -93.174617 
L 480.105044 -91.108046 
L 479.830908 -89.041475 
L 479.545912 -86.974904 
L 479.254637 -84.908333 
L 478.961352 -82.841762 
L 478.669878 -80.775191 
L 478.383496 -78.70862 
L 478.10488 -76.642049 
L 477.836073 -74.575478 
L 477.578491 -72.508907 
L 477.332966 -70.442335 
L 477.099804 -68.375764 
L 476.878873 -66.309193 
L 476.669694 -64.242622 
L 476.471544 -62.176051 
L 476.283555 -60.10948 
L 476.104805 -58.042909 
L 475.934399 -55.976338 
L 475.771536 -53.909767 
z
" style="stroke: #3a3a3a"/>
    </defs>
    <g clip-path="url(#p496e8264ef)">
     <use xlink:href="#m8804a42105" x="0" y="360" style="fill: #9d262a; stroke: #3a3a3a"/>
    </g>
   </g>
   <g id="matplotlib.axis_1">
    <g id="xtick_1">
     <g id="line2d_1">
      <defs>
       <path id="m83033d9c4f" d="M 0 0 
L 0 4.8 
" style="stroke: #000000"/>
      </defs>
      <g>
       <use xlink:href="#m83033d9c4f" x="116.64" y="320.4" style="stroke: #000000"/>
      </g>
     </g>
     <g id="text_1">
      <text style="font: 8.8px 'DejaVu Sans', 'Bitstream Vera Sans', 'Computer Modern Sans Serif', 'Lucida Grande', 'Verdana', 'Geneva', 'Lucid', 'Arial', 'Helvetica', 'Avant Garde', sans-serif; text-anchor: middle" x="116.64" y="335.386625" transform="rotate(-0 116.64 335.386625)">0-0.2</text>
     </g>
    </g>
    <g id="xtick_2">
     <g id="line2d_2">
      <g>
       <use xlink:href="#m83033d9c4f" x="205.92" y="320.4" style="stroke: #000000"/>
      </g>
     </g>
     <g id="text_2">
      <text style="font: 8.8px 'DejaVu Sans', 'Bitstream Vera Sans', 'Computer Modern Sans Serif', 'Lucida Grande', 'Verdana', 'Geneva', 'Lucid', 'Arial', 'Helvetica', 'Avant Garde', sans-serif; text-anchor: middle" x="205.92" y="335.386625" transform="rotate(-0 205.92 335.386625)">0.2-0.4</text>
     </g>
    </g>
    <g id="xtick_3">
     <g id="line2d_3">
      <g>
       <use xlink:href="#m83033d9c4f" x="295.2" y="320.4" style="stroke: #000000"/>
      </g>
     </g>
     <g id="text_3">
      <text style="font: 8.8px 'DejaVu Sans', 'Bitstream Vera Sans', 'Computer Modern Sans Serif', 'Lucida Grande', 'Verdana', 'Geneva', 'Lucid', 'Arial', 'Helvetica', 'Avant Garde', sans-serif; text-anchor: middle" x="295.2" y="335.386625" transform="rotate(-0 295.2 335.386625)">0.4-0.6</text>
     </g>
    </g>
    <g id="xtick_4">
     <g id="line2d_4">
      <g>
       <use xlink:href="#m83033d9c4f" x="384.48" y="320.4" style="stroke: #000000"/>
      </g>
     </g>
     <g id="text_4">
      <text style="font: 8.8px 'DejaVu Sans', 'Bitstream Vera Sans', 'Computer Modern Sans Serif', 'Lucida Grande', 'Verdana', 'Geneva', 'Lucid', 'Arial', 'Helvetica', 'Avant Garde', sans-serif; text-anchor: middle" x="384.48" y="335.386625" transform="rotate(-0 384.48 335.386625)">0.6-0.8</text>
     </g>
    </g>
    <g id="xtick_5">
     <g id="line2d_5">
      <g>
       <use xlink:href="#m83033d9c4f" x="473.76" y="320.4" style="stroke: #000000"/>
      </g>
     </g>
     <g id="text_5">
      <text style="font: 8.8px 'DejaVu Sans', 'Bitstream Vera Sans', 'Computer Modern Sans Serif', 'Lucida Grande', 'Verdana', 'Geneva', 'Lucid', 'Arial', 'Helvetica', 'Avant Garde', sans-serif; text-anchor: middle" x="473.76" y="335.386625" transform="rotate(-0 473.76 335.386625)">0.8-1</text>
     </g>
    </g>
    <g id="text_6">
     <text style="font: 9.6px 'DejaVu Sans', 'Bitstream Vera Sans', 'Computer Modern Sans Serif', 'Lucida Grande', 'Verdana', 'Geneva', 'Lucid', 'Arial', 'Helvetica', 'Avant Garde', sans-serif" transform="translate(238.68675 348.51125)">Penetrance of mutation</text>
     <text style="font: 9.6px 'DejaVu Sans', 'Bitstream Vera Sans', 'Computer Modern Sans Serif', 'Lucida Grande', 'Verdana', 'Geneva', 'Lucid', 'Arial', 'Helvetica', 'Avant Garde', sans-serif" transform="translate(169.50525 359.26115)"># mutated reads/# total reads (per site per sample)</text>
    </g>
   </g>
   <g id="matplotlib.axis_2">
    <g id="ytick_1">
     <g id="line2d_6">
      <defs>
       <path id="md8f2edb004" d="M 0 0 
L -4.8 0 
" style="stroke: #000000"/>
      </defs>
      <g>
       <use xlink:href="#md8f2edb004" x="72" y="315.61965" style="stroke: #000000"/>
      </g>
     </g>
     <g id="text_7">
      <text style="font: 8.8px 'DejaVu Sans', 'Bitstream Vera Sans', 'Computer Modern Sans Serif', 'Lucida Grande', 'Verdana', 'Geneva', 'Lucid', 'Arial', 'Helvetica', 'Avant Garde', sans-serif; text-anchor: end" x="63.7" y="318.962963" transform="rotate(-0 63.7 318.962963)">−0.8</text>
     </g>
    </g>
    <g id="ytick_2">
     <g id="line2d_7">
      <g>
       <use xlink:href="#md8f2edb004" x="72" y="282.07716" style="stroke: #000000"/>
      </g>
     </g>
     <g id="text_8">
      <text style="font: 8.8px 'DejaVu Sans', 'Bitstream Vera Sans', 'Computer Modern Sans Serif', 'Lucida Grande', 'Verdana', 'Geneva', 'Lucid', 'Arial', 'Helvetica', 'Avant Garde', sans-serif; text-anchor: end" x="63.7" y="285.420473" transform="rotate(-0 63.7 285.420473)">−0.6</text>
     </g>
    </g>
    <g id="ytick_3">
     <g id="line2d_8">
      <g>
       <use xlink:href="#md8f2edb004" x="72" y="248.53467" style="stroke: #000000"/>
      </g>
     </g>
     <g id="text_9">
      <text style="font: 8.8px 'DejaVu Sans', 'Bitstream Vera Sans', 'Computer Modern Sans Serif', 'Lucida Grande', 'Verdana', 'Geneva', 'Lucid', 'Arial', 'Helvetica', 'Avant Garde', sans-serif; text-anchor: end" x="63.7" y="251.877983" transform="rotate(-0 63.7 251.877983)">−0.4</text>
     </g>
    </g>
    <g id="ytick_4">
     <g id="line2d_9">
      <g>
       <use xlink:href="#md8f2edb004" x="72" y="214.99218" style="stroke: #000000"/>
      </g>
     </g>
     <g id="text_10">
      <text style="font: 8.8px 'DejaVu Sans', 'Bitstream Vera Sans', 'Computer Modern Sans Serif', 'Lucida Grande', 'Verdana', 'Geneva', 'Lucid', 'Arial', 'Helvetica', 'Avant Garde', sans-serif; text-anchor: end" x="63.7" y="218.335493" transform="rotate(-0 63.7 218.335493)">−0.2</text>
     </g>
    </g>
    <g id="ytick_5">
     <g id="line2d_10">
      <g>
       <use xlink:href="#md8f2edb004" x="72" y="181.44969" style="stroke: #000000"/>
      </g>
     </g>
     <g id="text_11">
      <text style="font: 8.8px 'DejaVu Sans', 'Bitstream Vera Sans', 'Computer Modern Sans Serif', 'Lucida Grande', 'Verdana', 'Geneva', 'Lucid', 'Arial', 'Helvetica', 'Avant Garde', sans-serif; text-anchor: end" x="63.7" y="184.793003" transform="rotate(-0 63.7 184.793003)">0.0</text>
     </g>
    </g>
    <g id="ytick_6">
     <g id="line2d_11">
      <g>
       <use xlink:href="#md8f2edb004" x="72" y="147.9072" style="stroke: #000000"/>
      </g>
     </g>
     <g id="text_12">
      <text style="font: 8.8px 'DejaVu Sans', 'Bitstream Vera Sans', 'Computer Modern Sans Serif', 'Lucida Grande', 'Verdana', 'Geneva', 'Lucid', 'Arial', 'Helvetica', 'Avant Garde', sans-serif; text-anchor: end" x="63.7" y="151.250513" transform="rotate(-0 63.7 151.250513)">0.2</text>
     </g>
    </g>
    <g id="ytick_7">
     <g id="line2d_12">
      <g>
       <use xlink:href="#md8f2edb004" x="72" y="114.36471" style="stroke: #000000"/>
      </g>
     </g>
     <g id="text_13">
      <text style="font: 8.8px 'DejaVu Sans', 'Bitstream Vera Sans', 'Computer Modern Sans Serif', 'Lucida Grande', 'Verdana', 'Geneva', 'Lucid', 'Arial', 'Helvetica', 'Avant Garde', sans-serif; text-anchor: end" x="63.7" y="117.708023" transform="rotate(-0 63.7 117.708023)">0.4</text>
     </g>
    </g>
    <g id="ytick_8">
     <g id="line2d_13">
      <g>
       <use xlink:href="#md8f2edb004" x="72" y="80.82222" style="stroke: #000000"/>
      </g>
     </g>
     <g id="text_14">
      <text style="font: 8.8px 'DejaVu Sans', 'Bitstream Vera Sans', 'Computer Modern Sans Serif', 'Lucida Grande', 'Verdana', 'Geneva', 'Lucid', 'Arial', 'Helvetica', 'Avant Garde', sans-serif; text-anchor: end" x="63.7" y="84.165532" transform="rotate(-0 63.7 84.165532)">0.6</text>
     </g>
    </g>
    <g id="ytick_9">
     <g id="line2d_14">
      <g>
       <use xlink:href="#md8f2edb004" x="72" y="47.27973" style="stroke: #000000"/>
      </g>
     </g>
     <g id="text_15">
      <text style="font: 8.8px 'DejaVu Sans', 'Bitstream Vera Sans', 'Computer Modern Sans Serif', 'Lucida Grande', 'Verdana', 'Geneva', 'Lucid', 'Arial', 'Helvetica', 'Avant Garde', sans-serif; text-anchor: end" x="63.7" y="50.623042" transform="rotate(-0 63.7 50.623042)">0.8</text>
     </g>
    </g>
    <g id="text_16">
     <text style="font: 9.6px 'DejaVu Sans', 'Bitstream Vera Sans', 'Computer Modern Sans Serif', 'Lucida Grande', 'Verdana', 'Geneva', 'Lucid', 'Arial', 'Helvetica', 'Avant Garde', sans-serif; text-anchor: middle" x="36.334625" y="181.8" transform="rotate(-90 36.334625 181.8)">Methylation fraction</text>
    </g>
   </g>
   <g id="line2d_15">
    <path d="M 116.64 228.844017 
L 116.64 139.822832 
" clip-path="url(#p496e8264ef)" style="fill: none; stroke: #3a3a3a; stroke-width: 1.5; stroke-linecap: square"/>
   </g>
   <g id="line2d_16">
    <path d="M 116.64 195.659124 
L 116.64 173.322388 
" clip-path="url(#p496e8264ef)" style="fill: none; stroke: #3a3a3a; stroke-width: 4.5; stroke-linecap: square"/>
   </g>
   <g id="line2d_17">
    <path d="M 116.64 181.748923 
" clip-path="url(#p496e8264ef)" style="fill: none; stroke: #3a3a3a; stroke-width: 1.2; stroke-linecap: square"/>
    <defs>
     <path id="mb82353199a" d="M 1.875 0 
L -1.875 -0 
" style="stroke: #ffffff; stroke-width: 0.9"/>
    </defs>
    <g clip-path="url(#p496e8264ef)">
     <use xlink:href="#mb82353199a" x="116.64" y="181.748923" style="fill: #ffffff; stroke: #ffffff; stroke-width: 0.9"/>
    </g>
   </g>
   <g id="line2d_18">
    <path d="M 205.92 264.341953 
L 205.92 121.294926 
" clip-path="url(#p496e8264ef)" style="fill: none; stroke: #3a3a3a; stroke-width: 1.5; stroke-linecap: square"/>
   </g>
   <g id="line2d_19">
    <path d="M 205.92 211.091964 
L 205.92 175.018222 
" clip-path="url(#p496e8264ef)" style="fill: none; stroke: #3a3a3a; stroke-width: 4.5; stroke-linecap: square"/>
   </g>
   <g id="line2d_20">
    <path d="M 205.92 185.595917 
" clip-path="url(#p496e8264ef)" style="fill: none; stroke: #3a3a3a; stroke-width: 1.2; stroke-linecap: square"/>
    <g clip-path="url(#p496e8264ef)">
     <use xlink:href="#mb82353199a" x="205.92" y="185.595917" style="fill: #ffffff; stroke: #ffffff; stroke-width: 0.9"/>
    </g>
   </g>
   <g id="line2d_21">
    <path d="M 295.2 280.179026 
L 295.2 113.113378 
" clip-path="url(#p496e8264ef)" style="fill: none; stroke: #3a3a3a; stroke-width: 1.5; stroke-linecap: square"/>
   </g>
   <g id="line2d_22">
    <path d="M 295.2 217.538932 
L 295.2 175.321837 
" clip-path="url(#p496e8264ef)" style="fill: none; stroke: #3a3a3a; stroke-width: 4.5; stroke-linecap: square"/>
   </g>
   <g id="line2d_23">
    <path d="M 295.2 186.874855 
" clip-path="url(#p496e8264ef)" style="fill: none; stroke: #3a3a3a; stroke-width: 1.2; stroke-linecap: square"/>
    <g clip-path="url(#p496e8264ef)">
     <use xlink:href="#mb82353199a" x="295.2" y="186.874855" style="fill: #ffffff; stroke: #ffffff; stroke-width: 0.9"/>
    </g>
   </g>
   <g id="line2d_24">
    <path d="M 384.48 291.261587 
L 384.48 104.817269 
" clip-path="url(#p496e8264ef)" style="fill: none; stroke: #3a3a3a; stroke-width: 1.5; stroke-linecap: square"/>
   </g>
   <g id="line2d_25">
    <path d="M 384.48 235.556645 
L 384.48 176.155197 
" clip-path="url(#p496e8264ef)" style="fill: none; stroke: #3a3a3a; stroke-width: 4.5; stroke-linecap: square"/>
   </g>
   <g id="line2d_26">
    <path d="M 384.48 191.475029 
" clip-path="url(#p496e8264ef)" style="fill: none; stroke: #3a3a3a; stroke-width: 1.2; stroke-linecap: square"/>
    <g clip-path="url(#p496e8264ef)">
     <use xlink:href="#mb82353199a" x="384.48" y="191.475029" style="fill: #ffffff; stroke: #ffffff; stroke-width: 0.9"/>
    </g>
   </g>
   <g id="line2d_27">
    <path d="M 473.76 306.090233 
L 473.76 101.499698 
" clip-path="url(#p496e8264ef)" style="fill: none; stroke: #3a3a3a; stroke-width: 1.5; stroke-linecap: square"/>
   </g>
   <g id="line2d_28">
    <path d="M 473.76 250.324707 
L 473.76 169.870891 
" clip-path="url(#p496e8264ef)" style="fill: none; stroke: #3a3a3a; stroke-width: 4.5; stroke-linecap: square"/>
   </g>
   <g id="line2d_29">
    <path d="M 473.76 195.926497 
" clip-path="url(#p496e8264ef)" style="fill: none; stroke: #3a3a3a; stroke-width: 1.2; stroke-linecap: square"/>
    <g clip-path="url(#p496e8264ef)">
     <use xlink:href="#mb82353199a" x="473.76" y="195.926497" style="fill: #ffffff; stroke: #ffffff; stroke-width: 0.9"/>
    </g>
   </g>
   <g id="patch_3">
    <path d="M 72 320.4 
L 72 43.2 
" style="fill: none; stroke: #000000; stroke-linejoin: miter; stroke-linecap: square"/>
   </g>
   <g id="patch_4">
    <path d="M 72 320.4 
L 518.4 320.4 
" style="fill: none; stroke: #000000; stroke-linejoin: miter; stroke-linecap: square"/>
   </g>
   <g id="text_17">
    <text style="font: 9.6px 'DejaVu Sans', 'Bitstream Vera Sans', 'Computer Modern Sans Serif', 'Lucida Grande', 'Verdana', 'Geneva', 'Lucid', 'Arial', 'Helvetica', 'Avant Garde', sans-serif" transform="translate(96.90075 289.95405)">Pearson r = -0.17</text>
    <text style="font: 9.6px 'DejaVu Sans', 'Bitstream Vera Sans', 'Computer Modern Sans Serif', 'Lucida Grande', 'Verdana', 'Geneva', 'Lucid', 'Arial', 'Helvetica', 'Avant Garde', sans-serif" transform="translate(107.27925 300.70395)">p = 2.08E-53</text>
   </g>
  </g>
 </g>
 <defs>
  <clipPath id="p496e8264ef">
   <rect x="72" y="43.2" width="446.4" height="277.2"/>
  </clipPath>
 </defs>
</svg>
